M48
;DRILL file {KiCad 4.0.7} date 02/21/18 09:39:37
;FORMAT={-:-/ absolute / inch / decimal}
FMAT,2
INCH,TZ
T1C0.016
T2C0.024
T3C0.031
T4C0.039
T5C0.039
T6C0.040
T7C0.051
T8C0.256
%
G90
G05
M72
T1
X4.1382Y-3.9854
X4.994Y-3.85
X6.05Y-3.7092
X11.836Y-3.7686
X12.7336Y-3.916
T2
X3.3Y-5.375
X3.35Y-5.325
X3.4Y-5.375
X4.85Y-5.375
X4.9Y-5.325
X4.95Y-5.375
X6.45Y-5.375
X6.5Y-5.325
X6.55Y-5.375
X7.95Y-5.375
X8.Y-5.325
X8.05Y-5.375
X10.25Y-5.375
X10.3Y-5.325
X10.35Y-5.375
X11.85Y-5.375
X11.9Y-5.325
X11.95Y-5.375
X13.35Y-5.375
X13.4Y-5.325
X13.45Y-5.375
X14.95Y-5.3
X14.95Y-5.4
X15.Y-5.35
T3
X1.9683Y-3.925
X2.3683Y-3.925
X2.6Y-4.875
X2.6Y-5.175
X2.7Y-4.875
X2.7Y-5.175
X2.9Y-4.875
X2.9Y-5.175
X3.Y-4.875
X3.Y-5.175
X3.2Y-4.875
X3.2Y-5.175
X3.3Y-4.875
X3.3Y-5.175
X4.15Y-4.875
X4.15Y-5.175
X4.25Y-4.875
X4.25Y-5.175
X4.45Y-4.875
X4.45Y-5.175
X4.55Y-4.875
X4.55Y-5.175
X4.75Y-4.875
X4.75Y-5.175
X4.85Y-4.875
X4.85Y-5.175
X5.75Y-4.875
X5.75Y-5.175
X5.85Y-4.875
X5.85Y-5.175
X6.05Y-4.875
X6.05Y-5.175
X6.15Y-4.875
X6.15Y-5.175
X6.35Y-4.875
X6.35Y-5.175
X6.45Y-4.875
X6.45Y-5.175
X7.25Y-4.875
X7.25Y-5.175
X7.35Y-4.875
X7.35Y-5.175
X7.55Y-4.875
X7.55Y-5.175
X7.65Y-4.875
X7.65Y-5.175
X7.85Y-4.875
X7.85Y-5.175
X7.95Y-4.875
X7.95Y-5.175
X9.55Y-4.875
X9.55Y-5.175
X9.65Y-4.875
X9.65Y-5.175
X9.85Y-4.875
X9.85Y-5.175
X9.95Y-4.875
X9.95Y-5.175
X10.15Y-4.875
X10.15Y-5.175
X10.25Y-4.875
X10.25Y-5.175
X11.15Y-4.875
X11.15Y-5.175
X11.25Y-4.875
X11.25Y-5.175
X11.45Y-4.875
X11.45Y-5.175
X11.55Y-4.875
X11.55Y-5.175
X11.75Y-4.875
X11.75Y-5.175
X11.85Y-4.875
X11.85Y-5.175
X12.65Y-4.875
X12.65Y-5.175
X12.75Y-4.875
X12.75Y-5.175
X12.95Y-4.875
X12.95Y-5.175
X13.05Y-4.875
X13.05Y-5.175
X13.25Y-4.875
X13.25Y-5.175
X13.35Y-4.875
X13.35Y-5.175
X14.25Y-4.875
X14.25Y-5.175
X14.35Y-4.875
X14.35Y-5.175
X14.55Y-4.875
X14.55Y-5.175
X14.65Y-4.875
X14.65Y-5.175
X14.85Y-4.875
X14.85Y-5.175
X14.95Y-4.875
X14.95Y-5.175
T4
X1.7433Y-4.425
X1.7433Y-4.525
X2.3433Y-4.3
X2.3433Y-4.5953
X3.3383Y-4.425
X4.1333Y-4.425
X4.9083Y-4.425
X5.6983Y-4.425
X6.4833Y-4.425
X7.2783Y-4.425
X8.0583Y-4.425
X8.8533Y-4.425
X9.6333Y-4.425
X10.4233Y-4.425
X11.2133Y-4.425
X11.9983Y-4.425
X12.7883Y-4.425
X13.5683Y-4.425
X14.3633Y-4.425
X15.1383Y-4.425
T5
X2.4Y-5.175
X2.4Y-5.575
X3.55Y-5.1
X3.55Y-5.5
X3.95Y-5.1
X3.95Y-5.5
X5.1Y-5.1
X5.1Y-5.5
X5.55Y-5.1
X5.55Y-5.5
X6.7Y-5.1
X6.7Y-5.5
X7.05Y-5.1
X7.05Y-5.5
X8.2Y-5.1
X8.2Y-5.5
X9.35Y-5.1
X9.35Y-5.5
X10.5Y-5.1
X10.5Y-5.5
X10.95Y-5.1
X10.95Y-5.5
X12.1Y-5.1
X12.1Y-5.5
X12.45Y-5.1
X12.45Y-5.5
X13.6Y-5.1
X13.6Y-5.5
X14.025Y-5.1
X14.025Y-5.5
X14.6Y-5.7
X15.Y-5.7
T6
X2.225Y-5.575
X2.225Y-5.675
X2.7Y-5.725
X2.7Y-5.825
X2.8Y-5.725
X2.8Y-5.825
X2.9Y-5.725
X2.9Y-5.825
X3.Y-5.725
X3.Y-5.825
T7
X1.9683Y-4.2234
X1.9683Y-4.375
X1.9683Y-4.5266
X1.9683Y-4.6781
X2.5746Y-3.925
X2.7715Y-3.925
X2.9683Y-3.925
T8
X2.9433Y-4.425
X3.7307Y-4.425
X4.5181Y-4.425
X5.3055Y-4.425
X6.0929Y-4.425
X6.8803Y-4.425
X7.6677Y-4.425
X8.4551Y-4.425
X9.2425Y-4.425
X10.0299Y-4.425
X10.8173Y-4.425
X11.6047Y-4.425
X12.3921Y-4.425
X13.1795Y-4.425
X13.9669Y-4.425
X14.7543Y-4.425
T0
M30
