G04 #@! TF.FileFunction,Soldermask,Top*
%FSLAX46Y46*%
G04 Gerber Fmt 4.6, Leading zero omitted, Abs format (unit mm)*
G04 Created by KiCad (PCBNEW 4.0.7) date 02/21/18 09:39:28*
%MOMM*%
%LPD*%
G01*
G04 APERTURE LIST*
%ADD10C,0.100000*%
%ADD11O,1.600000X1.600000*%
%ADD12C,1.000760*%
%ADD13R,1.727200X1.727200*%
%ADD14O,1.727200X1.727200*%
%ADD15R,2.032000X2.032000*%
%ADD16O,2.032000X2.032000*%
%ADD17C,1.998980*%
%ADD18R,1.500000X0.800000*%
%ADD19R,0.800000X1.500000*%
%ADD20C,10.000000*%
%ADD21R,1.700000X1.700000*%
%ADD22O,1.700000X1.700000*%
%ADD23C,1.600000*%
%ADD24C,2.000000*%
%ADD25R,2.000000X2.000000*%
%ADD26C,2.340000*%
G04 APERTURE END LIST*
D10*
D11*
X328930000Y-131445000D03*
X331470000Y-131445000D03*
X331470000Y-123825000D03*
X328930000Y-123825000D03*
D12*
X381000000Y-135890000D03*
X379730000Y-137160000D03*
X379730000Y-134620000D03*
D13*
X68580000Y-147955000D03*
D14*
X68580000Y-145415000D03*
X71120000Y-147955000D03*
X71120000Y-145415000D03*
X73660000Y-147955000D03*
X73660000Y-145415000D03*
X76200000Y-147955000D03*
X76200000Y-145415000D03*
D15*
X56515000Y-141605000D03*
D16*
X56515000Y-144145000D03*
D12*
X85090000Y-135255000D03*
X86360000Y-136525000D03*
X83820000Y-136525000D03*
X261620000Y-135255000D03*
X262890000Y-136525000D03*
X260350000Y-136525000D03*
X124460000Y-135255000D03*
X125730000Y-136525000D03*
X123190000Y-136525000D03*
X302260000Y-135255000D03*
X303530000Y-136525000D03*
X300990000Y-136525000D03*
X165100000Y-135255000D03*
X166370000Y-136525000D03*
X163830000Y-136525000D03*
X340360000Y-135255000D03*
X341630000Y-136525000D03*
X339090000Y-136525000D03*
X203200000Y-135255000D03*
X204470000Y-136525000D03*
X201930000Y-136525000D03*
D17*
X100330000Y-129540000D03*
X100330000Y-139700000D03*
X278130000Y-129540000D03*
X278130000Y-139700000D03*
X140970000Y-129540000D03*
X140970000Y-139700000D03*
X316230000Y-129540000D03*
X316230000Y-139700000D03*
X179070000Y-129540000D03*
X179070000Y-139700000D03*
X356235000Y-129540000D03*
X356235000Y-139700000D03*
X237490000Y-129540000D03*
X237490000Y-139700000D03*
X60960000Y-131445000D03*
X60960000Y-141605000D03*
D11*
X66040000Y-131445000D03*
X68580000Y-131445000D03*
X68580000Y-123825000D03*
X66040000Y-123825000D03*
X73660000Y-131445000D03*
X76200000Y-131445000D03*
X76200000Y-123825000D03*
X73660000Y-123825000D03*
X81280000Y-131445000D03*
X83820000Y-131445000D03*
X83820000Y-123825000D03*
X81280000Y-123825000D03*
X242570000Y-131445000D03*
X245110000Y-131445000D03*
X245110000Y-123825000D03*
X242570000Y-123825000D03*
X250190000Y-131445000D03*
X252730000Y-131445000D03*
X252730000Y-123825000D03*
X250190000Y-123825000D03*
X257810000Y-131445000D03*
X260350000Y-131445000D03*
X260350000Y-123825000D03*
X257810000Y-123825000D03*
X105410000Y-131445000D03*
X107950000Y-131445000D03*
X107950000Y-123825000D03*
X105410000Y-123825000D03*
X113030000Y-131445000D03*
X115570000Y-131445000D03*
X115570000Y-123825000D03*
X113030000Y-123825000D03*
X120650000Y-131445000D03*
X123190000Y-131445000D03*
X123190000Y-123825000D03*
X120650000Y-123825000D03*
X283210000Y-131445000D03*
X285750000Y-131445000D03*
X285750000Y-123825000D03*
X283210000Y-123825000D03*
X290830000Y-131445000D03*
X293370000Y-131445000D03*
X293370000Y-123825000D03*
X290830000Y-123825000D03*
X298450000Y-131445000D03*
X300990000Y-131445000D03*
X300990000Y-123825000D03*
X298450000Y-123825000D03*
X146050000Y-131445000D03*
X148590000Y-131445000D03*
X148590000Y-123825000D03*
X146050000Y-123825000D03*
X153670000Y-131445000D03*
X156210000Y-131445000D03*
X156210000Y-123825000D03*
X153670000Y-123825000D03*
X161290000Y-131445000D03*
X163830000Y-131445000D03*
X163830000Y-123825000D03*
X161290000Y-123825000D03*
X321310000Y-131445000D03*
X323850000Y-131445000D03*
X323850000Y-123825000D03*
X321310000Y-123825000D03*
X336550000Y-131445000D03*
X339090000Y-131445000D03*
X339090000Y-123825000D03*
X336550000Y-123825000D03*
X184150000Y-131445000D03*
X186690000Y-131445000D03*
X186690000Y-123825000D03*
X184150000Y-123825000D03*
X191770000Y-131445000D03*
X194310000Y-131445000D03*
X194310000Y-123825000D03*
X191770000Y-123825000D03*
X199390000Y-131445000D03*
X201930000Y-131445000D03*
X201930000Y-123825000D03*
X199390000Y-123825000D03*
X361950000Y-131445000D03*
X364490000Y-131445000D03*
X364490000Y-123825000D03*
X361950000Y-123825000D03*
X369570000Y-131445000D03*
X372110000Y-131445000D03*
X372110000Y-123825000D03*
X369570000Y-123825000D03*
X377190000Y-131445000D03*
X379730000Y-131445000D03*
X379730000Y-123825000D03*
X377190000Y-123825000D03*
D17*
X90170000Y-129540000D03*
X90170000Y-139700000D03*
X266700000Y-129540000D03*
X266700000Y-139700000D03*
X129540000Y-129540000D03*
X129540000Y-139700000D03*
X307340000Y-129540000D03*
X307340000Y-139700000D03*
X170180000Y-129540000D03*
X170180000Y-139700000D03*
X345440000Y-129540000D03*
X345440000Y-139700000D03*
X208280000Y-129540000D03*
X208280000Y-139700000D03*
X381000000Y-144780000D03*
X370840000Y-144780000D03*
D18*
X66040000Y-119723000D03*
X66040000Y-121323000D03*
X84963000Y-118021000D03*
X84963000Y-116421000D03*
D19*
X99657000Y-123825000D03*
X101257000Y-123825000D03*
D18*
X124587000Y-117767000D03*
X124587000Y-116167000D03*
D19*
X139789000Y-123825000D03*
X141389000Y-123825000D03*
D18*
X164719000Y-117640000D03*
X164719000Y-116040000D03*
D19*
X177889000Y-123825000D03*
X179489000Y-123825000D03*
D18*
X201930000Y-119850000D03*
X201930000Y-121450000D03*
D20*
X74760000Y-112395000D03*
X94760000Y-112395000D03*
X114760000Y-112395000D03*
X174760000Y-112395000D03*
X194760000Y-112395000D03*
X214760000Y-112395000D03*
X234760000Y-112395000D03*
X254760000Y-112395000D03*
X274760000Y-112395000D03*
X294760000Y-112395000D03*
X134760000Y-112395000D03*
X154760000Y-112395000D03*
X314760000Y-112395000D03*
X334760000Y-112395000D03*
X354760000Y-112395000D03*
X374760000Y-112395000D03*
D21*
X44280000Y-114935000D03*
D22*
X44280000Y-112395000D03*
D23*
X60155000Y-99695000D03*
D11*
X49995000Y-99695000D03*
D24*
X49995000Y-107275000D03*
X49995000Y-111125000D03*
X49995000Y-114975000D03*
X49995000Y-118825000D03*
D25*
X59520000Y-109220000D03*
D24*
X59520000Y-116720000D03*
D21*
X84793000Y-112395000D03*
X244686000Y-112395000D03*
X104986000Y-112395000D03*
X264752000Y-112395000D03*
X124671000Y-112395000D03*
X284818000Y-112395000D03*
X304757000Y-112395000D03*
X144737000Y-112395000D03*
X324823000Y-112395000D03*
X164676000Y-112395000D03*
X344635000Y-112395000D03*
X184869000Y-112395000D03*
X204681000Y-112395000D03*
X364828000Y-112395000D03*
X224874000Y-112395000D03*
X384513000Y-112395000D03*
D26*
X65395000Y-99695000D03*
X70395000Y-99695000D03*
X75395000Y-99695000D03*
M02*
