solid Amp_holder
facet normal 0.0 -1.0 0.0
  outer loop
    vertex 40.20000076293945 -7.499999999999999 12.267610549926758
    vertex 17.999999999999996 -7.499999999999999 5.867610931396484
    vertex 40.20000076293945 -7.499999999999999 5.867610931396484
  endloop
endfacet
facet normal 0.0 -1.0 0.0
  outer loop
    vertex 17.999999999999996 -7.499999999999999 5.867610931396484
    vertex 40.20000076293945 -7.499999999999999 12.267610549926758
    vertex 17.999999999999996 -7.499999999999999 12.267610549926758
  endloop
endfacet
facet normal 0.0 -1.0 0.0
  outer loop
    vertex 46.20000076293945 -7.499999999999999 5.867610931396484
    vertex 0.0 -7.499999999999999 1.1279865760785e-14
    vertex 46.20000076293945 -7.499999999999999 0.0
  endloop
endfacet
facet normal 0.0 -1.0 0.0
  outer loop
    vertex 0.0 -7.499999999999999 1.1279865760785e-14
    vertex 46.20000076293945 -7.499999999999999 5.867610931396484
    vertex 0.0 -7.499999999999999 5.867610931396484
  endloop
endfacet
facet normal 0.0 -1.0 0.0
  outer loop
    vertex 0.0 -7.499999999999999 5.867610931396484
    vertex 46.20000076293945 -7.499999999999999 5.867610931396484
    vertex 40.20000076293945 -7.499999999999999 5.867610931396484
  endloop
endfacet
facet normal 0.0 -1.0 0.0
  outer loop
    vertex 0.0 -7.499999999999999 5.867610931396484
    vertex 40.20000076293945 -7.499999999999999 5.867610931396484
    vertex 17.999999999999996 -7.499999999999999 5.867610931396484
  endloop
endfacet
facet normal 0.0 0.0 1.0
  outer loop
    vertex 40.20000076293945 -7.499999999999999 12.267610549926758
    vertex 17.999999999999996 -4.800000190734863 12.267610549926758
    vertex 17.999999999999996 -7.499999999999999 12.267610549926758
  endloop
endfacet
facet normal 0.0 0.0 1.0
  outer loop
    vertex 17.999999999999996 -4.800000190734863 12.267610549926758
    vertex 40.20000076293945 -7.499999999999999 12.267610549926758
    vertex 40.20000076293945 -4.800000190734863 12.267610549926758
  endloop
endfacet
facet normal -1.0 0.0 0.0
  outer loop
    vertex 43.700000762939446 -9.023892608628e-14 19.86761093139648
    vertex 43.700000762939446 -3.5 5.867610931396484
    vertex 43.700000762939446 -3.5 19.86761093139648
  endloop
endfacet
facet normal -1.0 0.0 0.0
  outer loop
    vertex 43.700000762939446 -3.5 5.867610931396484
    vertex 43.700000762939446 -9.023892608628e-14 19.86761093139648
    vertex 43.700000762939446 -4.511946304314e-14 5.867610931396484
  endloop
endfacet
facet normal 1.0 0.0 0.0
  outer loop
    vertex 2.4999999999999996 -4.511946304314e-14 5.867610931396484
    vertex 2.4999999999999996 -3.5 19.86761093139648
    vertex 2.4999999999999996 -3.5 5.867610931396484
  endloop
endfacet
facet normal 1.0 0.0 0.0
  outer loop
    vertex 2.4999999999999996 -3.5 19.86761093139648
    vertex 2.4999999999999996 -4.511946304314e-14 5.867610931396484
    vertex 2.4999999999999996 -9.023892608628e-14 19.86761093139648
  endloop
endfacet
facet normal 0.0 0.0 1.0
  outer loop
    vertex 2.4999999999999996 -3.5 19.86761093139648
    vertex 0.0 -9.023892608628e-14 19.86761093139648
    vertex 0.0 -3.5 19.86761093139648
  endloop
endfacet
facet normal 0.0 0.0 1.0
  outer loop
    vertex 0.0 -9.023892608628e-14 19.86761093139648
    vertex 2.4999999999999996 -3.5 19.86761093139648
    vertex 2.4999999999999996 -9.023892608628e-14 19.86761093139648
  endloop
endfacet
facet normal -2.4415293451322716e-16 0.0 -1.0
  outer loop
    vertex 46.20000076293945 -4.511946304314e-14 0.0
    vertex 0.0 -7.499999999999999 1.1279865760785e-14
    vertex 0.0 -4.511946304314e-14 1.1279865760785e-14
  endloop
endfacet
facet normal -2.4415293451322716e-16 0.0 -1.0
  outer loop
    vertex 0.0 -7.499999999999999 1.1279865760785e-14
    vertex 46.20000076293945 -4.511946304314e-14 0.0
    vertex 46.20000076293945 -7.499999999999999 0.0
  endloop
endfacet
facet normal 1.0 0.0 0.0
  outer loop
    vertex 46.20000076293945 -4.511946304314e-14 0.0
    vertex 46.20000076293945 -7.499999999999999 5.867610931396484
    vertex 46.20000076293945 -7.499999999999999 0.0
  endloop
endfacet
facet normal 1.0 0.0 0.0
  outer loop
    vertex 46.20000076293945 -7.499999999999999 5.867610931396484
    vertex 46.20000076293945 -4.511946304314e-14 0.0
    vertex 46.20000076293945 -3.5 5.867610931396484
  endloop
endfacet
facet normal 1.0 0.0 0.0
  outer loop
    vertex 46.20000076293945 -3.5 5.867610931396484
    vertex 46.20000076293945 -4.511946304314e-14 0.0
    vertex 46.20000076293945 -3.5 19.86761093139648
  endloop
endfacet
facet normal 1.0 0.0 0.0
  outer loop
    vertex 46.20000076293945 -3.5 19.86761093139648
    vertex 46.20000076293945 -4.511946304314e-14 0.0
    vertex 46.20000076293945 -9.023892608628e-14 19.86761093139648
  endloop
endfacet
facet normal 0.0 0.0 1.0
  outer loop
    vertex 46.20000076293945 -3.5 19.86761093139648
    vertex 43.700000762939446 -9.023892608628e-14 19.86761093139648
    vertex 43.700000762939446 -3.5 19.86761093139648
  endloop
endfacet
facet normal 0.0 0.0 1.0
  outer loop
    vertex 43.700000762939446 -9.023892608628e-14 19.86761093139648
    vertex 46.20000076293945 -3.5 19.86761093139648
    vertex 46.20000076293945 -9.023892608628e-14 19.86761093139648
  endloop
endfacet
facet normal 0.0 -1.0 0.0
  outer loop
    vertex 46.20000076293945 -3.5 19.86761093139648
    vertex 43.700000762939446 -3.5 5.867610931396484
    vertex 46.20000076293945 -3.5 5.867610931396484
  endloop
endfacet
facet normal 0.0 -1.0 0.0
  outer loop
    vertex 43.700000762939446 -3.5 5.867610931396484
    vertex 46.20000076293945 -3.5 19.86761093139648
    vertex 43.700000762939446 -3.5 19.86761093139648
  endloop
endfacet
facet normal 0.0 0.0 1.0
  outer loop
    vertex 46.20000076293945 -7.499999999999999 5.867610931396484
    vertex 40.20000076293945 -4.800000190734863 5.867610931396484
    vertex 40.20000076293945 -7.499999999999999 5.867610931396484
  endloop
endfacet
facet normal 0.0 0.0 1.0
  outer loop
    vertex 40.20000076293945 -4.800000190734863 5.867610931396484
    vertex 46.20000076293945 -7.499999999999999 5.867610931396484
    vertex 43.700000762939446 -3.5 5.867610931396484
  endloop
endfacet
facet normal 0.0 0.0 1.0
  outer loop
    vertex 43.700000762939446 -3.5 5.867610931396484
    vertex 46.20000076293945 -7.499999999999999 5.867610931396484
    vertex 46.20000076293945 -3.5 5.867610931396484
  endloop
endfacet
facet normal 0.0 0.0 1.0
  outer loop
    vertex 17.999999999999996 -7.499999999999999 5.867610931396484
    vertex 0.0 -3.5 5.867610931396484
    vertex 0.0 -7.499999999999999 5.867610931396484
  endloop
endfacet
facet normal 0.0 0.0 1.0
  outer loop
    vertex 0.0 -3.5 5.867610931396484
    vertex 17.999999999999996 -7.499999999999999 5.867610931396484
    vertex 2.4999999999999996 -3.5 5.867610931396484
  endloop
endfacet
facet normal 0.0 0.0 1.0
  outer loop
    vertex 2.4999999999999996 -3.5 5.867610931396484
    vertex 17.999999999999996 -7.499999999999999 5.867610931396484
    vertex 2.4999999999999996 -4.511946304314e-14 5.867610931396484
  endloop
endfacet
facet normal 0.0 0.0 1.0
  outer loop
    vertex 2.4999999999999996 -4.511946304314e-14 5.867610931396484
    vertex 17.999999999999996 -7.499999999999999 5.867610931396484
    vertex 17.999999999999996 -4.800000190734863 5.867610931396484
  endloop
endfacet
facet normal 0.0 0.0 1.0
  outer loop
    vertex 2.4999999999999996 -4.511946304314e-14 5.867610931396484
    vertex 17.999999999999996 -4.800000190734863 5.867610931396484
    vertex 43.700000762939446 -4.511946304314e-14 5.867610931396484
  endloop
endfacet
facet normal 0.0 0.0 1.0
  outer loop
    vertex 43.700000762939446 -4.511946304314e-14 5.867610931396484
    vertex 17.999999999999996 -4.800000190734863 5.867610931396484
    vertex 40.20000076293945 -4.800000190734863 5.867610931396484
  endloop
endfacet
facet normal 0.0 0.0 1.0
  outer loop
    vertex 43.700000762939446 -4.511946304314e-14 5.867610931396484
    vertex 40.20000076293945 -4.800000190734863 5.867610931396484
    vertex 43.700000762939446 -3.5 5.867610931396484
  endloop
endfacet
facet normal 0.0 -1.0 0.0
  outer loop
    vertex 2.4999999999999996 -3.5 19.86761093139648
    vertex 0.0 -3.5 5.867610931396484
    vertex 2.4999999999999996 -3.5 5.867610931396484
  endloop
endfacet
facet normal 0.0 -1.0 0.0
  outer loop
    vertex 0.0 -3.5 5.867610931396484
    vertex 2.4999999999999996 -3.5 19.86761093139648
    vertex 0.0 -3.5 19.86761093139648
  endloop
endfacet
facet normal -1.0 0.0 0.0
  outer loop
    vertex 0.0 -9.023892608628e-14 19.86761093139648
    vertex 0.0 -3.5 5.867610931396484
    vertex 0.0 -3.5 19.86761093139648
  endloop
endfacet
facet normal -1.0 0.0 0.0
  outer loop
    vertex 0.0 -3.5 5.867610931396484
    vertex 0.0 -7.499999999999999 1.1279865760785e-14
    vertex 0.0 -7.499999999999999 5.867610931396484
  endloop
endfacet
facet normal -1.0 0.0 0.0
  outer loop
    vertex 0.0 -7.499999999999999 1.1279865760785e-14
    vertex 0.0 -3.5 5.867610931396484
    vertex 0.0 -4.511946304314e-14 1.1279865760785e-14
  endloop
endfacet
facet normal -1.0 0.0 0.0
  outer loop
    vertex 0.0 -4.511946304314e-14 1.1279865760785e-14
    vertex 0.0 -3.5 5.867610931396484
    vertex 0.0 -9.023892608628e-14 19.86761093139648
  endloop
endfacet
facet normal -1.0 0.0 0.0
  outer loop
    vertex 17.999999999999996 -4.800000190734863 12.267610549926758
    vertex 17.999999999999996 -7.499999999999999 5.867610931396484
    vertex 17.999999999999996 -7.499999999999999 12.267610549926758
  endloop
endfacet
facet normal -1.0 0.0 0.0
  outer loop
    vertex 17.999999999999996 -7.499999999999999 5.867610931396484
    vertex 17.999999999999996 -4.800000190734863 12.267610549926758
    vertex 17.999999999999996 -4.800000190734863 5.867610931396484
  endloop
endfacet
facet normal 0.0 1.0 0.0
  outer loop
    vertex 17.999999999999996 -4.800000190734863 12.267610549926758
    vertex 40.20000076293945 -4.800000190734863 5.867610931396484
    vertex 17.999999999999996 -4.800000190734863 5.867610931396484
  endloop
endfacet
facet normal 0.0 1.0 0.0
  outer loop
    vertex 40.20000076293945 -4.800000190734863 5.867610931396484
    vertex 17.999999999999996 -4.800000190734863 12.267610549926758
    vertex 40.20000076293945 -4.800000190734863 12.267610549926758
  endloop
endfacet
facet normal 1.0 0.0 0.0
  outer loop
    vertex 40.20000076293945 -4.800000190734863 5.867610931396484
    vertex 40.20000076293945 -7.499999999999999 12.267610549926758
    vertex 40.20000076293945 -7.499999999999999 5.867610931396484
  endloop
endfacet
facet normal 1.0 0.0 0.0
  outer loop
    vertex 40.20000076293945 -7.499999999999999 12.267610549926758
    vertex 40.20000076293945 -4.800000190734863 5.867610931396484
    vertex 40.20000076293945 -4.800000190734863 12.267610549926758
  endloop
endfacet
facet normal 1.4095398043587944e-31 1.0 2.513566282616821e-15
  outer loop
    vertex 0.0 -9.023892608628e-14 19.86761093139648
    vertex 2.4999999999999996 -4.511946304314e-14 5.867610931396484
    vertex 0.0 -4.511946304314e-14 1.1279865760785e-14
  endloop
endfacet
facet normal 1.4095398043587944e-31 1.0 2.513566282616821e-15
  outer loop
    vertex 2.4999999999999996 -4.511946304314e-14 5.867610931396484
    vertex 0.0 -9.023892608628e-14 19.86761093139648
    vertex 2.4999999999999996 -9.023892608628e-14 19.86761093139648
  endloop
endfacet
facet normal 1.4095398043587944e-31 1.0 2.513566282616821e-15
  outer loop
    vertex 46.20000076293945 -4.511946304314e-14 0.0
    vertex 43.700000762939446 -4.511946304314e-14 5.867610931396484
    vertex 46.20000076293945 -9.023892608628e-14 19.86761093139648
  endloop
endfacet
facet normal 1.4095398043587944e-31 1.0 2.513566282616821e-15
  outer loop
    vertex 43.700000762939446 -4.511946304314e-14 5.867610931396484
    vertex 46.20000076293945 -4.511946304314e-14 0.0
    vertex 0.0 -4.511946304314e-14 1.1279865760785e-14
  endloop
endfacet
facet normal 1.4095398043587944e-31 1.0 2.513566282616821e-15
  outer loop
    vertex 43.700000762939446 -4.511946304314e-14 5.867610931396484
    vertex 0.0 -4.511946304314e-14 1.1279865760785e-14
    vertex 2.4999999999999996 -4.511946304314e-14 5.867610931396484
  endloop
endfacet
facet normal 1.4095398043587944e-31 1.0 2.513566282616821e-15
  outer loop
    vertex 46.20000076293945 -9.023892608628e-14 19.86761093139648
    vertex 43.700000762939446 -4.511946304314e-14 5.867610931396484
    vertex 43.700000762939446 -9.023892608628e-14 19.86761093139648
  endloop
endfacet
endsolid Amp_holder
