solid Untitled-5dc46f7b
facet normal 0.0 0.0 -1.0
  outer loop
    vertex 45.4 57.0 0.0
    vertex 43.39999999999999 0.0 0.0
    vertex 43.39999999999999 57.0 0.0
  endloop
endfacet
facet normal 0.0 0.0 -1.0
  outer loop
    vertex 43.39999999999999 0.0 0.0
    vertex 45.4 57.0 0.0
    vertex 45.4 0.0 0.0
  endloop
endfacet
facet normal 0.0 0.0 1.0
  outer loop
    vertex 45.4 0.0 28.999999999999993
    vertex -1.9999999999999998 57.0 28.999999999999993
    vertex -1.9999999999999998 0.0 28.999999999999993
  endloop
endfacet
facet normal 0.0 0.0 1.0
  outer loop
    vertex -1.9999999999999998 57.0 28.999999999999993
    vertex 45.4 0.0 28.999999999999993
    vertex 45.4 57.0 28.999999999999993
  endloop
endfacet
facet normal -1.0 0.0 0.0
  outer loop
    vertex -1.9999999999999998 57.0 28.999999999999993
    vertex -1.9999999999999998 0.0 0.0
    vertex -1.9999999999999998 0.0 28.999999999999993
  endloop
endfacet
facet normal -1.0 0.0 0.0
  outer loop
    vertex -1.9999999999999998 0.0 0.0
    vertex -1.9999999999999998 57.0 28.999999999999993
    vertex -1.9999999999999998 57.0 0.0
  endloop
endfacet
facet normal 1.0 0.0 0.0
  outer loop
    vertex 45.4 57.0 0.0
    vertex 45.4 0.0 28.999999999999993
    vertex 45.4 0.0 0.0
  endloop
endfacet
facet normal 1.0 0.0 0.0
  outer loop
    vertex 45.4 0.0 28.999999999999993
    vertex 45.4 57.0 0.0
    vertex 45.4 57.0 28.999999999999993
  endloop
endfacet
facet normal 0.0 -1.0 0.0
  outer loop
    vertex 45.4 0.0 28.999999999999993
    vertex 43.39999999999999 0.0 0.0
    vertex 45.4 0.0 0.0
  endloop
endfacet
facet normal 0.0 -1.0 0.0
  outer loop
    vertex 43.39999999999999 0.0 0.0
    vertex 45.4 0.0 28.999999999999993
    vertex 43.39999999999999 0.0 1.9999999999999998
  endloop
endfacet
facet normal 0.0 -1.0 0.0
  outer loop
    vertex 43.39999999999999 0.0 1.9999999999999998
    vertex 45.4 0.0 28.999999999999993
    vertex 23.399999999999995 0.0 1.9999999999999998
  endloop
endfacet
facet normal 0.0 -1.0 0.0
  outer loop
    vertex 23.399999999999995 0.0 1.9999999999999998
    vertex -1.9999999999999998 0.0 0.0
    vertex 23.399999999999995 0.0 0.0
  endloop
endfacet
facet normal 0.0 -1.0 0.0
  outer loop
    vertex -1.9999999999999998 0.0 0.0
    vertex 23.399999999999995 0.0 1.9999999999999998
    vertex -1.9999999999999998 0.0 28.999999999999993
  endloop
endfacet
facet normal 0.0 -1.0 0.0
  outer loop
    vertex -1.9999999999999998 0.0 28.999999999999993
    vertex 23.399999999999995 0.0 1.9999999999999998
    vertex 45.4 0.0 28.999999999999993
  endloop
endfacet
facet normal 0.0 1.0 0.0
  outer loop
    vertex -1.762479051592436e-16 1.9999999999999998 26.999999999999996
    vertex 23.399999999999995 1.9999999999999998 0.0
    vertex 0.0 1.9999999999999998 0.0
  endloop
endfacet
facet normal 0.0 1.0 0.0
  outer loop
    vertex 23.399999999999995 1.9999999999999998 0.0
    vertex -1.762479051592436e-16 1.9999999999999998 26.999999999999996
    vertex 23.399999999999995 1.9999999999999998 1.9999999999999998
  endloop
endfacet
facet normal 0.0 1.0 0.0
  outer loop
    vertex 23.399999999999995 1.9999999999999998 1.9999999999999998
    vertex -1.762479051592436e-16 1.9999999999999998 26.999999999999996
    vertex 43.39999999999999 1.9999999999999998 1.9999999999999998
  endloop
endfacet
facet normal 0.0 1.0 0.0
  outer loop
    vertex 43.39999999999999 1.9999999999999998 1.9999999999999998
    vertex -1.762479051592436e-16 1.9999999999999998 26.999999999999996
    vertex 43.39999999999999 1.9999999999999998 26.999999999999996
  endloop
endfacet
facet normal 1.0 0.0 0.0
  outer loop
    vertex 23.399999999999995 1.9999999999999998 0.0
    vertex 23.399999999999995 0.0 1.9999999999999998
    vertex 23.399999999999995 0.0 0.0
  endloop
endfacet
facet normal 1.0 0.0 0.0
  outer loop
    vertex 23.399999999999995 0.0 1.9999999999999998
    vertex 23.399999999999995 1.9999999999999998 0.0
    vertex 23.399999999999995 1.9999999999999998 1.9999999999999998
  endloop
endfacet
facet normal 0.0 0.0 -1.0
  outer loop
    vertex 43.39999999999999 1.9999999999999998 1.9999999999999998
    vertex 23.399999999999995 0.0 1.9999999999999998
    vertex 23.399999999999995 1.9999999999999998 1.9999999999999998
  endloop
endfacet
facet normal 0.0 0.0 -1.0
  outer loop
    vertex 23.399999999999995 0.0 1.9999999999999998
    vertex 43.39999999999999 1.9999999999999998 1.9999999999999998
    vertex 43.39999999999999 0.0 1.9999999999999998
  endloop
endfacet
facet normal -1.0 0.0 0.0
  outer loop
    vertex 43.39999999999999 1.9999999999999998 1.9999999999999998
    vertex 43.39999999999999 0.0 0.0
    vertex 43.39999999999999 0.0 1.9999999999999998
  endloop
endfacet
facet normal -1.0 0.0 0.0
  outer loop
    vertex 43.39999999999999 0.0 0.0
    vertex 43.39999999999999 1.9999999999999998 1.9999999999999998
    vertex 43.39999999999999 57.0 0.0
  endloop
endfacet
facet normal -1.0 0.0 0.0
  outer loop
    vertex 43.39999999999999 57.0 0.0
    vertex 43.39999999999999 1.9999999999999998 1.9999999999999998
    vertex 43.39999999999999 57.0 1.9999999999999998
  endloop
endfacet
facet normal 0.0 0.0 -1.0
  outer loop
    vertex 0.0 57.0 0.0
    vertex -1.9999999999999998 0.0 0.0
    vertex -1.9999999999999998 57.0 0.0
  endloop
endfacet
facet normal 0.0 0.0 -1.0
  outer loop
    vertex -1.9999999999999998 0.0 0.0
    vertex 0.0 57.0 0.0
    vertex 0.0 1.9999999999999998 0.0
  endloop
endfacet
facet normal 0.0 0.0 -1.0
  outer loop
    vertex -1.9999999999999998 0.0 0.0
    vertex 0.0 1.9999999999999998 0.0
    vertex 23.399999999999995 0.0 0.0
  endloop
endfacet
facet normal 0.0 0.0 -1.0
  outer loop
    vertex 23.399999999999995 0.0 0.0
    vertex 0.0 1.9999999999999998 0.0
    vertex 23.399999999999995 1.9999999999999998 0.0
  endloop
endfacet
facet normal 0.0 1.0 0.0
  outer loop
    vertex -1.9999999999999998 57.0 28.999999999999993
    vertex 0.0 57.0 0.0
    vertex -1.9999999999999998 57.0 0.0
  endloop
endfacet
facet normal 0.0 1.0 0.0
  outer loop
    vertex 0.0 57.0 0.0
    vertex -1.9999999999999998 57.0 28.999999999999993
    vertex -1.762479051592436e-16 57.0 26.999999999999996
  endloop
endfacet
facet normal 0.0 1.0 0.0
  outer loop
    vertex -1.762479051592436e-16 57.0 26.999999999999996
    vertex -1.9999999999999998 57.0 28.999999999999993
    vertex 43.39999999999999 57.0 26.999999999999996
  endloop
endfacet
facet normal 0.0 1.0 0.0
  outer loop
    vertex 43.39999999999999 57.0 1.9999999999999998
    vertex 45.4 57.0 0.0
    vertex 43.39999999999999 57.0 0.0
  endloop
endfacet
facet normal 0.0 1.0 0.0
  outer loop
    vertex 45.4 57.0 0.0
    vertex 43.39999999999999 57.0 1.9999999999999998
    vertex 45.4 57.0 28.999999999999993
  endloop
endfacet
facet normal 0.0 1.0 0.0
  outer loop
    vertex 45.4 57.0 28.999999999999993
    vertex 43.39999999999999 57.0 1.9999999999999998
    vertex 43.39999999999999 57.0 26.999999999999996
  endloop
endfacet
facet normal 0.0 1.0 0.0
  outer loop
    vertex 45.4 57.0 28.999999999999993
    vertex 43.39999999999999 57.0 26.999999999999996
    vertex -1.9999999999999998 57.0 28.999999999999993
  endloop
endfacet
facet normal -1.0 -0.0 -2.2559731860383186e-16
  outer loop
    vertex 43.39999999999999 57.0 26.999999999999996
    vertex 43.39999999999999 1.9999999999999998 1.9999999999999998
    vertex 43.39999999999999 1.9999999999999998 26.999999999999996
  endloop
endfacet
facet normal -1.0 -0.0 -2.2559731860383186e-16
  outer loop
    vertex 43.39999999999999 1.9999999999999998 1.9999999999999998
    vertex 43.39999999999999 57.0 26.999999999999996
    vertex 43.39999999999999 57.0 1.9999999999999998
  endloop
endfacet
facet normal -0.0 -0.0 -1.0
  outer loop
    vertex 43.39999999999999 57.0 26.999999999999996
    vertex -1.762479051592436e-16 1.9999999999999998 26.999999999999996
    vertex -1.762479051592436e-16 57.0 26.999999999999996
  endloop
endfacet
facet normal -0.0 -0.0 -1.0
  outer loop
    vertex -1.762479051592436e-16 1.9999999999999998 26.999999999999996
    vertex 43.39999999999999 57.0 26.999999999999996
    vertex 43.39999999999999 1.9999999999999998 26.999999999999996
  endloop
endfacet
facet normal 1.0 0.0 6.527700191083097e-18
  outer loop
    vertex 0.0 57.0 0.0
    vertex -1.762479051592436e-16 1.9999999999999998 26.999999999999996
    vertex 0.0 1.9999999999999998 0.0
  endloop
endfacet
facet normal 1.0 0.0 6.527700191083097e-18
  outer loop
    vertex -1.762479051592436e-16 1.9999999999999998 26.999999999999996
    vertex 0.0 57.0 0.0
    vertex -1.762479051592436e-16 57.0 26.999999999999996
  endloop
endfacet
endsolid Untitled-5dc46f7b
