solid V2
facet normal -1.0 -1.0184864661987603e-16 7.458078226187758e-18
  outer loop
    vertex 1003.9309849610611 -589.2928530717808 4.299999999999202
    vertex 1003.9309849610611 -683.292853071781 1.9999999999990938
    vertex 1003.9309849610611 -683.292853071781 4.2999999999991125
  endloop
endfacet
facet normal -1.0 -1.0184864661987603e-16 7.458078226187758e-18
  outer loop
    vertex 1003.9309849610611 -683.292853071781 1.9999999999990938
    vertex 1003.9309849610611 -589.2928530717808 4.299999999999202
    vertex 1003.9309849610611 -589.2928530717808 1.9999999999991842
  endloop
endfacet
facet normal -1.0184864661923447e-16 1.0 6.14165928714775e-18
  outer loop
    vertex 889.9309849610597 -683.292853071781 1.9999999999991842
    vertex 1003.9309849610611 -683.292853071781 4.2999999999991125
    vertex 1003.9309849610611 -683.292853071781 1.9999999999990938
  endloop
endfacet
facet normal -1.0184864661923447e-16 1.0 6.14165928714775e-18
  outer loop
    vertex 1003.9309849610611 -683.292853071781 4.2999999999991125
    vertex 889.9309849610597 -683.292853071781 1.9999999999991842
    vertex 889.9309849610597 -683.292853071781 4.299999999999202
  endloop
endfacet
facet normal -2.939361228608906e-16 -1.0 -6.14165928714775e-18
  outer loop
    vertex 1003.9309849610611 -589.2928530717808 4.299999999999202
    vertex 889.93098496106 -589.2928530717807 1.9999999999991842
    vertex 1003.9309849610611 -589.2928530717808 1.9999999999991842
  endloop
endfacet
facet normal -2.939361228608906e-16 -1.0 -6.14165928714775e-18
  outer loop
    vertex 889.93098496106 -589.2928530717807 1.9999999999991842
    vertex 1003.9309849610611 -589.2928530717808 4.299999999999202
    vertex 889.93098496106 -589.2928530717807 4.299999999999202
  endloop
endfacet
facet normal 1.0 -1.8181285329873225e-15 -7.458078226189336e-18
  outer loop
    vertex 889.93098496106 -589.2928530717807 1.9999999999991842
    vertex 889.9309849610597 -683.292853071781 4.299999999999202
    vertex 889.9309849610597 -683.292853071781 1.9999999999991842
  endloop
endfacet
facet normal 1.0 -1.8181285329873225e-15 -7.458078226189336e-18
  outer loop
    vertex 889.9309849610597 -683.292853071781 4.299999999999202
    vertex 889.93098496106 -589.2928530717807 1.9999999999991842
    vertex 889.93098496106 -589.2928530717807 4.299999999999202
  endloop
endfacet
facet normal 4.0181560881277054e-17 2.1145302198876426e-17 -1.0
  outer loop
    vertex 887.1013558296162 -589.9987578462683 -8.572698106945608e-13
    vertex 886.9309849610601 -681.2928530717811 -7.670308832530281e-13
    vertex 886.9309849610601 -591.292853071781 -8.121503469737945e-13
  endloop
endfacet
facet normal 4.0181560881277054e-17 2.1145302198876426e-17 -1.0
  outer loop
    vertex 886.9309849610601 -681.2928530717811 -7.670308832530281e-13
    vertex 887.1013558296162 -589.9987578462683 -8.572698106945608e-13
    vertex 887.1013558296153 -682.5869482972936 -8.121503469737945e-13
  endloop
endfacet
facet normal 4.0181560881277054e-17 2.1145302198876426e-17 -1.0
  outer loop
    vertex 887.1013558296153 -682.5869482972936 -8.121503469737945e-13
    vertex 887.1013558296162 -589.9987578462683 -8.572698106945608e-13
    vertex 887.6008579421392 -683.7928530717809 -8.572698106945608e-13
  endloop
endfacet
facet normal 4.0181560881277054e-17 2.1145302198876426e-17 -1.0
  outer loop
    vertex 887.6008579421392 -683.7928530717809 -8.572698106945608e-13
    vertex 887.1013558296162 -589.9987578462683 -8.572698106945608e-13
    vertex 887.6008579421392 -588.7928530717808 -8.572698106945608e-13
  endloop
endfacet
facet normal 4.0181560881277054e-17 2.1145302198876426e-17 -1.0
  outer loop
    vertex 887.6008579421392 -683.7928530717809 -8.572698106945608e-13
    vertex 887.6008579421392 -588.7928530717808 -8.572698106945608e-13
    vertex 888.3954510551285 -587.7573191658482 -7.670308832530281e-13
  endloop
endfacet
facet normal 4.0181560881277054e-17 2.1145302198876426e-17 -1.0
  outer loop
    vertex 887.6008579421392 -683.7928530717809 -8.572698106945608e-13
    vertex 888.3954510551285 -587.7573191658482 -7.670308832530281e-13
    vertex 888.3954510551285 -684.8283869777138 -8.572698106945608e-13
  endloop
endfacet
facet normal 4.0181560881277054e-17 2.1145302198876426e-17 -1.0
  outer loop
    vertex 888.3954510551285 -684.8283869777138 -8.572698106945608e-13
    vertex 888.3954510551285 -587.7573191658482 -7.670308832530281e-13
    vertex 889.4309849610613 -586.9627260528589 -8.572698106945608e-13
  endloop
endfacet
facet normal 4.0181560881277054e-17 2.1145302198876426e-17 -1.0
  outer loop
    vertex 888.3954510551285 -684.8283869777138 -8.572698106945608e-13
    vertex 889.4309849610613 -586.9627260528589 -8.572698106945608e-13
    vertex 889.4309849610606 -685.6229800907032 -8.121503469737945e-13
  endloop
endfacet
facet normal 4.0181560881277054e-17 2.1145302198876426e-17 -1.0
  outer loop
    vertex 889.4309849610606 -685.6229800907032 -8.121503469737945e-13
    vertex 889.4309849610613 -586.9627260528589 -8.572698106945608e-13
    vertex 890.636889735549 -686.1224822032264 -7.670308832530281e-13
  endloop
endfacet
facet normal 4.0181560881277054e-17 2.1145302198876426e-17 -1.0
  outer loop
    vertex 890.636889735549 -686.1224822032264 -7.670308832530281e-13
    vertex 889.4309849610613 -586.9627260528589 -8.572698106945608e-13
    vertex 890.6368897355476 -586.4632239403356 -7.670308832530281e-13
  endloop
endfacet
facet normal 4.0181560881277054e-17 2.1145302198876426e-17 -1.0
  outer loop
    vertex 890.636889735549 -686.1224822032264 -7.670308832530281e-13
    vertex 890.6368897355476 -586.4632239403356 -7.670308832530281e-13
    vertex 891.9309849610602 -586.292853071781 -8.121503469737945e-13
  endloop
endfacet
facet normal 4.0181560881277054e-17 2.1145302198876426e-17 -1.0
  outer loop
    vertex 890.636889735549 -686.1224822032264 -7.670308832530281e-13
    vertex 891.9309849610602 -586.292853071781 -8.121503469737945e-13
    vertex 891.9309849610601 -681.2928530717811 -8.121503469737945e-13
  endloop
endfacet
facet normal 4.0181560881277054e-17 2.1145302198876426e-17 -1.0
  outer loop
    vertex 891.9309849610601 -681.2928530717811 -8.121503469737945e-13
    vertex 891.9309849610602 -586.292853071781 -8.121503469737945e-13
    vertex 891.9309849610602 -591.2928530717808 -8.121503469737945e-13
  endloop
endfacet
facet normal 4.0181560881277054e-17 2.1145302198876426e-17 -1.0
  outer loop
    vertex 891.9309849610602 -591.2928530717808 -8.121503469737945e-13
    vertex 891.9309849610602 -586.292853071781 -8.121503469737945e-13
    vertex 1001.930984961061 -586.292853071781 -7.670308832530281e-13
  endloop
endfacet
facet normal 4.0181560881277054e-17 2.1145302198876426e-17 -1.0
  outer loop
    vertex 891.9309849610602 -591.2928530717808 -8.121503469737945e-13
    vertex 1001.930984961061 -586.292853071781 -7.670308832530281e-13
    vertex 1001.930984961061 -591.2928530717808 -8.121503469737945e-13
  endloop
endfacet
facet normal 4.0181560881277054e-17 2.1145302198876426e-17 -1.0
  outer loop
    vertex 1001.930984961061 -591.2928530717808 -8.121503469737945e-13
    vertex 1001.930984961061 -586.292853071781 -7.670308832530281e-13
    vertex 1003.2250801865733 -586.4632239403356 -8.121503469737945e-13
  endloop
endfacet
facet normal 4.0181560881277054e-17 2.1145302198876426e-17 -1.0
  outer loop
    vertex 1001.930984961061 -591.2928530717808 -8.121503469737945e-13
    vertex 1003.2250801865733 -586.4632239403356 -8.121503469737945e-13
    vertex 1001.930984961061 -681.2928530717811 -8.121503469737945e-13
  endloop
endfacet
facet normal 4.0181560881277054e-17 2.1145302198876426e-17 -1.0
  outer loop
    vertex 1001.930984961061 -681.2928530717811 -8.121503469737945e-13
    vertex 1003.2250801865733 -586.4632239403356 -8.121503469737945e-13
    vertex 1001.930984961061 -686.292853071781 -8.121503469737945e-13
  endloop
endfacet
facet normal 4.0181560881277054e-17 2.1145302198876426e-17 -1.0
  outer loop
    vertex 1001.930984961061 -686.292853071781 -8.121503469737945e-13
    vertex 1003.2250801865733 -586.4632239403356 -8.121503469737945e-13
    vertex 1003.2250801865737 -686.1224822032264 -7.670308832530281e-13
  endloop
endfacet
facet normal 4.0181560881277054e-17 2.1145302198876426e-17 -1.0
  outer loop
    vertex 1003.2250801865737 -686.1224822032264 -7.670308832530281e-13
    vertex 1003.2250801865733 -586.4632239403356 -8.121503469737945e-13
    vertex 1004.4309849610606 -586.9627260528589 -9.023892744153272e-13
  endloop
endfacet
facet normal 4.0181560881277054e-17 2.1145302198876426e-17 -1.0
  outer loop
    vertex 1003.2250801865737 -686.1224822032264 -7.670308832530281e-13
    vertex 1004.4309849610606 -586.9627260528589 -9.023892744153272e-13
    vertex 1004.430984961061 -685.6229800907032 -8.121503469737945e-13
  endloop
endfacet
facet normal 4.0181560881277054e-17 2.1145302198876426e-17 -1.0
  outer loop
    vertex 1004.430984961061 -685.6229800907032 -8.121503469737945e-13
    vertex 1004.4309849610606 -586.9627260528589 -9.023892744153272e-13
    vertex 1005.4665188669936 -587.7573191658482 -9.023892744153272e-13
  endloop
endfacet
facet normal 4.0181560881277054e-17 2.1145302198876426e-17 -1.0
  outer loop
    vertex 1004.430984961061 -685.6229800907032 -8.121503469737945e-13
    vertex 1005.4665188669936 -587.7573191658482 -9.023892744153272e-13
    vertex 1005.4665188669936 -684.8283869777138 -8.572698106945608e-13
  endloop
endfacet
facet normal 4.0181560881277054e-17 2.1145302198876426e-17 -1.0
  outer loop
    vertex 1005.4665188669936 -684.8283869777138 -8.572698106945608e-13
    vertex 1005.4665188669936 -587.7573191658482 -9.023892744153272e-13
    vertex 1006.2611119799831 -588.792853071781 -8.121503469737945e-13
  endloop
endfacet
facet normal 4.0181560881277054e-17 2.1145302198876426e-17 -1.0
  outer loop
    vertex 1005.4665188669936 -684.8283869777138 -8.572698106945608e-13
    vertex 1006.2611119799831 -588.792853071781 -8.121503469737945e-13
    vertex 1006.2611119799831 -683.792853071781 -8.121503469737945e-13
  endloop
endfacet
facet normal 4.0181560881277054e-17 2.1145302198876426e-17 -1.0
  outer loop
    vertex 1006.2611119799831 -683.792853071781 -8.121503469737945e-13
    vertex 1006.2611119799831 -588.792853071781 -8.121503469737945e-13
    vertex 1006.7606140925061 -589.9987578462684 -8.121503469737945e-13
  endloop
endfacet
facet normal 4.0181560881277054e-17 2.1145302198876426e-17 -1.0
  outer loop
    vertex 1006.2611119799831 -683.792853071781 -8.121503469737945e-13
    vertex 1006.7606140925061 -589.9987578462684 -8.121503469737945e-13
    vertex 1006.7606140925061 -682.5869482972936 -9.023892744153272e-13
  endloop
endfacet
facet normal 4.0181560881277054e-17 2.1145302198876426e-17 -1.0
  outer loop
    vertex 1006.7606140925061 -682.5869482972936 -9.023892744153272e-13
    vertex 1006.7606140925061 -589.9987578462684 -8.121503469737945e-13
    vertex 1006.930984961061 -591.292853071781 -7.670308832530281e-13
  endloop
endfacet
facet normal 4.0181560881277054e-17 2.1145302198876426e-17 -1.0
  outer loop
    vertex 1006.7606140925061 -682.5869482972936 -9.023892744153272e-13
    vertex 1006.930984961061 -591.292853071781 -7.670308832530281e-13
    vertex 1006.930984961061 -681.2928530717811 -8.572698106945608e-13
  endloop
endfacet
facet normal 4.0181560881277054e-17 2.1145302198876426e-17 -1.0
  outer loop
    vertex 891.9309849610601 -681.2928530717811 -8.121503469737945e-13
    vertex 891.9309849610601 -686.292853071781 -8.121503469737945e-13
    vertex 890.636889735549 -686.1224822032264 -7.670308832530281e-13
  endloop
endfacet
facet normal 4.0181560881277054e-17 2.1145302198876426e-17 -1.0
  outer loop
    vertex 891.9309849610601 -686.292853071781 -8.121503469737945e-13
    vertex 891.9309849610601 -681.2928530717811 -8.121503469737945e-13
    vertex 1001.930984961061 -681.2928530717811 -8.121503469737945e-13
  endloop
endfacet
facet normal 4.0181560881277054e-17 2.1145302198876426e-17 -1.0
  outer loop
    vertex 891.9309849610601 -686.292853071781 -8.121503469737945e-13
    vertex 1001.930984961061 -681.2928530717811 -8.121503469737945e-13
    vertex 1001.930984961061 -686.292853071781 -8.121503469737945e-13
  endloop
endfacet
facet normal 1.0 1.0184864662027996e-16 4.018156088127232e-17
  outer loop
    vertex 1006.930984961061 -591.292853071781 -7.670308832530281e-13
    vertex 1006.9309849610611 -681.2928530717811 3.499999999999159
    vertex 1006.930984961061 -681.2928530717811 -8.572698106945608e-13
  endloop
endfacet
facet normal 1.0 1.0184864662027996e-16 4.018156088127232e-17
  outer loop
    vertex 1006.9309849610611 -681.2928530717811 3.499999999999159
    vertex 1006.930984961061 -591.292853071781 -7.670308832530281e-13
    vertex 1006.9309849610611 -591.292853071781 3.499999999999249
  endloop
endfacet
facet normal 0.9914448613738225 -0.1305261922199609 3.7077786278356007e-17
  outer loop
    vertex 1006.930984961061 -681.2928530717811 -8.572698106945608e-13
    vertex 1006.7606140925064 -682.5869482972936 3.4999999999991136
    vertex 1006.7606140925061 -682.5869482972936 -9.023892744153272e-13
  endloop
endfacet
facet normal 0.9914448613738225 -0.1305261922199609 3.7077786278356007e-17
  outer loop
    vertex 1006.7606140925064 -682.5869482972936 3.4999999999991136
    vertex 1006.930984961061 -681.2928530717811 -8.572698106945608e-13
    vertex 1006.9309849610611 -681.2928530717811 3.499999999999159
  endloop
endfacet
facet normal 1.0184864661931038e-16 -1.0 -2.1145302198876524e-17
  outer loop
    vertex 1001.9309849610612 -686.292853071781 3.499999999999159
    vertex 891.9309849610601 -686.292853071781 -8.121503469737945e-13
    vertex 1001.930984961061 -686.292853071781 -8.121503469737945e-13
  endloop
endfacet
facet normal 1.0184864661931038e-16 -1.0 -2.1145302198876524e-17
  outer loop
    vertex 891.9309849610601 -686.292853071781 -8.121503469737945e-13
    vertex 1001.9309849610612 -686.292853071781 3.499999999999159
    vertex 891.9309849610598 -686.292853071781 3.499999999999159
  endloop
endfacet
facet normal -0.13052619222012993 -0.9914448613738003 -2.6209147346566305e-17
  outer loop
    vertex 891.9309849610598 -686.292853071781 3.499999999999159
    vertex 890.636889735549 -686.1224822032264 -7.670308832530281e-13
    vertex 891.9309849610601 -686.292853071781 -8.121503469737945e-13
  endloop
endfacet
facet normal -0.13052619222012993 -0.9914448613738003 -2.6209147346566305e-17
  outer loop
    vertex 890.636889735549 -686.1224822032264 -7.670308832530281e-13
    vertex 891.9309849610598 -686.292853071781 3.499999999999159
    vertex 890.6368897355488 -686.1224822032264 3.499999999999204
  endloop
endfacet
facet normal 0.9238795325112735 -0.3826834323651218 2.9030964858693934e-17
  outer loop
    vertex 1006.7606140925061 -682.5869482972936 -9.023892744153272e-13
    vertex 1006.2611119799833 -683.792853071781 3.499999999999204
    vertex 1006.2611119799831 -683.792853071781 -8.121503469737945e-13
  endloop
endfacet
facet normal 0.9238795325112735 -0.3826834323651218 2.9030964858693934e-17
  outer loop
    vertex 1006.2611119799833 -683.792853071781 3.499999999999204
    vertex 1006.7606140925061 -682.5869482972936 -9.023892744153272e-13
    vertex 1006.7606140925064 -682.5869482972936 3.4999999999991136
  endloop
endfacet
facet normal 0.6087614290087733 -0.7933533402911948 7.685288290935997e-18
  outer loop
    vertex 1005.4665188669937 -684.8283869777138 3.499999999999159
    vertex 1004.430984961061 -685.6229800907032 -8.121503469737945e-13
    vertex 1005.4665188669936 -684.8283869777138 -8.572698106945608e-13
  endloop
endfacet
facet normal 0.6087614290087733 -0.7933533402911948 7.685288290935997e-18
  outer loop
    vertex 1004.430984961061 -685.6229800907032 -8.121503469737945e-13
    vertex 1005.4665188669937 -684.8283869777138 3.499999999999159
    vertex 1004.430984961061 -685.6229800907032 3.499999999999159
  endloop
endfacet
facet normal 0.9914448613738153 0.13052619222001544 4.2597817837071134e-17
  outer loop
    vertex 1006.7606140925061 -589.9987578462684 -8.121503469737945e-13
    vertex 1006.9309849610611 -591.292853071781 3.499999999999249
    vertex 1006.930984961061 -591.292853071781 -7.670308832530281e-13
  endloop
endfacet
facet normal 0.9914448613738153 0.13052619222001544 4.2597817837071134e-17
  outer loop
    vertex 1006.9309849610611 -591.292853071781 3.499999999999249
    vertex 1006.7606140925061 -589.9987578462684 -8.121503469737945e-13
    vertex 1006.7606140925062 -589.9987578462684 3.499999999999159
  endloop
endfacet
facet normal 0.7933533402912202 -0.6087614290087403 1.9005731159862452e-17
  outer loop
    vertex 1006.2611119799831 -683.792853071781 -8.121503469737945e-13
    vertex 1005.4665188669937 -684.8283869777138 3.499999999999159
    vertex 1005.4665188669936 -684.8283869777138 -8.572698106945608e-13
  endloop
endfacet
facet normal 0.7933533402912202 -0.6087614290087403 1.9005731159862452e-17
  outer loop
    vertex 1005.4665188669937 -684.8283869777138 3.499999999999159
    vertex 1006.2611119799831 -683.792853071781 -8.121503469737945e-13
    vertex 1006.2611119799833 -683.792853071781 3.499999999999204
  endloop
endfacet
facet normal 0.38268343236507346 -0.9238795325112936 -4.158894274477382e-18
  outer loop
    vertex 1004.430984961061 -685.6229800907032 3.499999999999159
    vertex 1003.2250801865737 -686.1224822032264 -7.670308832530281e-13
    vertex 1004.430984961061 -685.6229800907032 -8.121503469737945e-13
  endloop
endfacet
facet normal 0.38268343236507346 -0.9238795325112936 -4.158894274477382e-18
  outer loop
    vertex 1003.2250801865737 -686.1224822032264 -7.670308832530281e-13
    vertex 1004.430984961061 -685.6229800907032 3.499999999999159
    vertex 1003.2250801865737 -686.1224822032264 3.499999999999204
  endloop
endfacet
facet normal -0.3826834323650434 -0.923879532511306 -3.491252954613829e-17
  outer loop
    vertex 890.636889735549 -686.1224822032264 -7.670308832530281e-13
    vertex 889.430984961061 -685.6229800907032 3.499999999999159
    vertex 889.4309849610606 -685.6229800907032 -8.121503469737945e-13
  endloop
endfacet
facet normal -0.3826834323650434 -0.923879532511306 -3.491252954613829e-17
  outer loop
    vertex 889.430984961061 -685.6229800907032 3.499999999999159
    vertex 890.636889735549 -686.1224822032264 -7.670308832530281e-13
    vertex 890.6368897355488 -686.1224822032264 3.499999999999204
  endloop
endfacet
facet normal 0.13052619222004047 -0.991444861373812 -1.571965506798428e-17
  outer loop
    vertex 1003.2250801865737 -686.1224822032264 -7.670308832530281e-13
    vertex 1001.9309849610612 -686.292853071781 3.499999999999159
    vertex 1001.930984961061 -686.292853071781 -8.121503469737945e-13
  endloop
endfacet
facet normal 0.13052619222004047 -0.991444861373812 -1.571965506798428e-17
  outer loop
    vertex 1001.9309849610612 -686.292853071781 3.499999999999159
    vertex 1003.2250801865737 -686.1224822032264 -7.670308832530281e-13
    vertex 1003.2250801865737 -686.1224822032264 3.499999999999204
  endloop
endfacet
facet normal -0.6087614290087301 -0.7933533402912278 -4.123668055283339e-17
  outer loop
    vertex 889.4309849610606 -685.6229800907032 -8.121503469737945e-13
    vertex 888.3954510551285 -684.8283869777138 3.499999999999159
    vertex 888.3954510551285 -684.8283869777138 -8.572698106945608e-13
  endloop
endfacet
facet normal -0.6087614290087301 -0.7933533402912278 -4.123668055283339e-17
  outer loop
    vertex 888.3954510551285 -684.8283869777138 3.499999999999159
    vertex 889.4309849610606 -685.6229800907032 -8.121503469737945e-13
    vertex 889.430984961061 -685.6229800907032 3.499999999999159
  endloop
endfacet
facet normal -0.7933533402913218 -0.6087614290086079 -4.475061992668216e-17
  outer loop
    vertex 887.6008579421392 -683.7928530717809 3.4999999999991136
    vertex 888.3954510551285 -684.8283869777138 -8.572698106945608e-13
    vertex 888.3954510551285 -684.8283869777138 3.499999999999159
  endloop
endfacet
facet normal -0.7933533402913218 -0.6087614290086079 -4.475061992668216e-17
  outer loop
    vertex 888.3954510551285 -684.8283869777138 -8.572698106945608e-13
    vertex 887.6008579421392 -683.7928530717809 3.4999999999991136
    vertex 887.6008579421392 -683.7928530717809 -8.572698106945608e-13
  endloop
endfacet
facet normal 0.3826834323650923 0.9238795325112857 3.491252954613987e-17
  outer loop
    vertex 1003.2250801865733 -586.4632239403356 -8.121503469737945e-13
    vertex 1004.430984961061 -586.9627260528589 3.4999999999991136
    vertex 1004.4309849610606 -586.9627260528589 -9.023892744153272e-13
  endloop
endfacet
facet normal 0.3826834323650923 0.9238795325112857 3.491252954613987e-17
  outer loop
    vertex 1004.430984961061 -586.9627260528589 3.4999999999991136
    vertex 1003.2250801865733 -586.4632239403356 -8.121503469737945e-13
    vertex 1003.2250801865737 -586.4632239403356 3.499999999999204
  endloop
endfacet
facet normal -1.0184864661931038e-16 1.0 2.1145302198876524e-17
  outer loop
    vertex 891.9309849610598 -681.2928530717811 1.9999999999991842
    vertex 1001.930984961061 -681.2928530717811 -8.121503469737945e-13
    vertex 891.9309849610601 -681.2928530717811 -8.121503469737945e-13
  endloop
endfacet
facet normal -1.0184864661931038e-16 1.0 2.1145302198876524e-17
  outer loop
    vertex 1001.930984961061 -681.2928530717811 -8.121503469737945e-13
    vertex 891.9309849610598 -681.2928530717811 1.9999999999991842
    vertex 1001.930984961061 -681.2928530717811 1.9999999999991842
  endloop
endfacet
facet normal -1.0 -1.0184864661982558e-16 -4.018156088127232e-17
  outer loop
    vertex 1001.930984961061 -591.2928530717808 1.9999999999991842
    vertex 1001.930984961061 -681.2928530717811 -8.121503469737945e-13
    vertex 1001.930984961061 -681.2928530717811 1.9999999999991842
  endloop
endfacet
facet normal -1.0 -1.0184864661982558e-16 -4.018156088127232e-17
  outer loop
    vertex 1001.930984961061 -681.2928530717811 -8.121503469737945e-13
    vertex 1001.930984961061 -591.2928530717808 1.9999999999991842
    vertex 1001.930984961061 -591.2928530717808 -8.121503469737945e-13
  endloop
endfacet
facet normal -0.9238795325112735 0.3826834323651218 -2.9030964858693934e-17
  outer loop
    vertex 887.6008579421392 -588.7928530717808 3.499999999999159
    vertex 887.1013558296162 -589.9987578462683 -8.572698106945608e-13
    vertex 887.101355829616 -589.9987578462683 3.499999999999159
  endloop
endfacet
facet normal -0.9238795325112735 0.3826834323651218 -2.9030964858693934e-17
  outer loop
    vertex 887.1013558296162 -589.9987578462683 -8.572698106945608e-13
    vertex 887.6008579421392 -588.7928530717808 3.499999999999159
    vertex 887.6008579421392 -588.7928530717808 -8.572698106945608e-13
  endloop
endfacet
facet normal -0.3826834323652201 0.9238795325112329 4.158894274467916e-18
  outer loop
    vertex 889.4309849610613 -586.9627260528589 3.499999999999159
    vertex 890.6368897355476 -586.4632239403356 -7.670308832530281e-13
    vertex 889.4309849610613 -586.9627260528589 -8.572698106945608e-13
  endloop
endfacet
facet normal -0.3826834323652201 0.9238795325112329 4.158894274467916e-18
  outer loop
    vertex 890.6368897355476 -586.4632239403356 -7.670308832530281e-13
    vertex 889.4309849610613 -586.9627260528589 3.499999999999159
    vertex 890.6368897355474 -586.4632239403356 3.499999999999204
  endloop
endfacet
facet normal -0.9238795325112448 -0.3826834323651915 -4.5214878506426483e-17
  outer loop
    vertex 887.1013558296156 -682.5869482972936 3.499999999999204
    vertex 887.6008579421392 -683.7928530717809 -8.572698106945608e-13
    vertex 887.6008579421392 -683.7928530717809 3.4999999999991136
  endloop
endfacet
facet normal -0.9238795325112448 -0.3826834323651915 -4.5214878506426483e-17
  outer loop
    vertex 887.6008579421392 -683.7928530717809 -8.572698106945608e-13
    vertex 887.1013558296156 -682.5869482972936 3.499999999999204
    vertex 887.1013558296153 -682.5869482972936 -8.121503469737945e-13
  endloop
endfacet
facet normal -0.7933533402912356 0.60876142900872 -1.900573115985772e-17
  outer loop
    vertex 888.3954510551285 -587.7573191658482 3.499999999999204
    vertex 887.6008579421392 -588.7928530717808 -8.572698106945608e-13
    vertex 887.6008579421392 -588.7928530717808 3.499999999999159
  endloop
endfacet
facet normal -0.7933533402912356 0.60876142900872 -1.900573115985772e-17
  outer loop
    vertex 887.6008579421392 -588.7928530717808 -8.572698106945608e-13
    vertex 888.3954510551285 -587.7573191658482 3.499999999999204
    vertex 888.3954510551285 -587.7573191658482 -7.670308832530281e-13
  endloop
endfacet
facet normal 0.608761429008752 0.7933533402912113 4.1236680552830233e-17
  outer loop
    vertex 1004.430984961061 -586.9627260528589 3.4999999999991136
    vertex 1005.4665188669936 -587.7573191658482 -9.023892744153272e-13
    vertex 1004.4309849610606 -586.9627260528589 -9.023892744153272e-13
  endloop
endfacet
facet normal 0.608761429008752 0.7933533402912113 4.1236680552830233e-17
  outer loop
    vertex 1005.4665188669936 -587.7573191658482 -9.023892744153272e-13
    vertex 1004.430984961061 -586.9627260528589 3.4999999999991136
    vertex 1005.4665188669937 -587.7573191658482 3.4999999999990687
  endloop
endfacet
facet normal 0.7933533402912165 0.608761429008745 4.475061992668216e-17
  outer loop
    vertex 1005.4665188669936 -587.7573191658482 -9.023892744153272e-13
    vertex 1006.2611119799833 -588.792853071781 3.499999999999204
    vertex 1006.2611119799831 -588.792853071781 -8.121503469737945e-13
  endloop
endfacet
facet normal 0.7933533402912165 0.608761429008745 4.475061992668216e-17
  outer loop
    vertex 1006.2611119799833 -588.792853071781 3.499999999999204
    vertex 1005.4665188669936 -587.7573191658482 -9.023892744153272e-13
    vertex 1005.4665188669937 -587.7573191658482 3.4999999999990687
  endloop
endfacet
facet normal 1.0 -1.903460852080988e-15 4.0181560881270743e-17
  outer loop
    vertex 891.9309849610602 -591.2928530717808 -8.121503469737945e-13
    vertex 891.9309849610598 -681.2928530717811 1.9999999999991842
    vertex 891.9309849610601 -681.2928530717811 -8.121503469737945e-13
  endloop
endfacet
facet normal 1.0 -1.903460852080988e-15 4.0181560881270743e-17
  outer loop
    vertex 891.9309849610598 -681.2928530717811 1.9999999999991842
    vertex 891.9309849610602 -591.2928530717808 -8.121503469737945e-13
    vertex 891.9309849610601 -591.2928530717808 1.9999999999991842
  endloop
endfacet
facet normal -0.6087614290087066 0.7933533402912459 -7.685288290942308e-18
  outer loop
    vertex 888.3954510551285 -587.7573191658482 -7.670308832530281e-13
    vertex 889.4309849610613 -586.9627260528589 3.499999999999159
    vertex 889.4309849610613 -586.9627260528589 -8.572698106945608e-13
  endloop
endfacet
facet normal -0.6087614290087066 0.7933533402912459 -7.685288290942308e-18
  outer loop
    vertex 889.4309849610613 -586.9627260528589 3.499999999999159
    vertex 888.3954510551285 -587.7573191658482 -7.670308832530281e-13
    vertex 888.3954510551285 -587.7573191658482 3.499999999999204
  endloop
endfacet
facet normal 0.13052619222002437 0.9914448613738142 2.6209147346562262e-17
  outer loop
    vertex 1001.930984961061 -586.292853071781 -7.670308832530281e-13
    vertex 1003.2250801865737 -586.4632239403356 3.499999999999204
    vertex 1003.2250801865733 -586.4632239403356 -8.121503469737945e-13
  endloop
endfacet
facet normal 0.13052619222002437 0.9914448613738142 2.6209147346562262e-17
  outer loop
    vertex 1003.2250801865737 -586.4632239403356 3.499999999999204
    vertex 1001.930984961061 -586.292853071781 -7.670308832530281e-13
    vertex 1001.9309849610612 -586.292853071781 3.499999999999249
  endloop
endfacet
facet normal -3.0832829629645014e-16 -1.0 -2.1145302198876524e-17
  outer loop
    vertex 1001.930984961061 -591.2928530717808 1.9999999999991842
    vertex 891.9309849610602 -591.2928530717808 -8.121503469737945e-13
    vertex 1001.930984961061 -591.2928530717808 -8.121503469737945e-13
  endloop
endfacet
facet normal -3.0832829629645014e-16 -1.0 -2.1145302198876524e-17
  outer loop
    vertex 891.9309849610602 -591.2928530717808 -8.121503469737945e-13
    vertex 1001.930984961061 -591.2928530717808 1.9999999999991842
    vertex 891.9309849610601 -591.2928530717808 1.9999999999991842
  endloop
endfacet
facet normal 3.0832829629645014e-16 1.0 2.1145302198876524e-17
  outer loop
    vertex 891.9309849610601 -586.292853071781 3.499999999999204
    vertex 1001.930984961061 -586.292853071781 -7.670308832530281e-13
    vertex 891.9309849610602 -586.292853071781 -8.121503469737945e-13
  endloop
endfacet
facet normal 3.0832829629645014e-16 1.0 2.1145302198876524e-17
  outer loop
    vertex 1001.930984961061 -586.292853071781 -7.670308832530281e-13
    vertex 891.9309849610601 -586.292853071781 3.499999999999204
    vertex 1001.9309849610612 -586.292853071781 3.499999999999249
  endloop
endfacet
facet normal -0.9914448613737599 -0.13052619222043663 -4.2597817837085334e-17
  outer loop
    vertex 886.93098496106 -681.2928530717811 3.499999999999249
    vertex 887.1013558296153 -682.5869482972936 -8.121503469737945e-13
    vertex 887.1013558296156 -682.5869482972936 3.499999999999204
  endloop
endfacet
facet normal -0.9914448613737599 -0.13052619222043663 -4.2597817837085334e-17
  outer loop
    vertex 887.1013558296153 -682.5869482972936 -8.121503469737945e-13
    vertex 886.93098496106 -681.2928530717811 3.499999999999249
    vertex 886.9309849610601 -681.2928530717811 -7.670308832530281e-13
  endloop
endfacet
facet normal -0.9914448613737531 0.13052619222048664 -3.707778627833549e-17
  outer loop
    vertex 887.101355829616 -589.9987578462683 3.499999999999159
    vertex 886.9309849610601 -591.292853071781 -8.121503469737945e-13
    vertex 886.93098496106 -591.292853071781 3.499999999999159
  endloop
endfacet
facet normal -0.9914448613737531 0.13052619222048664 -3.707778627833549e-17
  outer loop
    vertex 886.9309849610601 -591.292853071781 -8.121503469737945e-13
    vertex 887.101355829616 -589.9987578462683 3.499999999999159
    vertex 887.1013558296162 -589.9987578462683 -8.572698106945608e-13
  endloop
endfacet
facet normal 0.9238795325112936 0.38268343236507346 4.521487850642017e-17
  outer loop
    vertex 1006.2611119799831 -588.792853071781 -8.121503469737945e-13
    vertex 1006.7606140925062 -589.9987578462684 3.499999999999159
    vertex 1006.7606140925061 -589.9987578462684 -8.121503469737945e-13
  endloop
endfacet
facet normal 0.9238795325112936 0.38268343236507346 4.521487850642017e-17
  outer loop
    vertex 1006.7606140925062 -589.9987578462684 3.499999999999159
    vertex 1006.2611119799831 -588.792853071781 -8.121503469737945e-13
    vertex 1006.2611119799833 -588.792853071781 3.499999999999204
  endloop
endfacet
facet normal -1.0 -1.018486466203052e-16 -4.018156088127232e-17
  outer loop
    vertex 886.93098496106 -591.292853071781 3.499999999999159
    vertex 886.9309849610601 -681.2928530717811 -7.670308832530281e-13
    vertex 886.93098496106 -681.2928530717811 3.499999999999249
  endloop
endfacet
facet normal -1.0 -1.018486466203052e-16 -4.018156088127232e-17
  outer loop
    vertex 886.9309849610601 -681.2928530717811 -7.670308832530281e-13
    vertex 886.93098496106 -591.292853071781 3.499999999999159
    vertex 886.9309849610601 -591.292853071781 -8.121503469737945e-13
  endloop
endfacet
facet normal -0.13052619222007444 0.9914448613738075 1.5719655067980335e-17
  outer loop
    vertex 890.6368897355476 -586.4632239403356 -7.670308832530281e-13
    vertex 891.9309849610601 -586.292853071781 3.499999999999204
    vertex 891.9309849610602 -586.292853071781 -8.121503469737945e-13
  endloop
endfacet
facet normal -0.13052619222007444 0.9914448613738075 1.5719655067980335e-17
  outer loop
    vertex 891.9309849610601 -586.292853071781 3.499999999999204
    vertex 890.6368897355476 -586.4632239403356 -7.670308832530281e-13
    vertex 890.6368897355474 -586.4632239403356 3.499999999999204
  endloop
endfacet
facet normal 7.458078226187758e-18 -6.141659287147454e-18 1.0
  outer loop
    vertex 889.9309849610597 -683.292853071781 1.9999999999991842
    vertex 891.9309849610598 -681.2928530717811 1.9999999999991842
    vertex 889.93098496106 -589.2928530717807 1.9999999999991842
  endloop
endfacet
facet normal 7.458078226187758e-18 -6.141659287147454e-18 1.0
  outer loop
    vertex 891.9309849610598 -681.2928530717811 1.9999999999991842
    vertex 889.9309849610597 -683.292853071781 1.9999999999991842
    vertex 1003.9309849610611 -683.292853071781 1.9999999999990938
  endloop
endfacet
facet normal 7.458078226187758e-18 -6.141659287147454e-18 1.0
  outer loop
    vertex 891.9309849610598 -681.2928530717811 1.9999999999991842
    vertex 1003.9309849610611 -683.292853071781 1.9999999999990938
    vertex 1001.930984961061 -681.2928530717811 1.9999999999991842
  endloop
endfacet
facet normal 7.458078226187758e-18 -6.141659287147454e-18 1.0
  outer loop
    vertex 1001.930984961061 -681.2928530717811 1.9999999999991842
    vertex 1003.9309849610611 -683.292853071781 1.9999999999990938
    vertex 1001.930984961061 -591.2928530717808 1.9999999999991842
  endloop
endfacet
facet normal 7.458078226187758e-18 -6.141659287147454e-18 1.0
  outer loop
    vertex 889.93098496106 -589.2928530717807 1.9999999999991842
    vertex 891.9309849610601 -591.2928530717808 1.9999999999991842
    vertex 1003.9309849610611 -589.2928530717808 1.9999999999991842
  endloop
endfacet
facet normal 7.458078226187758e-18 -6.141659287147454e-18 1.0
  outer loop
    vertex 891.9309849610601 -591.2928530717808 1.9999999999991842
    vertex 889.93098496106 -589.2928530717807 1.9999999999991842
    vertex 891.9309849610598 -681.2928530717811 1.9999999999991842
  endloop
endfacet
facet normal 7.458078226187758e-18 -6.141659287147454e-18 1.0
  outer loop
    vertex 1003.9309849610611 -589.2928530717808 1.9999999999991842
    vertex 891.9309849610601 -591.2928530717808 1.9999999999991842
    vertex 1001.930984961061 -591.2928530717808 1.9999999999991842
  endloop
endfacet
facet normal 7.458078226187758e-18 -6.141659287147454e-18 1.0
  outer loop
    vertex 1003.9309849610611 -589.2928530717808 1.9999999999991842
    vertex 1001.930984961061 -591.2928530717808 1.9999999999991842
    vertex 1003.9309849610611 -683.292853071781 1.9999999999990938
  endloop
endfacet
facet normal 9.588569195217994e-18 2.130430836045485e-17 1.0
  outer loop
    vertex 887.5884862106989 -682.4564221050732 4.299999999999202
    vertex 887.43098496106 -591.3256248031885 4.299999999999202
    vertex 887.43098496106 -681.2600813403733 4.2999999999992475
  endloop
endfacet
facet normal 9.588569195217994e-18 2.130430836045485e-17 1.0
  outer loop
    vertex 887.43098496106 -591.3256248031885 4.299999999999202
    vertex 887.5884862106989 -682.4564221050732 4.299999999999202
    vertex 887.5884862106998 -590.1292840384881 4.299999999999202
  endloop
endfacet
facet normal 9.588569195217994e-18 2.130430836045485e-17 1.0
  outer loop
    vertex 887.5884862106998 -590.1292840384881 4.299999999999202
    vertex 887.5884862106989 -682.4564221050732 4.299999999999202
    vertex 888.0376070935664 -683.540695831636 4.299999999999158
  endloop
endfacet
facet normal 9.588569195217994e-18 2.130430836045485e-17 1.0
  outer loop
    vertex 887.5884862106998 -590.1292840384881 4.299999999999202
    vertex 888.0376070935664 -683.540695831636 4.299999999999158
    vertex 888.0376070935667 -589.0450103119258 4.299999999999158
  endloop
endfacet
facet normal 9.588569195217994e-18 2.130430836045485e-17 1.0
  outer loop
    vertex 888.0376070935667 -589.0450103119258 4.299999999999158
    vertex 888.0376070935664 -683.540695831636 4.299999999999158
    vertex 888.7520552439919 -684.4717827888502 4.299999999999202
  endloop
endfacet
facet normal 9.588569195217994e-18 2.130430836045485e-17 1.0
  outer loop
    vertex 888.0376070935667 -589.0450103119258 4.299999999999158
    vertex 888.7520552439919 -684.4717827888502 4.299999999999202
    vertex 888.7520552439921 -588.1139233547121 4.2999999999992475
  endloop
endfacet
facet normal 9.588569195217994e-18 2.130430836045485e-17 1.0
  outer loop
    vertex 888.7520552439921 -588.1139233547121 4.2999999999992475
    vertex 888.7520552439919 -684.4717827888502 4.299999999999202
    vertex 889.6831422012059 -685.1862309392756 4.299999999999202
  endloop
endfacet
facet normal 9.588569195217994e-18 2.130430836045485e-17 1.0
  outer loop
    vertex 888.7520552439921 -588.1139233547121 4.2999999999992475
    vertex 889.6831422012059 -685.1862309392756 4.299999999999202
    vertex 889.6831422012059 -587.3994752042863 4.299999999999158
  endloop
endfacet
facet normal 9.588569195217994e-18 2.130430836045485e-17 1.0
  outer loop
    vertex 889.6831422012059 -587.3994752042863 4.299999999999158
    vertex 889.6831422012059 -685.1862309392756 4.299999999999202
    vertex 889.9309849610597 -683.292853071781 4.299999999999202
  endloop
endfacet
facet normal 9.588569195217994e-18 2.130430836045485e-17 1.0
  outer loop
    vertex 889.9309849610597 -683.292853071781 4.299999999999202
    vertex 889.6831422012059 -685.1862309392756 4.299999999999202
    vertex 890.7674159277689 -685.6353518221426 4.2999999999992475
  endloop
endfacet
facet normal 9.588569195217994e-18 2.130430836045485e-17 1.0
  outer loop
    vertex 889.9309849610597 -683.292853071781 4.299999999999202
    vertex 890.7674159277689 -685.6353518221426 4.2999999999992475
    vertex 1003.9309849610611 -683.292853071781 4.2999999999991125
  endloop
endfacet
facet normal 9.588569195217994e-18 2.130430836045485e-17 1.0
  outer loop
    vertex 1003.9309849610611 -683.292853071781 4.2999999999991125
    vertex 890.7674159277689 -685.6353518221426 4.2999999999992475
    vertex 891.9637566924678 -685.792853071781 4.299999999999202
  endloop
endfacet
facet normal 9.588569195217994e-18 2.130430836045485e-17 1.0
  outer loop
    vertex 1003.9309849610611 -683.292853071781 4.2999999999991125
    vertex 891.9637566924678 -685.792853071781 4.299999999999202
    vertex 1001.898213229654 -685.792853071781 4.299999999999202
  endloop
endfacet
facet normal 9.588569195217994e-18 2.130430836045485e-17 1.0
  outer loop
    vertex 1003.9309849610611 -683.292853071781 4.2999999999991125
    vertex 1001.898213229654 -685.792853071781 4.299999999999202
    vertex 1003.0945539943536 -685.6353518221425 4.2999999999992475
  endloop
endfacet
facet normal 9.588569195217994e-18 2.130430836045485e-17 1.0
  outer loop
    vertex 1003.9309849610611 -683.292853071781 4.2999999999991125
    vertex 1003.0945539943536 -685.6353518221425 4.2999999999992475
    vertex 1004.1788277209162 -685.1862309392757 4.299999999999202
  endloop
endfacet
facet normal 9.588569195217994e-18 2.130430836045485e-17 1.0
  outer loop
    vertex 1003.9309849610611 -683.292853071781 4.2999999999991125
    vertex 1004.1788277209162 -685.1862309392757 4.299999999999202
    vertex 1003.9309849610611 -589.2928530717808 4.299999999999202
  endloop
endfacet
facet normal 9.588569195217994e-18 2.130430836045485e-17 1.0
  outer loop
    vertex 889.6831422012059 -587.3994752042863 4.299999999999158
    vertex 889.93098496106 -589.2928530717807 4.299999999999202
    vertex 890.767415927768 -586.9503543214195 4.2999999999992475
  endloop
endfacet
facet normal 9.588569195217994e-18 2.130430836045485e-17 1.0
  outer loop
    vertex 889.93098496106 -589.2928530717807 4.299999999999202
    vertex 889.6831422012059 -587.3994752042863 4.299999999999158
    vertex 889.9309849610597 -683.292853071781 4.299999999999202
  endloop
endfacet
facet normal 9.588569195217994e-18 2.130430836045485e-17 1.0
  outer loop
    vertex 890.767415927768 -586.9503543214195 4.2999999999992475
    vertex 889.93098496106 -589.2928530717807 4.299999999999202
    vertex 1003.9309849610611 -589.2928530717808 4.299999999999202
  endloop
endfacet
facet normal 9.588569195217994e-18 2.130430836045485e-17 1.0
  outer loop
    vertex 890.767415927768 -586.9503543214195 4.2999999999992475
    vertex 1003.9309849610611 -589.2928530717808 4.299999999999202
    vertex 891.9637566924678 -586.7928530717811 4.299999999999202
  endloop
endfacet
facet normal 9.588569195217994e-18 2.130430836045485e-17 1.0
  outer loop
    vertex 891.9637566924678 -586.7928530717811 4.299999999999202
    vertex 1003.9309849610611 -589.2928530717808 4.299999999999202
    vertex 1001.8982132296538 -586.7928530717811 4.2999999999992475
  endloop
endfacet
facet normal 9.588569195217994e-18 2.130430836045485e-17 1.0
  outer loop
    vertex 1001.8982132296538 -586.7928530717811 4.2999999999992475
    vertex 1003.9309849610611 -589.2928530717808 4.299999999999202
    vertex 1003.0945539943536 -586.9503543214194 4.2999999999992475
  endloop
endfacet
facet normal 9.588569195217994e-18 2.130430836045485e-17 1.0
  outer loop
    vertex 1003.0945539943536 -586.9503543214194 4.2999999999992475
    vertex 1003.9309849610611 -589.2928530717808 4.299999999999202
    vertex 1004.1788277209162 -587.3994752042863 4.299999999999158
  endloop
endfacet
facet normal 9.588569195217994e-18 2.130430836045485e-17 1.0
  outer loop
    vertex 1004.1788277209162 -587.3994752042863 4.299999999999158
    vertex 1003.9309849610611 -589.2928530717808 4.299999999999202
    vertex 1004.1788277209162 -685.1862309392757 4.299999999999202
  endloop
endfacet
facet normal 9.588569195217994e-18 2.130430836045485e-17 1.0
  outer loop
    vertex 1004.1788277209162 -587.3994752042863 4.299999999999158
    vertex 1004.1788277209162 -685.1862309392757 4.299999999999202
    vertex 1005.1099146781302 -684.4717827888503 4.299999999999202
  endloop
endfacet
facet normal 9.588569195217994e-18 2.130430836045485e-17 1.0
  outer loop
    vertex 1004.1788277209162 -587.3994752042863 4.299999999999158
    vertex 1005.1099146781302 -684.4717827888503 4.299999999999202
    vertex 1005.1099146781302 -588.1139233547119 4.299999999999158
  endloop
endfacet
facet normal 9.588569195217994e-18 2.130430836045485e-17 1.0
  outer loop
    vertex 1005.1099146781302 -588.1139233547119 4.299999999999158
    vertex 1005.1099146781302 -684.4717827888503 4.299999999999202
    vertex 1005.8243628285556 -683.5406958316357 4.2999999999992475
  endloop
endfacet
facet normal 9.588569195217994e-18 2.130430836045485e-17 1.0
  outer loop
    vertex 1005.1099146781302 -588.1139233547119 4.299999999999158
    vertex 1005.8243628285556 -683.5406958316357 4.2999999999992475
    vertex 1005.8243628285556 -589.0450103119259 4.299999999999202
  endloop
endfacet
facet normal 9.588569195217994e-18 2.130430836045485e-17 1.0
  outer loop
    vertex 1005.8243628285556 -589.0450103119259 4.299999999999202
    vertex 1005.8243628285556 -683.5406958316357 4.2999999999992475
    vertex 1006.2734837114226 -590.1292840384884 4.299999999999158
  endloop
endfacet
facet normal 9.588569195217994e-18 2.130430836045485e-17 1.0
  outer loop
    vertex 1006.2734837114226 -590.1292840384884 4.299999999999158
    vertex 1005.8243628285556 -683.5406958316357 4.2999999999992475
    vertex 1006.273483711423 -682.4564221050737 4.299999999999158
  endloop
endfacet
facet normal 9.588569195217994e-18 2.130430836045485e-17 1.0
  outer loop
    vertex 1006.2734837114226 -590.1292840384884 4.299999999999158
    vertex 1006.273483711423 -682.4564221050737 4.299999999999158
    vertex 1006.4309849610612 -591.3256248031889 4.2999999999992475
  endloop
endfacet
facet normal 9.588569195217994e-18 2.130430836045485e-17 1.0
  outer loop
    vertex 1006.4309849610612 -591.3256248031889 4.2999999999992475
    vertex 1006.273483711423 -682.4564221050737 4.299999999999158
    vertex 1006.4309849610612 -681.2600813403733 4.299999999999202
  endloop
endfacet
facet normal -4.0181560881277054e-17 -2.1145302198876426e-17 1.0
  outer loop
    vertex 887.1013558296156 -682.5869482972936 3.499999999999204
    vertex 886.93098496106 -591.292853071781 3.499999999999159
    vertex 886.93098496106 -681.2928530717811 3.499999999999249
  endloop
endfacet
facet normal -4.0181560881277054e-17 -2.1145302198876426e-17 1.0
  outer loop
    vertex 886.93098496106 -591.292853071781 3.499999999999159
    vertex 887.1013558296156 -682.5869482972936 3.499999999999204
    vertex 887.101355829616 -589.9987578462683 3.499999999999159
  endloop
endfacet
facet normal -4.0181560881277054e-17 -2.1145302198876426e-17 1.0
  outer loop
    vertex 887.101355829616 -589.9987578462683 3.499999999999159
    vertex 887.1013558296156 -682.5869482972936 3.499999999999204
    vertex 887.43098496106 -681.2600813403733 3.499999999999204
  endloop
endfacet
facet normal -4.0181560881277054e-17 -2.1145302198876426e-17 1.0
  outer loop
    vertex 887.43098496106 -681.2600813403733 3.499999999999204
    vertex 887.1013558296156 -682.5869482972936 3.499999999999204
    vertex 887.6008579421392 -683.7928530717809 3.4999999999991136
  endloop
endfacet
facet normal -4.0181560881277054e-17 -2.1145302198876426e-17 1.0
  outer loop
    vertex 887.43098496106 -681.2600813403733 3.499999999999204
    vertex 887.6008579421392 -683.7928530717809 3.4999999999991136
    vertex 887.5884862106989 -682.4564221050732 3.499999999999204
  endloop
endfacet
facet normal -4.0181560881277054e-17 -2.1145302198876426e-17 1.0
  outer loop
    vertex 887.5884862106989 -682.4564221050732 3.499999999999204
    vertex 887.6008579421392 -683.7928530717809 3.4999999999991136
    vertex 888.0376070935664 -683.540695831636 3.4999999999991136
  endloop
endfacet
facet normal -4.0181560881277054e-17 -2.1145302198876426e-17 1.0
  outer loop
    vertex 888.0376070935664 -683.540695831636 3.4999999999991136
    vertex 887.6008579421392 -683.7928530717809 3.4999999999991136
    vertex 888.3954510551285 -684.8283869777138 3.499999999999159
  endloop
endfacet
facet normal -4.0181560881277054e-17 -2.1145302198876426e-17 1.0
  outer loop
    vertex 888.0376070935664 -683.540695831636 3.4999999999991136
    vertex 888.3954510551285 -684.8283869777138 3.499999999999159
    vertex 888.7520552439919 -684.4717827888502 3.499999999999159
  endloop
endfacet
facet normal -4.0181560881277054e-17 -2.1145302198876426e-17 1.0
  outer loop
    vertex 888.7520552439919 -684.4717827888502 3.499999999999159
    vertex 888.3954510551285 -684.8283869777138 3.499999999999159
    vertex 889.430984961061 -685.6229800907032 3.499999999999159
  endloop
endfacet
facet normal -4.0181560881277054e-17 -2.1145302198876426e-17 1.0
  outer loop
    vertex 888.7520552439919 -684.4717827888502 3.499999999999159
    vertex 889.430984961061 -685.6229800907032 3.499999999999159
    vertex 889.6831422012059 -685.1862309392756 3.499999999999159
  endloop
endfacet
facet normal -4.0181560881277054e-17 -2.1145302198876426e-17 1.0
  outer loop
    vertex 889.6831422012059 -685.1862309392756 3.499999999999159
    vertex 889.430984961061 -685.6229800907032 3.499999999999159
    vertex 890.6368897355488 -686.1224822032264 3.499999999999204
  endloop
endfacet
facet normal -4.0181560881277054e-17 -2.1145302198876426e-17 1.0
  outer loop
    vertex 889.6831422012059 -685.1862309392756 3.499999999999159
    vertex 890.6368897355488 -686.1224822032264 3.499999999999204
    vertex 890.7674159277689 -685.6353518221426 3.499999999999204
  endloop
endfacet
facet normal -4.0181560881277054e-17 -2.1145302198876426e-17 1.0
  outer loop
    vertex 890.7674159277689 -685.6353518221426 3.499999999999204
    vertex 890.6368897355488 -686.1224822032264 3.499999999999204
    vertex 891.9309849610598 -686.292853071781 3.499999999999159
  endloop
endfacet
facet normal -4.0181560881277054e-17 -2.1145302198876426e-17 1.0
  outer loop
    vertex 890.7674159277689 -685.6353518221426 3.499999999999204
    vertex 891.9309849610598 -686.292853071781 3.499999999999159
    vertex 891.9637566924678 -685.792853071781 3.499999999999159
  endloop
endfacet
facet normal -4.0181560881277054e-17 -2.1145302198876426e-17 1.0
  outer loop
    vertex 891.9637566924678 -685.792853071781 3.499999999999159
    vertex 891.9309849610598 -686.292853071781 3.499999999999159
    vertex 1001.9309849610612 -686.292853071781 3.499999999999159
  endloop
endfacet
facet normal -4.0181560881277054e-17 -2.1145302198876426e-17 1.0
  outer loop
    vertex 891.9637566924678 -685.792853071781 3.499999999999159
    vertex 1001.9309849610612 -686.292853071781 3.499999999999159
    vertex 1001.898213229654 -685.792853071781 3.499999999999159
  endloop
endfacet
facet normal -4.0181560881277054e-17 -2.1145302198876426e-17 1.0
  outer loop
    vertex 1001.898213229654 -685.792853071781 3.499999999999159
    vertex 1001.9309849610612 -686.292853071781 3.499999999999159
    vertex 1003.0945539943536 -685.6353518221425 3.499999999999204
  endloop
endfacet
facet normal -4.0181560881277054e-17 -2.1145302198876426e-17 1.0
  outer loop
    vertex 1003.0945539943536 -685.6353518221425 3.499999999999204
    vertex 1001.9309849610612 -686.292853071781 3.499999999999159
    vertex 1003.2250801865737 -686.1224822032264 3.499999999999204
  endloop
endfacet
facet normal -4.0181560881277054e-17 -2.1145302198876426e-17 1.0
  outer loop
    vertex 1003.0945539943536 -685.6353518221425 3.499999999999204
    vertex 1003.2250801865737 -686.1224822032264 3.499999999999204
    vertex 1004.1788277209162 -685.1862309392757 3.499999999999159
  endloop
endfacet
facet normal -4.0181560881277054e-17 -2.1145302198876426e-17 1.0
  outer loop
    vertex 1004.1788277209162 -685.1862309392757 3.499999999999159
    vertex 1003.2250801865737 -686.1224822032264 3.499999999999204
    vertex 1004.430984961061 -685.6229800907032 3.499999999999159
  endloop
endfacet
facet normal -4.0181560881277054e-17 -2.1145302198876426e-17 1.0
  outer loop
    vertex 1004.1788277209162 -685.1862309392757 3.499999999999159
    vertex 1004.430984961061 -685.6229800907032 3.499999999999159
    vertex 1005.1099146781302 -684.4717827888503 3.499999999999159
  endloop
endfacet
facet normal -4.0181560881277054e-17 -2.1145302198876426e-17 1.0
  outer loop
    vertex 1005.1099146781302 -684.4717827888503 3.499999999999159
    vertex 1004.430984961061 -685.6229800907032 3.499999999999159
    vertex 1005.4665188669937 -684.8283869777138 3.499999999999159
  endloop
endfacet
facet normal -4.0181560881277054e-17 -2.1145302198876426e-17 1.0
  outer loop
    vertex 1005.1099146781302 -684.4717827888503 3.499999999999159
    vertex 1005.4665188669937 -684.8283869777138 3.499999999999159
    vertex 1005.8243628285556 -683.5406958316357 3.499999999999204
  endloop
endfacet
facet normal -4.0181560881277054e-17 -2.1145302198876426e-17 1.0
  outer loop
    vertex 1005.8243628285556 -683.5406958316357 3.499999999999204
    vertex 1005.4665188669937 -684.8283869777138 3.499999999999159
    vertex 1006.2611119799833 -683.792853071781 3.499999999999204
  endloop
endfacet
facet normal -4.0181560881277054e-17 -2.1145302198876426e-17 1.0
  outer loop
    vertex 1005.8243628285556 -683.5406958316357 3.499999999999204
    vertex 1006.2611119799833 -683.792853071781 3.499999999999204
    vertex 1006.273483711423 -682.4564221050737 3.4999999999991136
  endloop
endfacet
facet normal -4.0181560881277054e-17 -2.1145302198876426e-17 1.0
  outer loop
    vertex 1006.273483711423 -682.4564221050737 3.4999999999991136
    vertex 1006.2611119799833 -683.792853071781 3.499999999999204
    vertex 1006.7606140925064 -682.5869482972936 3.4999999999991136
  endloop
endfacet
facet normal -4.0181560881277054e-17 -2.1145302198876426e-17 1.0
  outer loop
    vertex 1006.273483711423 -682.4564221050737 3.4999999999991136
    vertex 1006.7606140925064 -682.5869482972936 3.4999999999991136
    vertex 1006.4309849610612 -681.2600813403733 3.499999999999159
  endloop
endfacet
facet normal -4.0181560881277054e-17 -2.1145302198876426e-17 1.0
  outer loop
    vertex 1006.4309849610612 -681.2600813403733 3.499999999999159
    vertex 1006.7606140925064 -682.5869482972936 3.4999999999991136
    vertex 1006.4309849610612 -591.3256248031889 3.499999999999204
  endloop
endfacet
facet normal -4.0181560881277054e-17 -2.1145302198876426e-17 1.0
  outer loop
    vertex 1006.4309849610612 -591.3256248031889 3.499999999999204
    vertex 1006.7606140925064 -682.5869482972936 3.4999999999991136
    vertex 1006.7606140925062 -589.9987578462684 3.499999999999159
  endloop
endfacet
facet normal -4.0181560881277054e-17 -2.1145302198876426e-17 1.0
  outer loop
    vertex 1006.7606140925062 -589.9987578462684 3.499999999999159
    vertex 1006.7606140925064 -682.5869482972936 3.4999999999991136
    vertex 1006.9309849610611 -591.292853071781 3.499999999999249
  endloop
endfacet
facet normal -4.0181560881277054e-17 -2.1145302198876426e-17 1.0
  outer loop
    vertex 1006.9309849610611 -591.292853071781 3.499999999999249
    vertex 1006.7606140925064 -682.5869482972936 3.4999999999991136
    vertex 1006.9309849610611 -681.2928530717811 3.499999999999159
  endloop
endfacet
facet normal -4.0181560881277054e-17 -2.1145302198876426e-17 1.0
  outer loop
    vertex 887.101355829616 -589.9987578462683 3.499999999999159
    vertex 887.43098496106 -591.3256248031885 3.499999999999159
    vertex 887.6008579421392 -588.7928530717808 3.499999999999159
  endloop
endfacet
facet normal -4.0181560881277054e-17 -2.1145302198876426e-17 1.0
  outer loop
    vertex 887.43098496106 -591.3256248031885 3.499999999999159
    vertex 887.101355829616 -589.9987578462683 3.499999999999159
    vertex 887.43098496106 -681.2600813403733 3.499999999999204
  endloop
endfacet
facet normal -4.0181560881277054e-17 -2.1145302198876426e-17 1.0
  outer loop
    vertex 887.6008579421392 -588.7928530717808 3.499999999999159
    vertex 887.43098496106 -591.3256248031885 3.499999999999159
    vertex 887.5884862106998 -590.1292840384881 3.499999999999159
  endloop
endfacet
facet normal -4.0181560881277054e-17 -2.1145302198876426e-17 1.0
  outer loop
    vertex 887.6008579421392 -588.7928530717808 3.499999999999159
    vertex 887.5884862106998 -590.1292840384881 3.499999999999159
    vertex 888.0376070935667 -589.0450103119258 3.499999999999159
  endloop
endfacet
facet normal -4.0181560881277054e-17 -2.1145302198876426e-17 1.0
  outer loop
    vertex 887.6008579421392 -588.7928530717808 3.499999999999159
    vertex 888.0376070935667 -589.0450103119258 3.499999999999159
    vertex 888.3954510551285 -587.7573191658482 3.499999999999204
  endloop
endfacet
facet normal -4.0181560881277054e-17 -2.1145302198876426e-17 1.0
  outer loop
    vertex 888.3954510551285 -587.7573191658482 3.499999999999204
    vertex 888.0376070935667 -589.0450103119258 3.499999999999159
    vertex 888.7520552439921 -588.1139233547121 3.499999999999204
  endloop
endfacet
facet normal -4.0181560881277054e-17 -2.1145302198876426e-17 1.0
  outer loop
    vertex 888.3954510551285 -587.7573191658482 3.499999999999204
    vertex 888.7520552439921 -588.1139233547121 3.499999999999204
    vertex 889.4309849610613 -586.9627260528589 3.499999999999159
  endloop
endfacet
facet normal -4.0181560881277054e-17 -2.1145302198876426e-17 1.0
  outer loop
    vertex 889.4309849610613 -586.9627260528589 3.499999999999159
    vertex 888.7520552439921 -588.1139233547121 3.499999999999204
    vertex 889.6831422012059 -587.3994752042863 3.499999999999159
  endloop
endfacet
facet normal -4.0181560881277054e-17 -2.1145302198876426e-17 1.0
  outer loop
    vertex 889.4309849610613 -586.9627260528589 3.499999999999159
    vertex 889.6831422012059 -587.3994752042863 3.499999999999159
    vertex 890.6368897355474 -586.4632239403356 3.499999999999204
  endloop
endfacet
facet normal -4.0181560881277054e-17 -2.1145302198876426e-17 1.0
  outer loop
    vertex 890.6368897355474 -586.4632239403356 3.499999999999204
    vertex 889.6831422012059 -587.3994752042863 3.499999999999159
    vertex 890.767415927768 -586.9503543214195 3.499999999999204
  endloop
endfacet
facet normal -4.0181560881277054e-17 -2.1145302198876426e-17 1.0
  outer loop
    vertex 890.6368897355474 -586.4632239403356 3.499999999999204
    vertex 890.767415927768 -586.9503543214195 3.499999999999204
    vertex 891.9309849610601 -586.292853071781 3.499999999999204
  endloop
endfacet
facet normal -4.0181560881277054e-17 -2.1145302198876426e-17 1.0
  outer loop
    vertex 891.9309849610601 -586.292853071781 3.499999999999204
    vertex 890.767415927768 -586.9503543214195 3.499999999999204
    vertex 891.9637566924678 -586.7928530717811 3.499999999999204
  endloop
endfacet
facet normal -4.0181560881277054e-17 -2.1145302198876426e-17 1.0
  outer loop
    vertex 891.9309849610601 -586.292853071781 3.499999999999204
    vertex 891.9637566924678 -586.7928530717811 3.499999999999204
    vertex 1001.9309849610612 -586.292853071781 3.499999999999249
  endloop
endfacet
facet normal -4.0181560881277054e-17 -2.1145302198876426e-17 1.0
  outer loop
    vertex 1001.9309849610612 -586.292853071781 3.499999999999249
    vertex 891.9637566924678 -586.7928530717811 3.499999999999204
    vertex 1001.8982132296538 -586.7928530717811 3.499999999999249
  endloop
endfacet
facet normal -4.0181560881277054e-17 -2.1145302198876426e-17 1.0
  outer loop
    vertex 1001.9309849610612 -586.292853071781 3.499999999999249
    vertex 1001.8982132296538 -586.7928530717811 3.499999999999249
    vertex 1003.0945539943536 -586.9503543214194 3.499999999999204
  endloop
endfacet
facet normal -4.0181560881277054e-17 -2.1145302198876426e-17 1.0
  outer loop
    vertex 1001.9309849610612 -586.292853071781 3.499999999999249
    vertex 1003.0945539943536 -586.9503543214194 3.499999999999204
    vertex 1003.2250801865737 -586.4632239403356 3.499999999999204
  endloop
endfacet
facet normal -4.0181560881277054e-17 -2.1145302198876426e-17 1.0
  outer loop
    vertex 1003.2250801865737 -586.4632239403356 3.499999999999204
    vertex 1003.0945539943536 -586.9503543214194 3.499999999999204
    vertex 1004.1788277209162 -587.3994752042863 3.4999999999991136
  endloop
endfacet
facet normal -4.0181560881277054e-17 -2.1145302198876426e-17 1.0
  outer loop
    vertex 1003.2250801865737 -586.4632239403356 3.499999999999204
    vertex 1004.1788277209162 -587.3994752042863 3.4999999999991136
    vertex 1004.430984961061 -586.9627260528589 3.4999999999991136
  endloop
endfacet
facet normal -4.0181560881277054e-17 -2.1145302198876426e-17 1.0
  outer loop
    vertex 1004.430984961061 -586.9627260528589 3.4999999999991136
    vertex 1004.1788277209162 -587.3994752042863 3.4999999999991136
    vertex 1005.1099146781302 -588.1139233547119 3.499999999999159
  endloop
endfacet
facet normal -4.0181560881277054e-17 -2.1145302198876426e-17 1.0
  outer loop
    vertex 1004.430984961061 -586.9627260528589 3.4999999999991136
    vertex 1005.1099146781302 -588.1139233547119 3.499999999999159
    vertex 1005.4665188669937 -587.7573191658482 3.4999999999990687
  endloop
endfacet
facet normal -4.0181560881277054e-17 -2.1145302198876426e-17 1.0
  outer loop
    vertex 1005.4665188669937 -587.7573191658482 3.4999999999990687
    vertex 1005.1099146781302 -588.1139233547119 3.499999999999159
    vertex 1005.8243628285556 -589.0450103119259 3.499999999999204
  endloop
endfacet
facet normal -4.0181560881277054e-17 -2.1145302198876426e-17 1.0
  outer loop
    vertex 1005.4665188669937 -587.7573191658482 3.4999999999990687
    vertex 1005.8243628285556 -589.0450103119259 3.499999999999204
    vertex 1006.2611119799833 -588.792853071781 3.499999999999204
  endloop
endfacet
facet normal -4.0181560881277054e-17 -2.1145302198876426e-17 1.0
  outer loop
    vertex 1006.2611119799833 -588.792853071781 3.499999999999204
    vertex 1005.8243628285556 -589.0450103119259 3.499999999999204
    vertex 1006.2734837114226 -590.1292840384884 3.499999999999159
  endloop
endfacet
facet normal -4.0181560881277054e-17 -2.1145302198876426e-17 1.0
  outer loop
    vertex 1006.2611119799833 -588.792853071781 3.499999999999204
    vertex 1006.2734837114226 -590.1292840384884 3.499999999999159
    vertex 1006.7606140925062 -589.9987578462684 3.499999999999159
  endloop
endfacet
facet normal -4.0181560881277054e-17 -2.1145302198876426e-17 1.0
  outer loop
    vertex 1006.7606140925062 -589.9987578462684 3.499999999999159
    vertex 1006.2734837114226 -590.1292840384884 3.499999999999159
    vertex 1006.4309849610612 -591.3256248031889 3.499999999999204
  endloop
endfacet
facet normal -0.1305261922200721 0.9914448613738078 1.5719655067981124e-17
  outer loop
    vertex 890.767415927768 -586.9503543214195 4.2999999999992475
    vertex 891.9637566924678 -586.7928530717811 3.499999999999204
    vertex 890.767415927768 -586.9503543214195 3.499999999999204
  endloop
endfacet
facet normal -0.1305261922200721 0.9914448613738078 1.5719655067981124e-17
  outer loop
    vertex 891.9637566924678 -586.7928530717811 3.499999999999204
    vertex 890.767415927768 -586.9503543214195 4.2999999999992475
    vertex 891.9637566924678 -586.7928530717811 4.299999999999202
  endloop
endfacet
facet normal -2.0945042992732452e-16 1.0 2.1145302198876426e-17
  outer loop
    vertex 891.9637566924678 -586.7928530717811 4.299999999999202
    vertex 1001.8982132296538 -586.7928530717811 3.499999999999249
    vertex 891.9637566924678 -586.7928530717811 3.499999999999204
  endloop
endfacet
facet normal -2.0945042992732452e-16 1.0 2.1145302198876426e-17
  outer loop
    vertex 1001.8982132296538 -586.7928530717811 3.499999999999249
    vertex 891.9637566924678 -586.7928530717811 4.299999999999202
    vertex 1001.8982132296538 -586.7928530717811 4.2999999999992475
  endloop
endfacet
facet normal 0.13052619222004289 0.9914448613738117 2.6209147346562946e-17
  outer loop
    vertex 1001.8982132296538 -586.7928530717811 3.499999999999249
    vertex 1003.0945539943536 -586.9503543214194 4.2999999999992475
    vertex 1003.0945539943536 -586.9503543214194 3.499999999999204
  endloop
endfacet
facet normal 0.13052619222004289 0.9914448613738117 2.6209147346562946e-17
  outer loop
    vertex 1003.0945539943536 -586.9503543214194 4.2999999999992475
    vertex 1001.8982132296538 -586.7928530717811 3.499999999999249
    vertex 1001.8982132296538 -586.7928530717811 4.2999999999992475
  endloop
endfacet
facet normal 0.38268343236505564 0.9238795325113008 3.491252954613908e-17
  outer loop
    vertex 1003.0945539943536 -586.9503543214194 3.499999999999204
    vertex 1004.1788277209162 -587.3994752042863 4.299999999999158
    vertex 1004.1788277209162 -587.3994752042863 3.4999999999991136
  endloop
endfacet
facet normal 0.38268343236505564 0.9238795325113008 3.491252954613908e-17
  outer loop
    vertex 1004.1788277209162 -587.3994752042863 4.299999999999158
    vertex 1003.0945539943536 -586.9503543214194 3.499999999999204
    vertex 1003.0945539943536 -586.9503543214194 4.2999999999992475
  endloop
endfacet
facet normal 0.608761429008756 0.7933533402912082 4.1236680552829445e-17
  outer loop
    vertex 1004.1788277209162 -587.3994752042863 4.299999999999158
    vertex 1005.1099146781302 -588.1139233547119 3.499999999999159
    vertex 1004.1788277209162 -587.3994752042863 3.4999999999991136
  endloop
endfacet
facet normal 0.608761429008756 0.7933533402912082 4.1236680552829445e-17
  outer loop
    vertex 1005.1099146781302 -588.1139233547119 3.499999999999159
    vertex 1004.1788277209162 -587.3994752042863 4.299999999999158
    vertex 1005.1099146781302 -588.1139233547119 4.299999999999158
  endloop
endfacet
facet normal 0.7933533402912154 0.6087614290087465 4.4750619926679e-17
  outer loop
    vertex 1005.1099146781302 -588.1139233547119 3.499999999999159
    vertex 1005.8243628285556 -589.0450103119259 4.299999999999202
    vertex 1005.8243628285556 -589.0450103119259 3.499999999999204
  endloop
endfacet
facet normal 0.7933533402912154 0.6087614290087465 4.4750619926679e-17
  outer loop
    vertex 1005.8243628285556 -589.0450103119259 4.299999999999202
    vertex 1005.1099146781302 -588.1139233547119 3.499999999999159
    vertex 1005.1099146781302 -588.1139233547119 4.299999999999158
  endloop
endfacet
facet normal 0.9238795325113031 0.38268343236505054 4.521487850642806e-17
  outer loop
    vertex 1005.8243628285556 -589.0450103119259 3.499999999999204
    vertex 1006.2734837114226 -590.1292840384884 4.299999999999158
    vertex 1006.2734837114226 -590.1292840384884 3.499999999999159
  endloop
endfacet
facet normal 0.9238795325113031 0.38268343236505054 4.521487850642806e-17
  outer loop
    vertex 1006.2734837114226 -590.1292840384884 4.299999999999158
    vertex 1005.8243628285556 -589.0450103119259 3.499999999999204
    vertex 1005.8243628285556 -589.0450103119259 4.299999999999202
  endloop
endfacet
facet normal 0.9914448613738162 0.13052619222000922 4.259781783708061e-17
  outer loop
    vertex 1006.2734837114226 -590.1292840384884 3.499999999999159
    vertex 1006.4309849610612 -591.3256248031889 4.2999999999992475
    vertex 1006.4309849610612 -591.3256248031889 3.499999999999204
  endloop
endfacet
facet normal 0.9914448613738162 0.13052619222000922 4.259781783708061e-17
  outer loop
    vertex 1006.4309849610612 -591.3256248031889 4.2999999999992475
    vertex 1006.2734837114226 -590.1292840384884 3.499999999999159
    vertex 1006.2734837114226 -590.1292840384884 4.299999999999158
  endloop
endfacet
facet normal 1.0 2.3337936383399547e-16 4.018156088127232e-17
  outer loop
    vertex 1006.4309849610612 -591.3256248031889 3.499999999999204
    vertex 1006.4309849610612 -681.2600813403733 4.299999999999202
    vertex 1006.4309849610612 -681.2600813403733 3.499999999999159
  endloop
endfacet
facet normal 1.0 2.3337936383399547e-16 4.018156088127232e-17
  outer loop
    vertex 1006.4309849610612 -681.2600813403733 4.299999999999202
    vertex 1006.4309849610612 -591.3256248031889 3.499999999999204
    vertex 1006.4309849610612 -591.3256248031889 4.2999999999992475
  endloop
endfacet
facet normal 0.9914448613738264 -0.13052619221993064 3.707778627835916e-17
  outer loop
    vertex 1006.4309849610612 -681.2600813403733 3.499999999999159
    vertex 1006.273483711423 -682.4564221050737 4.299999999999158
    vertex 1006.273483711423 -682.4564221050737 3.4999999999991136
  endloop
endfacet
facet normal 0.9914448613738264 -0.13052619221993064 3.707778627835916e-17
  outer loop
    vertex 1006.273483711423 -682.4564221050737 4.299999999999158
    vertex 1006.4309849610612 -681.2600813403733 3.499999999999159
    vertex 1006.4309849610612 -681.2600813403733 4.299999999999202
  endloop
endfacet
facet normal 0.9238795325112614 -0.38268343236515084 2.9030964858698667e-17
  outer loop
    vertex 1006.273483711423 -682.4564221050737 3.4999999999991136
    vertex 1005.8243628285556 -683.5406958316357 4.2999999999992475
    vertex 1005.8243628285556 -683.5406958316357 3.499999999999204
  endloop
endfacet
facet normal 0.9238795325112614 -0.38268343236515084 2.9030964858698667e-17
  outer loop
    vertex 1005.8243628285556 -683.5406958316357 4.2999999999992475
    vertex 1006.273483711423 -682.4564221050737 3.4999999999991136
    vertex 1006.273483711423 -682.4564221050737 4.299999999999158
  endloop
endfacet
facet normal 0.7933533402912151 -0.608761429008747 1.9005731159859297e-17
  outer loop
    vertex 1005.8243628285556 -683.5406958316357 3.499999999999204
    vertex 1005.1099146781302 -684.4717827888503 4.299999999999202
    vertex 1005.1099146781302 -684.4717827888503 3.499999999999159
  endloop
endfacet
facet normal 0.7933533402912151 -0.608761429008747 1.9005731159859297e-17
  outer loop
    vertex 1005.1099146781302 -684.4717827888503 4.299999999999202
    vertex 1005.8243628285556 -683.5406958316357 3.499999999999204
    vertex 1005.8243628285556 -683.5406958316357 4.2999999999992475
  endloop
endfacet
facet normal 0.608761429008778 -0.7933533402911912 7.685288290937575e-18
  outer loop
    vertex 1005.1099146781302 -684.4717827888503 4.299999999999202
    vertex 1004.1788277209162 -685.1862309392757 3.499999999999159
    vertex 1005.1099146781302 -684.4717827888503 3.499999999999159
  endloop
endfacet
facet normal 0.608761429008778 -0.7933533402911912 7.685288290937575e-18
  outer loop
    vertex 1004.1788277209162 -685.1862309392757 3.499999999999159
    vertex 1005.1099146781302 -684.4717827888503 4.299999999999202
    vertex 1004.1788277209162 -685.1862309392757 4.299999999999202
  endloop
endfacet
facet normal 0.3826834323650778 -0.923879532511292 -4.158894274475804e-18
  outer loop
    vertex 1004.1788277209162 -685.1862309392757 4.299999999999202
    vertex 1003.0945539943536 -685.6353518221425 3.499999999999204
    vertex 1004.1788277209162 -685.1862309392757 3.499999999999159
  endloop
endfacet
facet normal 0.3826834323650778 -0.923879532511292 -4.158894274475804e-18
  outer loop
    vertex 1003.0945539943536 -685.6353518221425 3.499999999999204
    vertex 1004.1788277209162 -685.1862309392757 4.299999999999202
    vertex 1003.0945539943536 -685.6353518221425 4.2999999999992475
  endloop
endfacet
facet normal 0.13052619222003536 -0.9914448613738126 -1.5719655067983096e-17
  outer loop
    vertex 1003.0945539943536 -685.6353518221425 3.499999999999204
    vertex 1001.898213229654 -685.792853071781 4.299999999999202
    vertex 1001.898213229654 -685.792853071781 3.499999999999159
  endloop
endfacet
facet normal 0.13052619222003536 -0.9914448613738126 -1.5719655067983096e-17
  outer loop
    vertex 1001.898213229654 -685.792853071781 4.299999999999202
    vertex 1003.0945539943536 -685.6353518221425 3.499999999999204
    vertex 1003.0945539943536 -685.6353518221425 4.2999999999992475
  endloop
endfacet
facet normal 6.19871922350623e-16 -1.0 -2.1145302198876524e-17
  outer loop
    vertex 1001.898213229654 -685.792853071781 4.299999999999202
    vertex 891.9637566924678 -685.792853071781 3.499999999999159
    vertex 1001.898213229654 -685.792853071781 3.499999999999159
  endloop
endfacet
facet normal 6.19871922350623e-16 -1.0 -2.1145302198876524e-17
  outer loop
    vertex 891.9637566924678 -685.792853071781 3.499999999999159
    vertex 1001.898213229654 -685.792853071781 4.299999999999202
    vertex 891.9637566924678 -685.792853071781 4.299999999999202
  endloop
endfacet
facet normal -0.130526192220159 -0.9914448613737963 -2.620914734656689e-17
  outer loop
    vertex 891.9637566924678 -685.792853071781 4.299999999999202
    vertex 890.7674159277689 -685.6353518221426 3.499999999999204
    vertex 891.9637566924678 -685.792853071781 3.499999999999159
  endloop
endfacet
facet normal -0.130526192220159 -0.9914448613737963 -2.620914734656689e-17
  outer loop
    vertex 890.7674159277689 -685.6353518221426 3.499999999999204
    vertex 891.9637566924678 -685.792853071781 4.299999999999202
    vertex 890.7674159277689 -685.6353518221426 4.2999999999992475
  endloop
endfacet
facet normal -0.3826834323649967 -0.9238795325113254 -3.4912529546137504e-17
  outer loop
    vertex 890.7674159277689 -685.6353518221426 3.499999999999204
    vertex 889.6831422012059 -685.1862309392756 4.299999999999202
    vertex 889.6831422012059 -685.1862309392756 3.499999999999159
  endloop
endfacet
facet normal -0.3826834323649967 -0.9238795325113254 -3.4912529546137504e-17
  outer loop
    vertex 889.6831422012059 -685.1862309392756 4.299999999999202
    vertex 890.7674159277689 -685.6353518221426 3.499999999999204
    vertex 890.7674159277689 -685.6353518221426 4.2999999999992475
  endloop
endfacet
facet normal -0.6087614290088464 -0.7933533402911387 -4.123668055283418e-17
  outer loop
    vertex 889.6831422012059 -685.1862309392756 4.299999999999202
    vertex 888.7520552439919 -684.4717827888502 3.499999999999159
    vertex 889.6831422012059 -685.1862309392756 3.499999999999159
  endloop
endfacet
facet normal -0.6087614290088464 -0.7933533402911387 -4.123668055283418e-17
  outer loop
    vertex 888.7520552439919 -684.4717827888502 3.499999999999159
    vertex 889.6831422012059 -685.1862309392756 4.299999999999202
    vertex 888.7520552439919 -684.4717827888502 4.299999999999202
  endloop
endfacet
facet normal -0.7933533402913008 -0.6087614290086352 -4.4750619926679e-17
  outer loop
    vertex 888.0376070935664 -683.540695831636 4.299999999999158
    vertex 888.7520552439919 -684.4717827888502 3.499999999999159
    vertex 888.7520552439919 -684.4717827888502 4.299999999999202
  endloop
endfacet
facet normal -0.7933533402913008 -0.6087614290086352 -4.4750619926679e-17
  outer loop
    vertex 888.7520552439919 -684.4717827888502 3.499999999999159
    vertex 888.0376070935664 -683.540695831636 4.299999999999158
    vertex 888.0376070935664 -683.540695831636 3.4999999999991136
  endloop
endfacet
facet normal -0.9238795325111738 -0.3826834323653628 -4.521487850642333e-17
  outer loop
    vertex 887.5884862106989 -682.4564221050732 4.299999999999202
    vertex 888.0376070935664 -683.540695831636 3.4999999999991136
    vertex 888.0376070935664 -683.540695831636 4.299999999999158
  endloop
endfacet
facet normal -0.9238795325111738 -0.3826834323653628 -4.521487850642333e-17
  outer loop
    vertex 888.0376070935664 -683.540695831636 3.4999999999991136
    vertex 887.5884862106989 -682.4564221050732 4.299999999999202
    vertex 887.5884862106989 -682.4564221050732 3.499999999999204
  endloop
endfacet
facet normal -0.991444861373751 -0.1305261922205035 -4.259781783708691e-17
  outer loop
    vertex 887.43098496106 -681.2600813403733 4.2999999999992475
    vertex 887.5884862106989 -682.4564221050732 3.499999999999204
    vertex 887.5884862106989 -682.4564221050732 4.299999999999202
  endloop
endfacet
facet normal -0.991444861373751 -0.1305261922205035 -4.259781783708691e-17
  outer loop
    vertex 887.5884862106989 -682.4564221050732 3.499999999999204
    vertex 887.43098496106 -681.2600813403733 4.2999999999992475
    vertex 887.43098496106 -681.2600813403733 3.499999999999204
  endloop
endfacet
facet normal -1.0 -2.333793638335411e-16 -4.01815608812739e-17
  outer loop
    vertex 887.43098496106 -591.3256248031885 4.299999999999202
    vertex 887.43098496106 -681.2600813403733 3.499999999999204
    vertex 887.43098496106 -681.2600813403733 4.2999999999992475
  endloop
endfacet
facet normal -1.0 -2.333793638335411e-16 -4.01815608812739e-17
  outer loop
    vertex 887.43098496106 -681.2600813403733 3.499999999999204
    vertex 887.43098496106 -591.3256248031885 4.299999999999202
    vertex 887.43098496106 -591.3256248031885 3.499999999999159
  endloop
endfacet
facet normal -0.9914448613737108 0.1305261922208079 -3.707778627833865e-17
  outer loop
    vertex 887.5884862106998 -590.1292840384881 4.299999999999202
    vertex 887.43098496106 -591.3256248031885 3.499999999999159
    vertex 887.43098496106 -591.3256248031885 4.299999999999202
  endloop
endfacet
facet normal -0.9914448613737108 0.1305261922208079 -3.707778627833865e-17
  outer loop
    vertex 887.43098496106 -591.3256248031885 3.499999999999159
    vertex 887.5884862106998 -590.1292840384881 4.299999999999202
    vertex 887.5884862106998 -590.1292840384881 3.499999999999159
  endloop
endfacet
facet normal -0.9238795325112681 0.3826834323651349 -2.9030964858698667e-17
  outer loop
    vertex 888.0376070935667 -589.0450103119258 4.299999999999158
    vertex 887.5884862106998 -590.1292840384881 3.499999999999159
    vertex 887.5884862106998 -590.1292840384881 4.299999999999202
  endloop
endfacet
facet normal -0.9238795325112681 0.3826834323651349 -2.9030964858698667e-17
  outer loop
    vertex 887.5884862106998 -590.1292840384881 3.499999999999159
    vertex 888.0376070935667 -589.0450103119258 4.299999999999158
    vertex 888.0376070935667 -589.0450103119258 3.499999999999159
  endloop
endfacet
facet normal -0.7933533402912327 0.6087614290087238 -1.9005731159862452e-17
  outer loop
    vertex 888.7520552439921 -588.1139233547121 4.2999999999992475
    vertex 888.0376070935667 -589.0450103119258 3.499999999999159
    vertex 888.0376070935667 -589.0450103119258 4.299999999999158
  endloop
endfacet
facet normal -0.7933533402912327 0.6087614290087238 -1.9005731159862452e-17
  outer loop
    vertex 888.0376070935667 -589.0450103119258 3.499999999999159
    vertex 888.7520552439921 -588.1139233547121 4.2999999999992475
    vertex 888.7520552439921 -588.1139233547121 3.499999999999204
  endloop
endfacet
facet normal -0.6087614290087489 0.7933533402912136 -7.685288290939153e-18
  outer loop
    vertex 888.7520552439921 -588.1139233547121 3.499999999999204
    vertex 889.6831422012059 -587.3994752042863 4.299999999999158
    vertex 889.6831422012059 -587.3994752042863 3.499999999999159
  endloop
endfacet
facet normal -0.6087614290087489 0.7933533402912136 -7.685288290939153e-18
  outer loop
    vertex 889.6831422012059 -587.3994752042863 4.299999999999158
    vertex 888.7520552439921 -588.1139233547121 3.499999999999204
    vertex 888.7520552439921 -588.1139233547121 4.2999999999992475
  endloop
endfacet
facet normal -0.38268343236531677 0.9238795325111928 4.1588942744631826e-18
  outer loop
    vertex 889.6831422012059 -587.3994752042863 4.299999999999158
    vertex 890.767415927768 -586.9503543214195 3.499999999999204
    vertex 889.6831422012059 -587.3994752042863 3.499999999999159
  endloop
endfacet
facet normal -0.38268343236531677 0.9238795325111928 4.1588942744631826e-18
  outer loop
    vertex 890.767415927768 -586.9503543214195 3.499999999999204
    vertex 889.6831422012059 -587.3994752042863 4.299999999999158
    vertex 890.767415927768 -586.9503543214195 4.2999999999992475
  endloop
endfacet
endsolid V2
