solid Centrifuge_V2
facet normal 9.685961215528734e-15 0.0 1.0
  outer loop
    vertex 194.32051544432701 -202.05808879891535 6.599999999999266
    vertex 194.6849994280261 -205.52592225755564 6.599999999999262
    vertex 194.7310319042003 -203.76801291484358 6.599999999999262
  endloop
endfacet
facet normal 9.685961215528734e-15 0.0 1.0
  outer loop
    vertex 194.6849994280261 -205.52592225755564 6.599999999999262
    vertex 194.32051544432701 -202.05808879891535 6.599999999999266
    vertex 194.1855550529841 -207.21201821042942 6.599999999999266
  endloop
endfacet
facet normal 9.685961215528734e-15 0.0 1.0
  outer loop
    vertex 194.1855550529841 -207.21201821042942 6.599999999999266
    vertex 194.32051544432701 -202.05808879891535 6.599999999999266
    vertex 193.48142606673716 -200.51267841249046 6.599999999999273
  endloop
endfacet
facet normal 9.685961215528734e-15 0.0 1.0
  outer loop
    vertex 194.1855550529841 -207.21201821042942 6.599999999999266
    vertex 193.48142606673716 -200.51267841249046 6.599999999999273
    vertex 193.26673508786254 -208.71139612068035 6.599999999999276
  endloop
endfacet
facet normal 9.685961215528734e-15 0.0 1.0
  outer loop
    vertex 193.26673508786254 -208.71139612068035 6.599999999999276
    vertex 193.48142606673716 -200.51267841249046 6.599999999999273
    vertex 192.27094632585175 -199.23709891949005 6.5999999999992855
  endloop
endfacet
facet normal 9.685961215528734e-15 0.0 1.0
  outer loop
    vertex 193.26673508786254 -208.71139612068035 6.599999999999276
    vertex 192.27094632585175 -199.23709891949005 6.5999999999992855
    vertex 191.99115559486202 -209.9218758615661 6.599999999999288
  endloop
endfacet
facet normal 9.685961215528734e-15 0.0 1.0
  outer loop
    vertex 191.99115559486202 -209.9218758615661 6.599999999999288
    vertex 192.27094632585175 -199.23709891949005 6.5999999999992855
    vertex 190.7715684155996 -198.31827895436817 6.5999999999993
  endloop
endfacet
facet normal 9.685961215528734e-15 0.0 1.0
  outer loop
    vertex 191.99115559486202 -209.9218758615661 6.599999999999288
    vertex 190.7715684155996 -198.31827895436817 6.5999999999993
    vertex 191.04032106684178 -204.4721419010908 6.599999999999297
  endloop
endfacet
facet normal 9.685961215528734e-15 0.0 1.0
  outer loop
    vertex 191.04032106684178 -204.4721419010908 6.599999999999297
    vertex 190.7715684155996 -198.31827895436817 6.5999999999993
    vertex 190.93780452100722 -203.69345142644562 6.599999999999298
  endloop
endfacet
facet normal 9.685961215528734e-15 0.0 1.0
  outer loop
    vertex 190.93780452100722 -203.69345142644562 6.599999999999298
    vertex 190.7715684155996 -198.31827895436817 6.5999999999993
    vertex 190.63724121668562 -202.9678274208007 6.5999999999993015
  endloop
endfacet
facet normal 9.685961215528734e-15 0.0 1.0
  outer loop
    vertex 190.63724121668562 -202.9678274208007 6.5999999999993015
    vertex 190.7715684155996 -198.31827895436817 6.5999999999993
    vertex 189.08547246272673 -197.81883457932622 6.599999999999317
  endloop
endfacet
facet normal 9.685961215528734e-15 0.0 1.0
  outer loop
    vertex 190.63724121668562 -202.9678274208007 6.5999999999993015
    vertex 189.08547246272673 -197.81883457932622 6.599999999999317
    vertex 190.15911404636194 -202.34471996099015 6.599999999999305
  endloop
endfacet
facet normal 9.685961215528734e-15 0.0 1.0
  outer loop
    vertex 190.15911404636194 -202.34471996099015 6.599999999999305
    vertex 189.08547246272673 -197.81883457932622 6.599999999999317
    vertex 189.53600658655174 -201.86659279066686 6.599999999999311
  endloop
endfacet
facet normal 9.685961215528734e-15 0.0 1.0
  outer loop
    vertex 189.53600658655174 -201.86659279066686 6.599999999999311
    vertex 189.08547246272673 -197.81883457932622 6.599999999999317
    vertex 188.81038258090672 -201.56602948634512 6.599999999999318
  endloop
endfacet
facet normal 9.685961215528734e-15 0.0 1.0
  outer loop
    vertex 188.81038258090672 -201.56602948634512 6.599999999999318
    vertex 189.08547246272673 -197.81883457932622 6.599999999999317
    vertex 187.3275631200144 -197.7728021031522 6.5999999999993335
  endloop
endfacet
facet normal 9.685961215528734e-15 0.0 1.0
  outer loop
    vertex 188.81038258090672 -201.56602948634512 6.599999999999318
    vertex 187.3275631200144 -197.7728021031522 6.5999999999993335
    vertex 188.0316921062616 -201.4635129405106 6.599999999999326
  endloop
endfacet
facet normal 9.685961215528734e-15 0.0 1.0
  outer loop
    vertex 188.0316921062616 -201.4635129405106 6.599999999999326
    vertex 187.3275631200144 -197.7728021031522 6.5999999999993335
    vertex 187.25300163161648 -201.56602948634512 6.5999999999993335
  endloop
endfacet
facet normal 9.685961215528734e-15 0.0 1.0
  outer loop
    vertex 187.25300163161648 -201.56602948634512 6.5999999999993335
    vertex 187.3275631200144 -197.7728021031522 6.5999999999993335
    vertex 185.61763900408684 -198.18331856302518 6.5999999999993495
  endloop
endfacet
facet normal 9.685961215528734e-15 0.0 1.0
  outer loop
    vertex 187.25300163161648 -201.56602948634512 6.5999999999993335
    vertex 185.61763900408684 -198.18331856302518 6.5999999999993495
    vertex 186.52737762597147 -201.86659279066677 6.599999999999341
  endloop
endfacet
facet normal 9.685961215528734e-15 0.0 1.0
  outer loop
    vertex 186.52737762597147 -201.86659279066677 6.599999999999341
    vertex 185.61763900408684 -198.18331856302518 6.5999999999993495
    vertex 185.9042701661611 -202.3447199609903 6.599999999999346
  endloop
endfacet
facet normal 9.685961215528734e-15 0.0 1.0
  outer loop
    vertex 185.9042701661611 -202.3447199609903 6.599999999999346
    vertex 185.61763900408684 -198.18331856302518 6.5999999999993495
    vertex 185.42614299583758 -202.9678274208007 6.59999999999935
  endloop
endfacet
facet normal 9.685961215528734e-15 0.0 1.0
  outer loop
    vertex 185.42614299583758 -202.9678274208007 6.59999999999935
    vertex 185.61763900408684 -198.18331856302518 6.5999999999993495
    vertex 184.07222861766118 -199.0224079406154 6.599999999999365
  endloop
endfacet
facet normal 9.685961215528734e-15 0.0 1.0
  outer loop
    vertex 185.42614299583758 -202.9678274208007 6.59999999999935
    vertex 184.07222861766118 -199.0224079406154 6.599999999999365
    vertex 185.12557969151598 -203.69345142644562 6.599999999999355
  endloop
endfacet
facet normal 9.685961215528734e-15 0.0 1.0
  outer loop
    vertex 185.12557969151598 -203.69345142644562 6.599999999999355
    vertex 184.07222861766118 -199.0224079406154 6.599999999999365
    vertex 185.0230631456815 -204.47214190109074 6.599999999999355
  endloop
endfacet
facet normal 9.685961215528734e-15 0.0 1.0
  outer loop
    vertex 191.04032106684178 -204.4721419010908 6.599999999999297
    vertex 190.4457452084364 -210.7609652391563 6.599999999999302
    vertex 191.99115559486202 -209.9218758615661 6.599999999999288
  endloop
endfacet
facet normal 9.685961215528734e-15 0.0 1.0
  outer loop
    vertex 190.4457452084364 -210.7609652391563 6.599999999999302
    vertex 191.04032106684178 -204.4721419010908 6.599999999999297
    vertex 190.98906279392452 -204.86148713841325 6.599999999999297
  endloop
endfacet
facet normal 9.685961215528734e-15 0.0 1.0
  outer loop
    vertex 190.4457452084364 -210.7609652391563 6.599999999999302
    vertex 190.98906279392452 -204.86148713841325 6.599999999999297
    vertex 190.93780452100722 -205.25083237573585 6.599999999999298
  endloop
endfacet
facet normal 9.685961215528734e-15 0.0 1.0
  outer loop
    vertex 190.4457452084364 -210.7609652391563 6.599999999999302
    vertex 190.93780452100722 -205.25083237573585 6.599999999999298
    vertex 190.63724121668562 -205.97645638138079 6.5999999999993015
  endloop
endfacet
facet normal 9.685961215528734e-15 0.0 1.0
  outer loop
    vertex 190.4457452084364 -210.7609652391563 6.599999999999302
    vertex 190.63724121668562 -205.97645638138079 6.5999999999993015
    vertex 190.1591140463621 -206.59956384119118 6.599999999999305
  endloop
endfacet
facet normal 9.685961215528734e-15 0.0 1.0
  outer loop
    vertex 190.4457452084364 -210.7609652391563 6.599999999999302
    vertex 190.1591140463621 -206.59956384119118 6.599999999999305
    vertex 188.73582109250881 -211.1714816990293 6.599999999999319
  endloop
endfacet
facet normal 9.685961215528734e-15 0.0 1.0
  outer loop
    vertex 188.73582109250881 -211.1714816990293 6.599999999999319
    vertex 190.1591140463621 -206.59956384119118 6.599999999999305
    vertex 189.53600658655174 -207.07769101151473 6.599999999999311
  endloop
endfacet
facet normal 9.685961215528734e-15 0.0 1.0
  outer loop
    vertex 188.73582109250881 -211.1714816990293 6.599999999999319
    vertex 189.53600658655174 -207.07769101151473 6.599999999999311
    vertex 188.81038258090672 -207.37825431583636 6.599999999999318
  endloop
endfacet
facet normal 9.685961215528734e-15 0.0 1.0
  outer loop
    vertex 188.73582109250881 -211.1714816990293 6.599999999999319
    vertex 188.81038258090672 -207.37825431583636 6.599999999999318
    vertex 188.0316921062616 -207.4807708616709 6.599999999999326
  endloop
endfacet
facet normal 9.685961215528734e-15 0.0 1.0
  outer loop
    vertex 188.73582109250881 -211.1714816990293 6.599999999999319
    vertex 188.0316921062616 -207.4807708616709 6.599999999999326
    vertex 186.97791174979648 -211.12544922285528 6.599999999999336
  endloop
endfacet
facet normal 9.685961215528734e-15 0.0 1.0
  outer loop
    vertex 186.97791174979648 -211.12544922285528 6.599999999999336
    vertex 188.0316921062616 -207.4807708616709 6.599999999999326
    vertex 187.25300163161648 -207.37825431583636 6.5999999999993335
  endloop
endfacet
facet normal 9.685961215528734e-15 0.0 1.0
  outer loop
    vertex 186.97791174979648 -211.12544922285528 6.599999999999336
    vertex 187.25300163161648 -207.37825431583636 6.5999999999993335
    vertex 186.52737762597147 -207.07769101151462 6.599999999999341
  endloop
endfacet
facet normal 9.685961215528734e-15 0.0 1.0
  outer loop
    vertex 186.97791174979648 -211.12544922285528 6.599999999999336
    vertex 186.52737762597147 -207.07769101151462 6.599999999999341
    vertex 185.2918157969236 -210.62600484781333 6.599999999999353
  endloop
endfacet
facet normal 9.685961215528734e-15 0.0 1.0
  outer loop
    vertex 185.2918157969236 -210.62600484781333 6.599999999999353
    vertex 186.52737762597147 -207.07769101151462 6.599999999999341
    vertex 185.9042701661613 -206.59956384119133 6.599999999999346
  endloop
endfacet
facet normal 9.685961215528734e-15 0.0 1.0
  outer loop
    vertex 185.2918157969236 -210.62600484781333 6.599999999999353
    vertex 185.9042701661613 -206.59956384119133 6.599999999999346
    vertex 185.42614299583758 -205.97645638138079 6.59999999999935
  endloop
endfacet
facet normal 9.685961215528734e-15 0.0 1.0
  outer loop
    vertex 185.2918157969236 -210.62600484781333 6.599999999999353
    vertex 185.42614299583758 -205.97645638138079 6.59999999999935
    vertex 185.12557969151598 -205.25083237573585 6.599999999999355
  endloop
endfacet
facet normal 9.685961215528734e-15 0.0 1.0
  outer loop
    vertex 185.2918157969236 -210.62600484781333 6.599999999999353
    vertex 185.12557969151598 -205.25083237573585 6.599999999999355
    vertex 183.79243788667145 -209.70718488269145 6.599999999999367
  endloop
endfacet
facet normal 9.685961215528734e-15 0.0 1.0
  outer loop
    vertex 183.79243788667145 -209.70718488269145 6.599999999999367
    vertex 185.12557969151598 -205.25083237573585 6.599999999999355
    vertex 185.0230631456815 -204.47214190109074 6.599999999999355
  endloop
endfacet
facet normal 9.685961215528734e-15 0.0 1.0
  outer loop
    vertex 183.79243788667145 -209.70718488269145 6.599999999999367
    vertex 185.0230631456815 -204.47214190109074 6.599999999999355
    vertex 184.07222861766118 -199.0224079406154 6.599999999999365
  endloop
endfacet
facet normal 9.685961215528734e-15 0.0 1.0
  outer loop
    vertex 183.79243788667145 -209.70718488269145 6.599999999999367
    vertex 184.07222861766118 -199.0224079406154 6.599999999999365
    vertex 182.7966491246607 -200.23288768150113 6.599999999999377
  endloop
endfacet
facet normal 9.685961215528734e-15 0.0 1.0
  outer loop
    vertex 183.79243788667145 -209.70718488269145 6.599999999999367
    vertex 182.7966491246607 -200.23288768150113 6.599999999999377
    vertex 182.58195814578605 -208.43160538969101 6.599999999999379
  endloop
endfacet
facet normal 9.685961215528734e-15 0.0 1.0
  outer loop
    vertex 182.58195814578605 -208.43160538969101 6.599999999999379
    vertex 182.7966491246607 -200.23288768150113 6.599999999999377
    vertex 181.87782915953912 -201.73226559175205 6.599999999999386
  endloop
endfacet
facet normal 9.685961215528734e-15 0.0 1.0
  outer loop
    vertex 182.58195814578605 -208.43160538969101 6.599999999999379
    vertex 181.87782915953912 -201.73226559175205 6.599999999999386
    vertex 181.7428687681962 -206.88619500326615 6.599999999999388
  endloop
endfacet
facet normal 9.685961215528734e-15 0.0 1.0
  outer loop
    vertex 181.7428687681962 -206.88619500326615 6.599999999999388
    vertex 181.87782915953912 -201.73226559175205 6.599999999999386
    vertex 181.37838478449711 -203.41836154462584 6.59999999999939
  endloop
endfacet
facet normal 9.685961215528734e-15 0.0 1.0
  outer loop
    vertex 181.7428687681962 -206.88619500326615 6.599999999999388
    vertex 181.37838478449711 -203.41836154462584 6.59999999999939
    vertex 181.33235230832292 -205.1762708873379 6.599999999999391
  endloop
endfacet
facet normal -9.685961215528734e-15 0.0 -1.0
  outer loop
    vertex 191.99115559486197 -209.9218758615661 -7.007616709131525e-13
    vertex 192.83169210626153 -204.47214190109074 -7.078115871195223e-13
    vertex 193.26673508786246 -208.71139612068035 -7.120415368433441e-13
  endloop
endfacet
facet normal -9.685961215528734e-15 0.0 -1.0
  outer loop
    vertex 192.83169210626153 -204.47214190109074 -7.078115871195223e-13
    vertex 191.99115559486197 -209.9218758615661 -7.007616709131525e-13
    vertex 190.43169210626152 -208.62906383925605 -6.852518552591391e-13
  endloop
endfacet
facet normal -9.685961215528734e-15 0.0 -1.0
  outer loop
    vertex 190.43169210626152 -208.62906383925605 -6.852518552591391e-13
    vertex 191.99115559486197 -209.9218758615661 -7.007616709131525e-13
    vertex 190.4457452084363 -210.7609652391563 -6.852518552591391e-13
  endloop
endfacet
facet normal -9.685961215528734e-15 0.0 -1.0
  outer loop
    vertex 190.43169210626152 -208.62906383925605 -6.852518552591391e-13
    vertex 190.4457452084363 -210.7609652391563 -6.852518552591391e-13
    vertex 188.73582109250876 -211.1714816990293 -6.683320563638517e-13
  endloop
endfacet
facet normal -9.685961215528734e-15 0.0 -1.0
  outer loop
    vertex 190.43169210626152 -208.62906383925605 -6.852518552591391e-13
    vertex 188.73582109250876 -211.1714816990293 -6.683320563638517e-13
    vertex 185.63169210626154 -208.62906383925605 -6.387224082970987e-13
  endloop
endfacet
facet normal -9.685961215528734e-15 0.0 -1.0
  outer loop
    vertex 185.63169210626154 -208.62906383925605 -6.387224082970987e-13
    vertex 188.73582109250876 -211.1714816990293 -6.683320563638517e-13
    vertex 186.97791174979642 -211.12544922285528 -6.514122574685643e-13
  endloop
endfacet
facet normal -9.685961215528734e-15 0.0 -1.0
  outer loop
    vertex 185.63169210626154 -208.62906383925605 -6.387224082970987e-13
    vertex 186.97791174979642 -211.12544922285528 -6.514122574685643e-13
    vertex 185.29181579692354 -210.62600484781333 -6.34492458573277e-13
  endloop
endfacet
facet normal -9.685961215528734e-15 0.0 -1.0
  outer loop
    vertex 185.63169210626154 -208.62906383925605 -6.387224082970987e-13
    vertex 185.29181579692354 -210.62600484781333 -6.34492458573277e-13
    vertex 183.23169210626156 -204.47214190109074 -6.147526931954417e-13
  endloop
endfacet
facet normal -9.685961215528734e-15 0.0 -1.0
  outer loop
    vertex 183.23169210626156 -204.47214190109074 -6.147526931954417e-13
    vertex 185.29181579692354 -210.62600484781333 -6.34492458573277e-13
    vertex 183.7924378866714 -209.70718488269145 -6.203926261605375e-13
  endloop
endfacet
facet normal -9.685961215528734e-15 0.0 -1.0
  outer loop
    vertex 183.23169210626156 -204.47214190109074 -6.147526931954417e-13
    vertex 183.7924378866714 -209.70718488269145 -6.203926261605375e-13
    vertex 182.581958145786 -208.43160538969101 -6.091127602303458e-13
  endloop
endfacet
facet normal -9.685961215528734e-15 0.0 -1.0
  outer loop
    vertex 183.23169210626156 -204.47214190109074 -6.147526931954417e-13
    vertex 182.581958145786 -208.43160538969101 -6.091127602303458e-13
    vertex 182.7966491246606 -200.23288768150113 -6.105227434716198e-13
  endloop
endfacet
facet normal -9.685961215528734e-15 0.0 -1.0
  outer loop
    vertex 182.7966491246606 -200.23288768150113 -6.105227434716198e-13
    vertex 182.581958145786 -208.43160538969101 -6.091127602303458e-13
    vertex 181.87782915953903 -201.73226559175205 -6.020628440239761e-13
  endloop
endfacet
facet normal -9.685961215528734e-15 0.0 -1.0
  outer loop
    vertex 181.87782915953903 -201.73226559175205 -6.020628440239761e-13
    vertex 182.581958145786 -208.43160538969101 -6.091127602303458e-13
    vertex 181.74286876819613 -206.88619500326615 -6.006528607827022e-13
  endloop
endfacet
facet normal -9.685961215528734e-15 0.0 -1.0
  outer loop
    vertex 181.87782915953903 -201.73226559175205 -6.020628440239761e-13
    vertex 181.74286876819613 -206.88619500326615 -6.006528607827022e-13
    vertex 181.37838478449706 -203.41836154462584 -5.978328943001542e-13
  endloop
endfacet
facet normal -9.685961215528734e-15 0.0 -1.0
  outer loop
    vertex 181.37838478449706 -203.41836154462584 -5.978328943001542e-13
    vertex 181.74286876819613 -206.88619500326615 -6.006528607827022e-13
    vertex 181.33235230832284 -205.1762708873379 -5.964229110588803e-13
  endloop
endfacet
facet normal -9.685961215528734e-15 0.0 -1.0
  outer loop
    vertex 194.68499942802603 -205.52592225755564 -7.261413692560836e-13
    vertex 194.32051544432696 -202.05808879891535 -7.233214027735357e-13
    vertex 194.73103190420022 -203.76801291484358 -7.261413692560836e-13
  endloop
endfacet
facet normal -9.685961215528734e-15 0.0 -1.0
  outer loop
    vertex 194.32051544432696 -202.05808879891535 -7.233214027735357e-13
    vertex 194.68499942802603 -205.52592225755564 -7.261413692560836e-13
    vertex 194.18555505298403 -207.21201821042942 -7.219114195322617e-13
  endloop
endfacet
facet normal -9.685961215528734e-15 0.0 -1.0
  outer loop
    vertex 194.32051544432696 -202.05808879891535 -7.233214027735357e-13
    vertex 194.18555505298403 -207.21201821042942 -7.219114195322617e-13
    vertex 193.4814260667371 -200.51267841249046 -7.14861503325892e-13
  endloop
endfacet
facet normal -9.685961215528734e-15 0.0 -1.0
  outer loop
    vertex 193.4814260667371 -200.51267841249046 -7.14861503325892e-13
    vertex 194.18555505298403 -207.21201821042942 -7.219114195322617e-13
    vertex 193.26673508786246 -208.71139612068035 -7.120415368433441e-13
  endloop
endfacet
facet normal -9.685961215528734e-15 0.0 -1.0
  outer loop
    vertex 193.4814260667371 -200.51267841249046 -7.14861503325892e-13
    vertex 193.26673508786246 -208.71139612068035 -7.120415368433441e-13
    vertex 192.83169210626153 -204.47214190109074 -7.078115871195223e-13
  endloop
endfacet
facet normal -9.685961215528734e-15 0.0 -1.0
  outer loop
    vertex 193.4814260667371 -200.51267841249046 -7.14861503325892e-13
    vertex 192.83169210626153 -204.47214190109074 -7.078115871195223e-13
    vertex 192.2709463258517 -199.23709891949005 -7.021716541544264e-13
  endloop
endfacet
facet normal -9.685961215528734e-15 0.0 -1.0
  outer loop
    vertex 192.2709463258517 -199.23709891949005 -7.021716541544264e-13
    vertex 192.83169210626153 -204.47214190109074 -7.078115871195223e-13
    vertex 190.43169210626152 -200.31521996292545 -6.852518552591391e-13
  endloop
endfacet
facet normal -9.685961215528734e-15 0.0 -1.0
  outer loop
    vertex 192.2709463258517 -199.23709891949005 -7.021716541544264e-13
    vertex 190.43169210626152 -200.31521996292545 -6.852518552591391e-13
    vertex 190.77156841559955 -198.31827895436817 -6.88071821741687e-13
  endloop
endfacet
facet normal -9.685961215528734e-15 0.0 -1.0
  outer loop
    vertex 190.77156841559955 -198.31827895436817 -6.88071821741687e-13
    vertex 190.43169210626152 -200.31521996292545 -6.852518552591391e-13
    vertex 189.08547246272667 -197.81883457932622 -6.725620060876735e-13
  endloop
endfacet
facet normal -9.685961215528734e-15 0.0 -1.0
  outer loop
    vertex 189.08547246272667 -197.81883457932622 -6.725620060876735e-13
    vertex 190.43169210626152 -200.31521996292545 -6.852518552591391e-13
    vertex 185.63169210626154 -200.31521996292545 -6.387224082970987e-13
  endloop
endfacet
facet normal -9.685961215528734e-15 0.0 -1.0
  outer loop
    vertex 189.08547246272667 -197.81883457932622 -6.725620060876735e-13
    vertex 185.63169210626154 -200.31521996292545 -6.387224082970987e-13
    vertex 187.32756312001433 -197.7728021031522 -6.542322239511122e-13
  endloop
endfacet
facet normal -9.685961215528734e-15 0.0 -1.0
  outer loop
    vertex 187.32756312001433 -197.7728021031522 -6.542322239511122e-13
    vertex 185.63169210626154 -200.31521996292545 -6.387224082970987e-13
    vertex 185.61763900408675 -198.18331856302518 -6.387224082970987e-13
  endloop
endfacet
facet normal -9.685961215528734e-15 0.0 -1.0
  outer loop
    vertex 185.61763900408675 -198.18331856302518 -6.387224082970987e-13
    vertex 185.63169210626154 -200.31521996292545 -6.387224082970987e-13
    vertex 183.23169210626156 -204.47214190109074 -6.147526931954417e-13
  endloop
endfacet
facet normal -9.685961215528734e-15 0.0 -1.0
  outer loop
    vertex 185.61763900408675 -198.18331856302518 -6.387224082970987e-13
    vertex 183.23169210626156 -204.47214190109074 -6.147526931954417e-13
    vertex 184.07222861766112 -199.0224079406154 -6.232125926430853e-13
  endloop
endfacet
facet normal -9.685961215528734e-15 0.0 -1.0
  outer loop
    vertex 184.07222861766112 -199.0224079406154 -6.232125926430853e-13
    vertex 183.23169210626156 -204.47214190109074 -6.147526931954417e-13
    vertex 182.7966491246606 -200.23288768150113 -6.105227434716198e-13
  endloop
endfacet
facet normal -0.9914448613738212 0.1305261922199716 9.603096474602094e-15
  outer loop
    vertex 185.12557969151604 -203.69345142644562 11.5999999999993
    vertex 185.0230631456815 -204.47214190109074 6.599999999999355
    vertex 185.02306314568156 -204.47214190109074 11.5999999999993
  endloop
endfacet
facet normal -0.9914448613738212 0.1305261922199716 9.603096474602094e-15
  outer loop
    vertex 185.0230631456815 -204.47214190109074 6.599999999999355
    vertex 185.12557969151604 -203.69345142644562 11.5999999999993
    vertex 185.12557969151598 -203.69345142644562 6.599999999999355
  endloop
endfacet
facet normal -0.9914448613738212 -0.1305261922199716 9.603096474602094e-15
  outer loop
    vertex 185.02306314568156 -204.47214190109074 11.5999999999993
    vertex 185.12557969151598 -205.25083237573585 6.599999999999355
    vertex 185.12557969151604 -205.25083237573585 11.5999999999993
  endloop
endfacet
facet normal -0.9914448613738212 -0.1305261922199716 9.603096474602094e-15
  outer loop
    vertex 185.12557969151598 -205.25083237573585 6.599999999999355
    vertex 185.02306314568156 -204.47214190109074 11.5999999999993
    vertex 185.0230631456815 -204.47214190109074 6.599999999999355
  endloop
endfacet
facet normal -0.9238795325112968 -0.3826834323650655 8.948661319725238e-15
  outer loop
    vertex 185.12557969151604 -205.25083237573585 11.5999999999993
    vertex 185.42614299583758 -205.97645638138079 6.59999999999935
    vertex 185.42614299583764 -205.97645638138079 11.599999999999296
  endloop
endfacet
facet normal -0.9238795325112968 -0.3826834323650655 8.948661319725238e-15
  outer loop
    vertex 185.42614299583758 -205.97645638138079 6.59999999999935
    vertex 185.12557969151604 -205.25083237573585 11.5999999999993
    vertex 185.12557969151598 -205.25083237573585 6.599999999999355
  endloop
endfacet
facet normal -0.7933533402911984 -0.6087614290087687 7.684389684270718e-15
  outer loop
    vertex 185.42614299583764 -205.97645638138079 11.599999999999296
    vertex 185.9042701661613 -206.59956384119133 6.599999999999346
    vertex 185.90427016616133 -206.59956384119133 11.599999999999293
  endloop
endfacet
facet normal -0.7933533402911984 -0.6087614290087687 7.684389684270718e-15
  outer loop
    vertex 185.9042701661613 -206.59956384119133 6.599999999999346
    vertex 185.42614299583764 -205.97645638138079 11.599999999999296
    vertex 185.42614299583758 -205.97645638138079 6.59999999999935
  endloop
endfacet
facet normal -0.6087614290086653 -0.7933533402912776 5.89643959088778e-15
  outer loop
    vertex 185.9042701661613 -206.59956384119133 6.599999999999346
    vertex 186.52737762597152 -207.07769101151462 11.599999999999287
    vertex 185.90427016616133 -206.59956384119133 11.599999999999293
  endloop
endfacet
facet normal -0.6087614290086653 -0.7933533402912776 5.89643959088778e-15
  outer loop
    vertex 186.52737762597152 -207.07769101151462 11.599999999999287
    vertex 185.9042701661613 -206.59956384119133 6.599999999999346
    vertex 186.52737762597147 -207.07769101151462 6.599999999999341
  endloop
endfacet
facet normal -0.382683432365172 -0.9238795325112528 3.706656883714469e-15
  outer loop
    vertex 186.52737762597147 -207.07769101151462 6.599999999999341
    vertex 187.25300163161654 -207.37825431583636 11.59999999999928
    vertex 186.52737762597152 -207.07769101151462 11.599999999999287
  endloop
endfacet
facet normal -0.382683432365172 -0.9238795325112528 3.706656883714469e-15
  outer loop
    vertex 187.25300163161654 -207.37825431583636 11.59999999999928
    vertex 186.52737762597147 -207.07769101151462 6.599999999999341
    vertex 187.25300163161648 -207.37825431583636 6.5999999999993335
  endloop
endfacet
facet normal -0.1305261922200281 -0.9914448613738137 1.2642716354538404e-15
  outer loop
    vertex 187.25300163161648 -207.37825431583636 6.5999999999993335
    vertex 188.03169210626166 -207.4807708616709 11.599999999999273
    vertex 187.25300163161654 -207.37825431583636 11.59999999999928
  endloop
endfacet
facet normal -0.1305261922200281 -0.9914448613738137 1.2642716354538404e-15
  outer loop
    vertex 188.03169210626166 -207.4807708616709 11.599999999999273
    vertex 187.25300163161648 -207.37825431583636 6.5999999999993335
    vertex 188.0316921062616 -207.4807708616709 6.599999999999326
  endloop
endfacet
facet normal 0.1305261922200281 -0.9914448613738137 -1.2642716354538404e-15
  outer loop
    vertex 188.0316921062616 -207.4807708616709 6.599999999999326
    vertex 188.81038258090678 -207.37825431583636 11.599999999999264
    vertex 188.03169210626166 -207.4807708616709 11.599999999999273
  endloop
endfacet
facet normal 0.1305261922200281 -0.9914448613738137 -1.2642716354538404e-15
  outer loop
    vertex 188.81038258090678 -207.37825431583636 11.599999999999264
    vertex 188.0316921062616 -207.4807708616709 6.599999999999326
    vertex 188.81038258090672 -207.37825431583636 6.599999999999318
  endloop
endfacet
facet normal 0.3826834323650739 -0.9238795325112934 -3.706656883713519e-15
  outer loop
    vertex 188.81038258090672 -207.37825431583636 6.599999999999318
    vertex 189.5360065865518 -207.07769101151473 11.599999999999257
    vertex 188.81038258090678 -207.37825431583636 11.599999999999264
  endloop
endfacet
facet normal 0.3826834323650739 -0.9238795325112934 -3.706656883713519e-15
  outer loop
    vertex 189.5360065865518 -207.07769101151473 11.599999999999257
    vertex 188.81038258090672 -207.37825431583636 6.599999999999318
    vertex 189.53600658655174 -207.07769101151473 6.599999999999311
  endloop
endfacet
facet normal 0.6087614290087351 -0.7933533402912242 -5.896439590888457e-15
  outer loop
    vertex 189.53600658655174 -207.07769101151473 6.599999999999311
    vertex 190.15911404636216 -206.59956384119118 11.599999999999252
    vertex 189.5360065865518 -207.07769101151473 11.599999999999257
  endloop
endfacet
facet normal 0.6087614290087351 -0.7933533402912242 -5.896439590888457e-15
  outer loop
    vertex 190.15911404636216 -206.59956384119118 11.599999999999252
    vertex 189.53600658655174 -207.07769101151473 6.599999999999311
    vertex 190.1591140463621 -206.59956384119118 6.599999999999305
  endloop
endfacet
facet normal 0.7933533402912455 -0.6087614290087073 -7.684389684271174e-15
  outer loop
    vertex 190.63724121668562 -205.97645638138079 6.5999999999993015
    vertex 190.15911404636216 -206.59956384119118 11.599999999999252
    vertex 190.1591140463621 -206.59956384119118 6.599999999999305
  endloop
endfacet
facet normal 0.7933533402912455 -0.6087614290087073 -7.684389684271174e-15
  outer loop
    vertex 190.15911404636216 -206.59956384119118 11.599999999999252
    vertex 190.63724121668562 -205.97645638138079 6.5999999999993015
    vertex 190.39817763152388 -206.28801011128598 11.599999999999248
  endloop
endfacet
facet normal 0.7933533402912455 -0.6087614290087073 -7.684389684271174e-15
  outer loop
    vertex 190.39817763152388 -206.28801011128598 11.599999999999248
    vertex 190.63724121668562 -205.97645638138079 6.5999999999993015
    vertex 190.63724121668568 -205.97645638138079 11.599999999999246
  endloop
endfacet
facet normal 0.9238795325112968 -0.3826834323650655 -8.948661319725238e-15
  outer loop
    vertex 190.93780452100722 -205.25083237573585 6.599999999999298
    vertex 190.63724121668568 -205.97645638138079 11.599999999999246
    vertex 190.63724121668562 -205.97645638138079 6.5999999999993015
  endloop
endfacet
facet normal 0.9238795325112968 -0.3826834323650655 -8.948661319725238e-15
  outer loop
    vertex 190.63724121668568 -205.97645638138079 11.599999999999246
    vertex 190.93780452100722 -205.25083237573585 6.599999999999298
    vertex 190.93780452100728 -205.25083237573585 11.599999999999245
  endloop
endfacet
facet normal 0.9914448613738082 -0.13052619222006967 -9.603096474601968e-15
  outer loop
    vertex 190.98906279392452 -204.86148713841325 6.599999999999297
    vertex 190.93780452100728 -205.25083237573585 11.599999999999245
    vertex 190.93780452100722 -205.25083237573585 6.599999999999298
  endloop
endfacet
facet normal 0.9914448613738082 -0.13052619222006967 -9.603096474601968e-15
  outer loop
    vertex 190.93780452100728 -205.25083237573585 11.599999999999245
    vertex 190.98906279392452 -204.86148713841325 6.599999999999297
    vertex 190.98906279392455 -204.86148713841325 11.599999999999243
  endloop
endfacet
facet normal 0.9914448613738022 -0.13052619222011427 -9.60309647460191e-15
  outer loop
    vertex 191.04032106684178 -204.4721419010908 6.599999999999297
    vertex 190.98906279392455 -204.86148713841325 11.599999999999243
    vertex 190.98906279392452 -204.86148713841325 6.599999999999297
  endloop
endfacet
facet normal 0.9914448613738022 -0.13052619222011427 -9.60309647460191e-15
  outer loop
    vertex 190.98906279392455 -204.86148713841325 11.599999999999243
    vertex 191.04032106684178 -204.4721419010908 6.599999999999297
    vertex 191.04032106684184 -204.4721419010908 11.599999999999243
  endloop
endfacet
facet normal 0.9914448613738072 0.1305261922200771 -9.603096474601958e-15
  outer loop
    vertex 190.93780452100722 -203.69345142644562 6.599999999999298
    vertex 191.04032106684184 -204.4721419010908 11.599999999999243
    vertex 191.04032106684178 -204.4721419010908 6.599999999999297
  endloop
endfacet
facet normal 0.9914448613738072 0.1305261922200771 -9.603096474601958e-15
  outer loop
    vertex 191.04032106684184 -204.4721419010908 11.599999999999243
    vertex 190.93780452100722 -203.69345142644562 6.599999999999298
    vertex 190.93780452100728 -203.69345142644562 11.599999999999245
  endloop
endfacet
facet normal 0.9238795325112968 0.3826834323650655 -8.948661319725238e-15
  outer loop
    vertex 190.63724121668562 -202.9678274208007 6.5999999999993015
    vertex 190.93780452100728 -203.69345142644562 11.599999999999245
    vertex 190.93780452100722 -203.69345142644562 6.599999999999298
  endloop
endfacet
facet normal 0.9238795325112968 0.3826834323650655 -8.948661319725238e-15
  outer loop
    vertex 190.93780452100728 -203.69345142644562 11.599999999999245
    vertex 190.63724121668562 -202.9678274208007 6.5999999999993015
    vertex 190.63724121668568 -202.9678274208007 11.599999999999246
  endloop
endfacet
facet normal 0.7933533402911984 0.6087614290087687 -7.684389684270718e-15
  outer loop
    vertex 190.15911404636194 -202.34471996099015 6.599999999999305
    vertex 190.63724121668568 -202.9678274208007 11.599999999999246
    vertex 190.63724121668562 -202.9678274208007 6.5999999999993015
  endloop
endfacet
facet normal 0.7933533402911984 0.6087614290087687 -7.684389684270718e-15
  outer loop
    vertex 190.63724121668568 -202.9678274208007 11.599999999999246
    vertex 190.15911404636194 -202.34471996099015 6.599999999999305
    vertex 190.15911404636196 -202.34471996099015 11.599999999999252
  endloop
endfacet
facet normal 0.6087614290086653 0.7933533402912776 -5.89643959088778e-15
  outer loop
    vertex 190.15911404636194 -202.34471996099015 6.599999999999305
    vertex 189.5360065865518 -201.86659279066686 11.599999999999257
    vertex 190.15911404636196 -202.34471996099015 11.599999999999252
  endloop
endfacet
facet normal 0.6087614290086653 0.7933533402912776 -5.89643959088778e-15
  outer loop
    vertex 189.5360065865518 -201.86659279066686 11.599999999999257
    vertex 190.15911404636194 -202.34471996099015 6.599999999999305
    vertex 189.53600658655174 -201.86659279066686 6.599999999999311
  endloop
endfacet
facet normal 0.382683432365172 0.9238795325112528 -3.706656883714469e-15
  outer loop
    vertex 189.53600658655174 -201.86659279066686 6.599999999999311
    vertex 188.81038258090678 -201.56602948634512 11.599999999999264
    vertex 189.5360065865518 -201.86659279066686 11.599999999999257
  endloop
endfacet
facet normal 0.382683432365172 0.9238795325112528 -3.706656883714469e-15
  outer loop
    vertex 188.81038258090678 -201.56602948634512 11.599999999999264
    vertex 189.53600658655174 -201.86659279066686 6.599999999999311
    vertex 188.81038258090672 -201.56602948634512 6.599999999999318
  endloop
endfacet
facet normal 0.1305261922200281 0.9914448613738137 -1.2642716354538404e-15
  outer loop
    vertex 188.81038258090672 -201.56602948634512 6.599999999999318
    vertex 188.03169210626166 -201.4635129405106 11.599999999999273
    vertex 188.81038258090678 -201.56602948634512 11.599999999999264
  endloop
endfacet
facet normal 0.1305261922200281 0.9914448613738137 -1.2642716354538404e-15
  outer loop
    vertex 188.03169210626166 -201.4635129405106 11.599999999999273
    vertex 188.81038258090672 -201.56602948634512 6.599999999999318
    vertex 188.0316921062616 -201.4635129405106 6.599999999999326
  endloop
endfacet
facet normal -0.1305261922200281 0.9914448613738137 1.2642716354538404e-15
  outer loop
    vertex 188.0316921062616 -201.4635129405106 6.599999999999326
    vertex 187.25300163161654 -201.56602948634512 11.59999999999928
    vertex 188.03169210626166 -201.4635129405106 11.599999999999273
  endloop
endfacet
facet normal -0.1305261922200281 0.9914448613738137 1.2642716354538404e-15
  outer loop
    vertex 187.25300163161654 -201.56602948634512 11.59999999999928
    vertex 188.0316921062616 -201.4635129405106 6.599999999999326
    vertex 187.25300163161648 -201.56602948634512 6.5999999999993335
  endloop
endfacet
facet normal -0.3826834323650739 0.9238795325112934 3.706656883713519e-15
  outer loop
    vertex 187.25300163161648 -201.56602948634512 6.5999999999993335
    vertex 186.52737762597152 -201.86659279066677 11.599999999999287
    vertex 187.25300163161654 -201.56602948634512 11.59999999999928
  endloop
endfacet
facet normal -0.3826834323650739 0.9238795325112934 3.706656883713519e-15
  outer loop
    vertex 186.52737762597152 -201.86659279066677 11.599999999999287
    vertex 187.25300163161648 -201.56602948634512 6.5999999999993335
    vertex 186.52737762597147 -201.86659279066677 6.599999999999341
  endloop
endfacet
facet normal -0.6087614290087351 0.7933533402912242 5.896439590888457e-15
  outer loop
    vertex 186.52737762597147 -201.86659279066677 6.599999999999341
    vertex 185.90427016616115 -202.3447199609903 11.599999999999293
    vertex 186.52737762597152 -201.86659279066677 11.599999999999287
  endloop
endfacet
facet normal -0.6087614290087351 0.7933533402912242 5.896439590888457e-15
  outer loop
    vertex 185.90427016616115 -202.3447199609903 11.599999999999293
    vertex 186.52737762597147 -201.86659279066677 6.599999999999341
    vertex 185.9042701661611 -202.3447199609903 6.599999999999346
  endloop
endfacet
facet normal -0.7933533402912455 0.6087614290087073 7.684389684271174e-15
  outer loop
    vertex 185.90427016616115 -202.3447199609903 11.599999999999293
    vertex 185.42614299583758 -202.9678274208007 6.59999999999935
    vertex 185.42614299583764 -202.9678274208007 11.599999999999296
  endloop
endfacet
facet normal -0.7933533402912455 0.6087614290087073 7.684389684271174e-15
  outer loop
    vertex 185.42614299583758 -202.9678274208007 6.59999999999935
    vertex 185.90427016616115 -202.3447199609903 11.599999999999293
    vertex 185.9042701661611 -202.3447199609903 6.599999999999346
  endloop
endfacet
facet normal -0.9238795325112968 0.3826834323650655 8.948661319725238e-15
  outer loop
    vertex 185.42614299583764 -202.9678274208007 11.599999999999296
    vertex 185.12557969151598 -203.69345142644562 6.599999999999355
    vertex 185.12557969151604 -203.69345142644562 11.5999999999993
  endloop
endfacet
facet normal -0.9238795325112968 0.3826834323650655 8.948661319725238e-15
  outer loop
    vertex 185.12557969151598 -203.69345142644562 6.599999999999355
    vertex 185.42614299583764 -202.9678274208007 11.599999999999296
    vertex 185.42614299583758 -202.9678274208007 6.59999999999935
  endloop
endfacet
facet normal 9.939049150601304e-15 -1.2961298908048813e-16 1.0
  outer loop
    vertex 190.93780452100728 -203.69345142644562 11.599999999999245
    vertex 190.98906279392455 -204.86148713841325 11.599999999999243
    vertex 191.04032106684184 -204.4721419010908 11.599999999999243
  endloop
endfacet
facet normal 9.939049150601304e-15 -1.2961298908048813e-16 1.0
  outer loop
    vertex 190.98906279392455 -204.86148713841325 11.599999999999243
    vertex 190.93780452100728 -203.69345142644562 11.599999999999245
    vertex 190.93780452100728 -205.25083237573585 11.599999999999245
  endloop
endfacet
facet normal 9.939049150601304e-15 -1.2961298908048813e-16 1.0
  outer loop
    vertex 190.93780452100728 -205.25083237573585 11.599999999999245
    vertex 190.93780452100728 -203.69345142644562 11.599999999999245
    vertex 190.63724121668568 -202.9678274208007 11.599999999999246
  endloop
endfacet
facet normal 9.939049150601304e-15 -1.2961298908048813e-16 1.0
  outer loop
    vertex 190.93780452100728 -205.25083237573585 11.599999999999245
    vertex 190.63724121668568 -202.9678274208007 11.599999999999246
    vertex 190.63724121668568 -205.97645638138079 11.599999999999246
  endloop
endfacet
facet normal 9.939049150601304e-15 -1.2961298908048813e-16 1.0
  outer loop
    vertex 190.63724121668568 -205.97645638138079 11.599999999999246
    vertex 190.63724121668568 -202.9678274208007 11.599999999999246
    vertex 190.15911404636196 -202.34471996099015 11.599999999999252
  endloop
endfacet
facet normal 9.939049150601304e-15 -1.2961298908048813e-16 1.0
  outer loop
    vertex 190.63724121668568 -205.97645638138079 11.599999999999246
    vertex 190.15911404636196 -202.34471996099015 11.599999999999252
    vertex 190.39817763152388 -206.28801011128598 11.599999999999248
  endloop
endfacet
facet normal 9.939049150601304e-15 -1.2961298908048813e-16 1.0
  outer loop
    vertex 190.39817763152388 -206.28801011128598 11.599999999999248
    vertex 190.15911404636196 -202.34471996099015 11.599999999999252
    vertex 190.15911404636216 -206.59956384119118 11.599999999999252
  endloop
endfacet
facet normal 9.939049150601304e-15 -1.2961298908048813e-16 1.0
  outer loop
    vertex 190.15911404636216 -206.59956384119118 11.599999999999252
    vertex 190.15911404636196 -202.34471996099015 11.599999999999252
    vertex 189.5360065865518 -207.07769101151473 11.599999999999257
  endloop
endfacet
facet normal 9.939049150601304e-15 -1.2961298908048813e-16 1.0
  outer loop
    vertex 189.5360065865518 -207.07769101151473 11.599999999999257
    vertex 190.15911404636196 -202.34471996099015 11.599999999999252
    vertex 189.5360065865518 -201.86659279066686 11.599999999999257
  endloop
endfacet
facet normal 9.939049150601304e-15 -1.2961298908048813e-16 1.0
  outer loop
    vertex 189.5360065865518 -207.07769101151473 11.599999999999257
    vertex 189.5360065865518 -201.86659279066686 11.599999999999257
    vertex 188.81038258090678 -201.56602948634512 11.599999999999264
  endloop
endfacet
facet normal 9.939049150601304e-15 -1.2961298908048813e-16 1.0
  outer loop
    vertex 189.5360065865518 -207.07769101151473 11.599999999999257
    vertex 188.81038258090678 -201.56602948634512 11.599999999999264
    vertex 189.0316921062617 -204.47214190109074 11.599999999999307
  endloop
endfacet
facet normal 9.939049150601304e-15 -1.2961298908048813e-16 1.0
  outer loop
    vertex 189.0316921062617 -204.47214190109074 11.599999999999307
    vertex 188.81038258090678 -201.56602948634512 11.599999999999264
    vertex 188.99761793255078 -204.21332285598822 11.599999999999307
  endloop
endfacet
facet normal 9.939049150601304e-15 -1.2961298908048813e-16 1.0
  outer loop
    vertex 188.99761793255078 -204.21332285598822 11.599999999999307
    vertex 188.81038258090678 -201.56602948634512 11.599999999999264
    vertex 188.89771751004614 -203.97214190109074 11.599999999999309
  endloop
endfacet
facet normal 9.939049150601304e-15 -1.2961298908048813e-16 1.0
  outer loop
    vertex 188.89771751004614 -203.97214190109074 11.599999999999309
    vertex 188.81038258090678 -201.56602948634512 11.599999999999264
    vertex 188.73879888744824 -203.76503511990416 11.59999999999931
  endloop
endfacet
facet normal 9.939049150601304e-15 -1.2961298908048813e-16 1.0
  outer loop
    vertex 188.73879888744824 -203.76503511990416 11.59999999999931
    vertex 188.81038258090678 -201.56602948634512 11.599999999999264
    vertex 188.03169210626166 -201.4635129405106 11.599999999999273
  endloop
endfacet
facet normal 9.939049150601304e-15 -1.2961298908048813e-16 1.0
  outer loop
    vertex 188.73879888744824 -203.76503511990416 11.59999999999931
    vertex 188.03169210626166 -201.4635129405106 11.599999999999273
    vertex 188.53169210626163 -203.60611649730626 11.599999999999312
  endloop
endfacet
facet normal 9.939049150601304e-15 -1.2961298908048813e-16 1.0
  outer loop
    vertex 188.53169210626163 -203.60611649730626 11.599999999999312
    vertex 188.03169210626166 -201.4635129405106 11.599999999999273
    vertex 188.2905111513642 -203.5062160748016 11.599999999999314
  endloop
endfacet
facet normal 9.939049150601304e-15 -1.2961298908048813e-16 1.0
  outer loop
    vertex 188.2905111513642 -203.5062160748016 11.599999999999314
    vertex 188.03169210626166 -201.4635129405106 11.599999999999273
    vertex 188.03169210626166 -203.4721419010907 11.599999999999318
  endloop
endfacet
facet normal 9.939049150601304e-15 -1.2961298908048813e-16 1.0
  outer loop
    vertex 188.03169210626166 -203.4721419010907 11.599999999999318
    vertex 188.03169210626166 -201.4635129405106 11.599999999999273
    vertex 187.25300163161654 -201.56602948634512 11.59999999999928
  endloop
endfacet
facet normal 9.939049150601304e-15 -1.2961298908048813e-16 1.0
  outer loop
    vertex 188.03169210626166 -203.4721419010907 11.599999999999318
    vertex 187.25300163161654 -201.56602948634512 11.59999999999928
    vertex 187.77287306115912 -203.5062160748016 11.59999999999932
  endloop
endfacet
facet normal 9.939049150601304e-15 -1.2961298908048813e-16 1.0
  outer loop
    vertex 187.77287306115912 -203.5062160748016 11.59999999999932
    vertex 187.25300163161654 -201.56602948634512 11.59999999999928
    vertex 187.53169210626157 -203.60611649730626 11.599999999999321
  endloop
endfacet
facet normal 9.939049150601304e-15 -1.2961298908048813e-16 1.0
  outer loop
    vertex 187.53169210626157 -203.60611649730626 11.599999999999321
    vertex 187.25300163161654 -201.56602948634512 11.59999999999928
    vertex 187.32458532507505 -203.76503511990416 11.599999999999325
  endloop
endfacet
facet normal 9.939049150601304e-15 -1.2961298908048813e-16 1.0
  outer loop
    vertex 187.32458532507505 -203.76503511990416 11.599999999999325
    vertex 187.25300163161654 -201.56602948634512 11.59999999999928
    vertex 187.16566670247718 -203.97214190109074 11.599999999999326
  endloop
endfacet
facet normal 9.939049150601304e-15 -1.2961298908048813e-16 1.0
  outer loop
    vertex 187.16566670247718 -203.97214190109074 11.599999999999326
    vertex 187.25300163161654 -201.56602948634512 11.59999999999928
    vertex 186.52737762597152 -201.86659279066677 11.599999999999287
  endloop
endfacet
facet normal 9.939049150601304e-15 -1.2961298908048813e-16 1.0
  outer loop
    vertex 187.16566670247718 -203.97214190109074 11.599999999999326
    vertex 186.52737762597152 -201.86659279066677 11.599999999999287
    vertex 187.06576627997254 -204.21332285598822 11.599999999999326
  endloop
endfacet
facet normal 9.939049150601304e-15 -1.2961298908048813e-16 1.0
  outer loop
    vertex 187.06576627997254 -204.21332285598822 11.599999999999326
    vertex 186.52737762597152 -201.86659279066677 11.599999999999287
    vertex 187.0316921062616 -204.47214190109074 11.599999999999328
  endloop
endfacet
facet normal 9.939049150601304e-15 -1.2961298908048813e-16 1.0
  outer loop
    vertex 189.0316921062617 -204.47214190109074 11.599999999999307
    vertex 188.81038258090678 -207.37825431583636 11.599999999999264
    vertex 189.5360065865518 -207.07769101151473 11.599999999999257
  endloop
endfacet
facet normal 9.939049150601304e-15 -1.2961298908048813e-16 1.0
  outer loop
    vertex 188.81038258090678 -207.37825431583636 11.599999999999264
    vertex 189.0316921062617 -204.47214190109074 11.599999999999307
    vertex 188.99761793255078 -204.73096094619328 11.599999999999307
  endloop
endfacet
facet normal 9.939049150601304e-15 -1.2961298908048813e-16 1.0
  outer loop
    vertex 188.81038258090678 -207.37825431583636 11.599999999999264
    vertex 188.99761793255078 -204.73096094619328 11.599999999999307
    vertex 188.89771751004614 -204.97214190109077 11.599999999999309
  endloop
endfacet
facet normal 9.939049150601304e-15 -1.2961298908048813e-16 1.0
  outer loop
    vertex 188.81038258090678 -207.37825431583636 11.599999999999264
    vertex 188.89771751004614 -204.97214190109077 11.599999999999309
    vertex 188.73879888744824 -205.17924868227735 11.59999999999931
  endloop
endfacet
facet normal 9.939049150601304e-15 -1.2961298908048813e-16 1.0
  outer loop
    vertex 188.81038258090678 -207.37825431583636 11.599999999999264
    vertex 188.73879888744824 -205.17924868227735 11.59999999999931
    vertex 188.03169210626166 -207.4807708616709 11.599999999999273
  endloop
endfacet
facet normal 9.939049150601304e-15 -1.2961298908048813e-16 1.0
  outer loop
    vertex 188.03169210626166 -207.4807708616709 11.599999999999273
    vertex 188.73879888744824 -205.17924868227735 11.59999999999931
    vertex 188.53169210626172 -205.3381673048752 11.599999999999312
  endloop
endfacet
facet normal 9.939049150601304e-15 -1.2961298908048813e-16 1.0
  outer loop
    vertex 188.03169210626166 -207.4807708616709 11.599999999999273
    vertex 188.53169210626172 -205.3381673048752 11.599999999999312
    vertex 188.2905111513642 -205.4380677273799 11.599999999999314
  endloop
endfacet
facet normal 9.939049150601304e-15 -1.2961298908048813e-16 1.0
  outer loop
    vertex 188.03169210626166 -207.4807708616709 11.599999999999273
    vertex 188.2905111513642 -205.4380677273799 11.599999999999314
    vertex 188.03169210626166 -205.4721419010908 11.599999999999318
  endloop
endfacet
facet normal 9.939049150601304e-15 -1.2961298908048813e-16 1.0
  outer loop
    vertex 188.03169210626166 -207.4807708616709 11.599999999999273
    vertex 188.03169210626166 -205.4721419010908 11.599999999999318
    vertex 187.77287306115912 -205.4380677273799 11.59999999999932
  endloop
endfacet
facet normal 9.939049150601304e-15 -1.2961298908048813e-16 1.0
  outer loop
    vertex 188.03169210626166 -207.4807708616709 11.599999999999273
    vertex 187.77287306115912 -205.4380677273799 11.59999999999932
    vertex 187.25300163161654 -207.37825431583636 11.59999999999928
  endloop
endfacet
facet normal 9.939049150601304e-15 -1.2961298908048813e-16 1.0
  outer loop
    vertex 187.25300163161654 -207.37825431583636 11.59999999999928
    vertex 187.77287306115912 -205.4380677273799 11.59999999999932
    vertex 187.5316921062617 -205.3381673048752 11.599999999999321
  endloop
endfacet
facet normal 9.939049150601304e-15 -1.2961298908048813e-16 1.0
  outer loop
    vertex 187.25300163161654 -207.37825431583636 11.59999999999928
    vertex 187.5316921062617 -205.3381673048752 11.599999999999321
    vertex 187.32458532507505 -205.17924868227735 11.599999999999325
  endloop
endfacet
facet normal 9.939049150601304e-15 -1.2961298908048813e-16 1.0
  outer loop
    vertex 187.25300163161654 -207.37825431583636 11.59999999999928
    vertex 187.32458532507505 -205.17924868227735 11.599999999999325
    vertex 187.16566670247718 -204.97214190109077 11.599999999999326
  endloop
endfacet
facet normal 9.939049150601304e-15 -1.2961298908048813e-16 1.0
  outer loop
    vertex 187.25300163161654 -207.37825431583636 11.59999999999928
    vertex 187.16566670247718 -204.97214190109077 11.599999999999326
    vertex 186.52737762597152 -207.07769101151462 11.599999999999287
  endloop
endfacet
facet normal 9.939049150601304e-15 -1.2961298908048813e-16 1.0
  outer loop
    vertex 186.52737762597152 -207.07769101151462 11.599999999999287
    vertex 187.16566670247718 -204.97214190109077 11.599999999999326
    vertex 187.06576627997254 -204.73096094619328 11.599999999999326
  endloop
endfacet
facet normal 9.939049150601304e-15 -1.2961298908048813e-16 1.0
  outer loop
    vertex 186.52737762597152 -207.07769101151462 11.599999999999287
    vertex 187.06576627997254 -204.73096094619328 11.599999999999326
    vertex 187.0316921062616 -204.47214190109074 11.599999999999328
  endloop
endfacet
facet normal 9.939049150601304e-15 -1.2961298908048813e-16 1.0
  outer loop
    vertex 186.52737762597152 -207.07769101151462 11.599999999999287
    vertex 187.0316921062616 -204.47214190109074 11.599999999999328
    vertex 186.52737762597152 -201.86659279066677 11.599999999999287
  endloop
endfacet
facet normal 9.939049150601304e-15 -1.2961298908048813e-16 1.0
  outer loop
    vertex 186.52737762597152 -207.07769101151462 11.599999999999287
    vertex 186.52737762597152 -201.86659279066677 11.599999999999287
    vertex 185.90427016616115 -202.3447199609903 11.599999999999293
  endloop
endfacet
facet normal 9.939049150601304e-15 -1.2961298908048813e-16 1.0
  outer loop
    vertex 186.52737762597152 -207.07769101151462 11.599999999999287
    vertex 185.90427016616115 -202.3447199609903 11.599999999999293
    vertex 185.90427016616133 -206.59956384119133 11.599999999999293
  endloop
endfacet
facet normal 9.939049150601304e-15 -1.2961298908048813e-16 1.0
  outer loop
    vertex 185.90427016616133 -206.59956384119133 11.599999999999293
    vertex 185.90427016616115 -202.3447199609903 11.599999999999293
    vertex 185.42614299583764 -205.97645638138079 11.599999999999296
  endloop
endfacet
facet normal 9.939049150601304e-15 -1.2961298908048813e-16 1.0
  outer loop
    vertex 185.42614299583764 -205.97645638138079 11.599999999999296
    vertex 185.90427016616115 -202.3447199609903 11.599999999999293
    vertex 185.42614299583764 -202.9678274208007 11.599999999999296
  endloop
endfacet
facet normal 9.939049150601304e-15 -1.2961298908048813e-16 1.0
  outer loop
    vertex 185.42614299583764 -205.97645638138079 11.599999999999296
    vertex 185.42614299583764 -202.9678274208007 11.599999999999296
    vertex 185.12557969151604 -203.69345142644562 11.5999999999993
  endloop
endfacet
facet normal 9.939049150601304e-15 -1.2961298908048813e-16 1.0
  outer loop
    vertex 185.42614299583764 -205.97645638138079 11.599999999999296
    vertex 185.12557969151604 -203.69345142644562 11.5999999999993
    vertex 185.12557969151604 -205.25083237573585 11.5999999999993
  endloop
endfacet
facet normal 9.939049150601304e-15 -1.2961298908048813e-16 1.0
  outer loop
    vertex 185.12557969151604 -205.25083237573585 11.5999999999993
    vertex 185.12557969151604 -203.69345142644562 11.5999999999993
    vertex 185.02306314568156 -204.47214190109074 11.5999999999993
  endloop
endfacet
facet normal 9.685961215528734e-15 0.0 1.0
  outer loop
    vertex 188.99761793255072 -204.21332285598822 6.299999999997715
    vertex 188.99761793255072 -204.73096094619328 6.299999999997715
    vertex 189.03169210626166 -204.47214190109074 6.299999999997715
  endloop
endfacet
facet normal 9.685961215528734e-15 0.0 1.0
  outer loop
    vertex 188.99761793255072 -204.73096094619328 6.299999999997715
    vertex 188.99761793255072 -204.21332285598822 6.299999999997715
    vertex 188.89771751004608 -203.97214190109074 6.299999999997716
  endloop
endfacet
facet normal 9.685961215528734e-15 0.0 1.0
  outer loop
    vertex 188.99761793255072 -204.73096094619328 6.299999999997715
    vertex 188.89771751004608 -203.97214190109074 6.299999999997716
    vertex 188.89771751004608 -204.97214190109077 6.299999999997716
  endloop
endfacet
facet normal 9.685961215528734e-15 0.0 1.0
  outer loop
    vertex 188.89771751004608 -204.97214190109077 6.299999999997716
    vertex 188.89771751004608 -203.97214190109074 6.299999999997716
    vertex 188.7387988874482 -203.76503511990416 6.299999999997718
  endloop
endfacet
facet normal 9.685961215528734e-15 0.0 1.0
  outer loop
    vertex 188.89771751004608 -204.97214190109077 6.299999999997716
    vertex 188.7387988874482 -203.76503511990416 6.299999999997718
    vertex 188.7387988874482 -205.17924868227735 6.299999999997718
  endloop
endfacet
facet normal 9.685961215528734e-15 0.0 1.0
  outer loop
    vertex 188.7387988874482 -205.17924868227735 6.299999999997718
    vertex 188.7387988874482 -203.76503511990416 6.299999999997718
    vertex 188.53169210626157 -203.60611649730626 6.299999999997721
  endloop
endfacet
facet normal 9.685961215528734e-15 0.0 1.0
  outer loop
    vertex 188.7387988874482 -205.17924868227735 6.299999999997718
    vertex 188.53169210626157 -203.60611649730626 6.299999999997721
    vertex 188.5316921062617 -205.3381673048752 6.299999999997721
  endloop
endfacet
facet normal 9.685961215528734e-15 0.0 1.0
  outer loop
    vertex 188.5316921062617 -205.3381673048752 6.299999999997721
    vertex 188.53169210626157 -203.60611649730626 6.299999999997721
    vertex 188.29051115136414 -205.4380677273799 6.2999999999977225
  endloop
endfacet
facet normal 9.685961215528734e-15 0.0 1.0
  outer loop
    vertex 188.29051115136414 -205.4380677273799 6.2999999999977225
    vertex 188.53169210626157 -203.60611649730626 6.299999999997721
    vertex 188.29051115136414 -203.5062160748016 6.2999999999977225
  endloop
endfacet
facet normal 9.685961215528734e-15 0.0 1.0
  outer loop
    vertex 188.29051115136414 -205.4380677273799 6.2999999999977225
    vertex 188.29051115136414 -203.5062160748016 6.2999999999977225
    vertex 188.0316921062616 -203.4721419010907 6.299999999997724
  endloop
endfacet
facet normal 9.685961215528734e-15 0.0 1.0
  outer loop
    vertex 188.29051115136414 -205.4380677273799 6.2999999999977225
    vertex 188.0316921062616 -203.4721419010907 6.299999999997724
    vertex 188.0316921062616 -205.4721419010908 6.299999999997724
  endloop
endfacet
facet normal 9.685961215528734e-15 0.0 1.0
  outer loop
    vertex 188.0316921062616 -205.4721419010908 6.299999999997724
    vertex 188.0316921062616 -203.4721419010907 6.299999999997724
    vertex 187.77287306115906 -203.5062160748016 6.299999999997728
  endloop
endfacet
facet normal 9.685961215528734e-15 0.0 1.0
  outer loop
    vertex 188.0316921062616 -205.4721419010908 6.299999999997724
    vertex 187.77287306115906 -203.5062160748016 6.299999999997728
    vertex 187.77287306115906 -205.4380677273799 6.299999999997728
  endloop
endfacet
facet normal 9.685961215528734e-15 0.0 1.0
  outer loop
    vertex 187.77287306115906 -205.4380677273799 6.299999999997728
    vertex 187.77287306115906 -203.5062160748016 6.299999999997728
    vertex 187.53169210626154 -203.60611649730626 6.29999999999773
  endloop
endfacet
facet normal 9.685961215528734e-15 0.0 1.0
  outer loop
    vertex 187.77287306115906 -205.4380677273799 6.299999999997728
    vertex 187.53169210626154 -203.60611649730626 6.29999999999773
    vertex 187.53169210626163 -205.3381673048752 6.29999999999773
  endloop
endfacet
facet normal 9.685961215528734e-15 0.0 1.0
  outer loop
    vertex 187.53169210626163 -205.3381673048752 6.29999999999773
    vertex 187.53169210626154 -203.60611649730626 6.29999999999773
    vertex 187.32458532507502 -205.17924868227735 6.299999999997731
  endloop
endfacet
facet normal 9.685961215528734e-15 0.0 1.0
  outer loop
    vertex 187.32458532507502 -205.17924868227735 6.299999999997731
    vertex 187.53169210626154 -203.60611649730626 6.29999999999773
    vertex 187.32458532507502 -203.76503511990416 6.299999999997731
  endloop
endfacet
facet normal 9.685961215528734e-15 0.0 1.0
  outer loop
    vertex 187.32458532507502 -205.17924868227735 6.299999999997731
    vertex 187.32458532507502 -203.76503511990416 6.299999999997731
    vertex 187.16566670247713 -203.97214190109074 6.299999999997733
  endloop
endfacet
facet normal 9.685961215528734e-15 0.0 1.0
  outer loop
    vertex 187.32458532507502 -205.17924868227735 6.299999999997731
    vertex 187.16566670247713 -203.97214190109074 6.299999999997733
    vertex 187.16566670247713 -204.97214190109077 6.299999999997733
  endloop
endfacet
facet normal 9.685961215528734e-15 0.0 1.0
  outer loop
    vertex 187.16566670247713 -204.97214190109077 6.299999999997733
    vertex 187.16566670247713 -203.97214190109074 6.299999999997733
    vertex 187.06576627997248 -204.21332285598822 6.299999999997735
  endloop
endfacet
facet normal 9.685961215528734e-15 0.0 1.0
  outer loop
    vertex 187.16566670247713 -204.97214190109077 6.299999999997733
    vertex 187.06576627997248 -204.21332285598822 6.299999999997735
    vertex 187.06576627997248 -204.73096094619328 6.299999999997735
  endloop
endfacet
facet normal 9.685961215528734e-15 0.0 1.0
  outer loop
    vertex 187.06576627997248 -204.73096094619328 6.299999999997735
    vertex 187.06576627997248 -204.21332285598822 6.299999999997735
    vertex 187.03169210626157 -204.47214190109074 6.299999999997735
  endloop
endfacet
facet normal -0.3826834323650833 0.9238795325112895 3.70665688371361e-15
  outer loop
    vertex 188.5316921062617 -205.3381673048752 6.299999999997721
    vertex 188.2905111513642 -205.4380677273799 11.599999999999314
    vertex 188.53169210626172 -205.3381673048752 11.599999999999312
  endloop
endfacet
facet normal -0.3826834323650833 0.9238795325112895 3.70665688371361e-15
  outer loop
    vertex 188.2905111513642 -205.4380677273799 11.599999999999314
    vertex 188.5316921062617 -205.3381673048752 6.299999999997721
    vertex 188.29051115136414 -205.4380677273799 6.2999999999977225
  endloop
endfacet
facet normal -0.6087614290087409 0.7933533402912198 5.896439590888513e-15
  outer loop
    vertex 188.7387988874482 -205.17924868227735 6.299999999997718
    vertex 188.53169210626172 -205.3381673048752 11.599999999999312
    vertex 188.73879888744824 -205.17924868227735 11.59999999999931
  endloop
endfacet
facet normal -0.6087614290087409 0.7933533402912198 5.896439590888513e-15
  outer loop
    vertex 188.53169210626172 -205.3381673048752 11.599999999999312
    vertex 188.7387988874482 -205.17924868227735 6.299999999997718
    vertex 188.5316921062617 -205.3381673048752 6.299999999997721
  endloop
endfacet
facet normal -0.7933533402912838 0.6087614290086573 7.684389684271545e-15
  outer loop
    vertex 188.89771751004614 -204.97214190109077 11.599999999999309
    vertex 188.7387988874482 -205.17924868227735 6.299999999997718
    vertex 188.73879888744824 -205.17924868227735 11.59999999999931
  endloop
endfacet
facet normal -0.7933533402912838 0.6087614290086573 7.684389684271545e-15
  outer loop
    vertex 188.7387988874482 -205.17924868227735 6.299999999997718
    vertex 188.89771751004614 -204.97214190109077 11.599999999999309
    vertex 188.89771751004608 -204.97214190109077 6.299999999997716
  endloop
endfacet
facet normal -0.9238795325112642 0.3826834323651444 8.948661319724923e-15
  outer loop
    vertex 188.99761793255078 -204.73096094619328 11.599999999999307
    vertex 188.89771751004608 -204.97214190109077 6.299999999997716
    vertex 188.89771751004614 -204.97214190109077 11.599999999999309
  endloop
endfacet
facet normal -0.9238795325112642 0.3826834323651444 8.948661319724923e-15
  outer loop
    vertex 188.89771751004608 -204.97214190109077 6.299999999997716
    vertex 188.99761793255078 -204.73096094619328 11.599999999999307
    vertex 188.99761793255072 -204.73096094619328 6.299999999997715
  endloop
endfacet
facet normal -0.9914448613738197 0.13052619221998146 9.60309647460208e-15
  outer loop
    vertex 189.0316921062617 -204.47214190109074 11.599999999999307
    vertex 188.99761793255072 -204.73096094619328 6.299999999997715
    vertex 188.99761793255078 -204.73096094619328 11.599999999999307
  endloop
endfacet
facet normal -0.9914448613738197 0.13052619221998146 9.60309647460208e-15
  outer loop
    vertex 188.99761793255072 -204.73096094619328 6.299999999997715
    vertex 189.0316921062617 -204.47214190109074 11.599999999999307
    vertex 189.03169210626166 -204.47214190109074 6.299999999997715
  endloop
endfacet
facet normal -0.9914448613738197 -0.13052619221998146 9.60309647460208e-15
  outer loop
    vertex 188.99761793255078 -204.21332285598822 11.599999999999307
    vertex 189.03169210626166 -204.47214190109074 6.299999999997715
    vertex 189.0316921062617 -204.47214190109074 11.599999999999307
  endloop
endfacet
facet normal -0.9914448613738197 -0.13052619221998146 9.60309647460208e-15
  outer loop
    vertex 189.03169210626166 -204.47214190109074 6.299999999997715
    vertex 188.99761793255078 -204.21332285598822 11.599999999999307
    vertex 188.99761793255072 -204.21332285598822 6.299999999997715
  endloop
endfacet
facet normal -0.9238795325112642 -0.3826834323651444 8.948661319724923e-15
  outer loop
    vertex 188.89771751004614 -203.97214190109074 11.599999999999309
    vertex 188.99761793255072 -204.21332285598822 6.299999999997715
    vertex 188.99761793255078 -204.21332285598822 11.599999999999307
  endloop
endfacet
facet normal -0.9238795325112642 -0.3826834323651444 8.948661319724923e-15
  outer loop
    vertex 188.99761793255072 -204.21332285598822 6.299999999997715
    vertex 188.89771751004614 -203.97214190109074 11.599999999999309
    vertex 188.89771751004608 -203.97214190109074 6.299999999997716
  endloop
endfacet
facet normal -0.7933533402912838 -0.6087614290086573 7.684389684271545e-15
  outer loop
    vertex 188.73879888744824 -203.76503511990416 11.59999999999931
    vertex 188.89771751004608 -203.97214190109074 6.299999999997716
    vertex 188.89771751004614 -203.97214190109074 11.599999999999309
  endloop
endfacet
facet normal -0.7933533402912838 -0.6087614290086573 7.684389684271545e-15
  outer loop
    vertex 188.89771751004608 -203.97214190109074 6.299999999997716
    vertex 188.73879888744824 -203.76503511990416 11.59999999999931
    vertex 188.7387988874482 -203.76503511990416 6.299999999997718
  endloop
endfacet
facet normal -0.6087614290085739 -0.7933533402913479 5.896439590886895e-15
  outer loop
    vertex 188.53169210626157 -203.60611649730626 6.299999999997721
    vertex 188.73879888744824 -203.76503511990416 11.59999999999931
    vertex 188.53169210626163 -203.60611649730626 11.599999999999312
  endloop
endfacet
facet normal -0.6087614290085739 -0.7933533402913479 5.896439590886895e-15
  outer loop
    vertex 188.73879888744824 -203.76503511990416 11.59999999999931
    vertex 188.53169210626157 -203.60611649730626 6.299999999997721
    vertex 188.7387988874482 -203.76503511990416 6.299999999997718
  endloop
endfacet
facet normal -0.3826834323652055 -0.923879532511239 3.706656883714794e-15
  outer loop
    vertex 188.29051115136414 -203.5062160748016 6.2999999999977225
    vertex 188.53169210626163 -203.60611649730626 11.599999999999312
    vertex 188.2905111513642 -203.5062160748016 11.599999999999314
  endloop
endfacet
facet normal -0.3826834323652055 -0.923879532511239 3.706656883714794e-15
  outer loop
    vertex 188.53169210626163 -203.60611649730626 11.599999999999312
    vertex 188.29051115136414 -203.5062160748016 6.2999999999977225
    vertex 188.53169210626157 -203.60611649730626 6.299999999997721
  endloop
endfacet
facet normal -0.13052619221998146 -0.9914448613738197 1.2642716354533888e-15
  outer loop
    vertex 188.0316921062616 -203.4721419010907 6.299999999997724
    vertex 188.2905111513642 -203.5062160748016 11.599999999999314
    vertex 188.03169210626166 -203.4721419010907 11.599999999999318
  endloop
endfacet
facet normal -0.13052619221998146 -0.9914448613738197 1.2642716354533888e-15
  outer loop
    vertex 188.2905111513642 -203.5062160748016 11.599999999999314
    vertex 188.0316921062616 -203.4721419010907 6.299999999997724
    vertex 188.29051115136414 -203.5062160748016 6.2999999999977225
  endloop
endfacet
facet normal 0.13052619221998146 -0.9914448613738197 -1.2642716354533888e-15
  outer loop
    vertex 187.77287306115906 -203.5062160748016 6.299999999997728
    vertex 188.03169210626166 -203.4721419010907 11.599999999999318
    vertex 187.77287306115912 -203.5062160748016 11.59999999999932
  endloop
endfacet
facet normal 0.13052619221998146 -0.9914448613738197 -1.2642716354533888e-15
  outer loop
    vertex 188.03169210626166 -203.4721419010907 11.599999999999318
    vertex 187.77287306115906 -203.5062160748016 6.299999999997728
    vertex 188.0316921062616 -203.4721419010907 6.299999999997724
  endloop
endfacet
facet normal 0.3826834323650833 -0.9238795325112895 -3.70665688371361e-15
  outer loop
    vertex 187.53169210626154 -203.60611649730626 6.29999999999773
    vertex 187.77287306115912 -203.5062160748016 11.59999999999932
    vertex 187.53169210626157 -203.60611649730626 11.599999999999321
  endloop
endfacet
facet normal 0.3826834323650833 -0.9238795325112895 -3.70665688371361e-15
  outer loop
    vertex 187.77287306115912 -203.5062160748016 11.59999999999932
    vertex 187.53169210626154 -203.60611649730626 6.29999999999773
    vertex 187.77287306115906 -203.5062160748016 6.299999999997728
  endloop
endfacet
facet normal 0.6087614290087409 -0.7933533402912198 -5.896439590888513e-15
  outer loop
    vertex 187.32458532507502 -203.76503511990416 6.299999999997731
    vertex 187.53169210626157 -203.60611649730626 11.599999999999321
    vertex 187.32458532507505 -203.76503511990416 11.599999999999325
  endloop
endfacet
facet normal 0.6087614290087409 -0.7933533402912198 -5.896439590888513e-15
  outer loop
    vertex 187.53169210626157 -203.60611649730626 11.599999999999321
    vertex 187.32458532507502 -203.76503511990416 6.299999999997731
    vertex 187.53169210626154 -203.60611649730626 6.29999999999773
  endloop
endfacet
facet normal 0.7933533402912838 -0.6087614290086573 -7.684389684271545e-15
  outer loop
    vertex 187.32458532507502 -203.76503511990416 6.299999999997731
    vertex 187.16566670247718 -203.97214190109074 11.599999999999326
    vertex 187.16566670247713 -203.97214190109074 6.299999999997733
  endloop
endfacet
facet normal 0.7933533402912838 -0.6087614290086573 -7.684389684271545e-15
  outer loop
    vertex 187.16566670247718 -203.97214190109074 11.599999999999326
    vertex 187.32458532507502 -203.76503511990416 6.299999999997731
    vertex 187.32458532507505 -203.76503511990416 11.599999999999325
  endloop
endfacet
facet normal 0.9238795325112642 -0.3826834323651444 -8.948661319724923e-15
  outer loop
    vertex 187.16566670247713 -203.97214190109074 6.299999999997733
    vertex 187.06576627997254 -204.21332285598822 11.599999999999326
    vertex 187.06576627997248 -204.21332285598822 6.299999999997735
  endloop
endfacet
facet normal 0.9238795325112642 -0.3826834323651444 -8.948661319724923e-15
  outer loop
    vertex 187.06576627997254 -204.21332285598822 11.599999999999326
    vertex 187.16566670247713 -203.97214190109074 6.299999999997733
    vertex 187.16566670247718 -203.97214190109074 11.599999999999326
  endloop
endfacet
facet normal 0.9914448613738197 -0.13052619221998146 -9.60309647460208e-15
  outer loop
    vertex 187.06576627997248 -204.21332285598822 6.299999999997735
    vertex 187.0316921062616 -204.47214190109074 11.599999999999328
    vertex 187.03169210626157 -204.47214190109074 6.299999999997735
  endloop
endfacet
facet normal 0.9914448613738197 -0.13052619221998146 -9.60309647460208e-15
  outer loop
    vertex 187.0316921062616 -204.47214190109074 11.599999999999328
    vertex 187.06576627997248 -204.21332285598822 6.299999999997735
    vertex 187.06576627997254 -204.21332285598822 11.599999999999326
  endloop
endfacet
facet normal 0.9914448613738197 0.13052619221998146 -9.60309647460208e-15
  outer loop
    vertex 187.03169210626157 -204.47214190109074 6.299999999997735
    vertex 187.06576627997254 -204.73096094619328 11.599999999999326
    vertex 187.06576627997248 -204.73096094619328 6.299999999997735
  endloop
endfacet
facet normal 0.9914448613738197 0.13052619221998146 -9.60309647460208e-15
  outer loop
    vertex 187.06576627997254 -204.73096094619328 11.599999999999326
    vertex 187.03169210626157 -204.47214190109074 6.299999999997735
    vertex 187.0316921062616 -204.47214190109074 11.599999999999328
  endloop
endfacet
facet normal 0.9238795325112642 0.3826834323651444 -8.948661319724923e-15
  outer loop
    vertex 187.06576627997248 -204.73096094619328 6.299999999997735
    vertex 187.16566670247718 -204.97214190109077 11.599999999999326
    vertex 187.16566670247713 -204.97214190109077 6.299999999997733
  endloop
endfacet
facet normal 0.9238795325112642 0.3826834323651444 -8.948661319724923e-15
  outer loop
    vertex 187.16566670247718 -204.97214190109077 11.599999999999326
    vertex 187.06576627997248 -204.73096094619328 6.299999999997735
    vertex 187.06576627997254 -204.73096094619328 11.599999999999326
  endloop
endfacet
facet normal 0.7933533402912838 0.6087614290086573 -7.684389684271545e-15
  outer loop
    vertex 187.16566670247713 -204.97214190109077 6.299999999997733
    vertex 187.32458532507505 -205.17924868227735 11.599999999999325
    vertex 187.32458532507502 -205.17924868227735 6.299999999997731
  endloop
endfacet
facet normal 0.7933533402912838 0.6087614290086573 -7.684389684271545e-15
  outer loop
    vertex 187.32458532507505 -205.17924868227735 11.599999999999325
    vertex 187.16566670247713 -204.97214190109077 6.299999999997733
    vertex 187.16566670247718 -204.97214190109077 11.599999999999326
  endloop
endfacet
facet normal 0.6087614290085739 0.7933533402913479 -5.896439590886895e-15
  outer loop
    vertex 187.53169210626163 -205.3381673048752 6.29999999999773
    vertex 187.32458532507505 -205.17924868227735 11.599999999999325
    vertex 187.5316921062617 -205.3381673048752 11.599999999999321
  endloop
endfacet
facet normal 0.6087614290085739 0.7933533402913479 -5.896439590886895e-15
  outer loop
    vertex 187.32458532507505 -205.17924868227735 11.599999999999325
    vertex 187.53169210626163 -205.3381673048752 6.29999999999773
    vertex 187.32458532507502 -205.17924868227735 6.299999999997731
  endloop
endfacet
facet normal 0.3826834323652055 0.923879532511239 -3.706656883714794e-15
  outer loop
    vertex 187.77287306115906 -205.4380677273799 6.299999999997728
    vertex 187.5316921062617 -205.3381673048752 11.599999999999321
    vertex 187.77287306115912 -205.4380677273799 11.59999999999932
  endloop
endfacet
facet normal 0.3826834323652055 0.923879532511239 -3.706656883714794e-15
  outer loop
    vertex 187.5316921062617 -205.3381673048752 11.599999999999321
    vertex 187.77287306115906 -205.4380677273799 6.299999999997728
    vertex 187.53169210626163 -205.3381673048752 6.29999999999773
  endloop
endfacet
facet normal 0.13052619221998146 0.9914448613738197 -1.2642716354533888e-15
  outer loop
    vertex 188.0316921062616 -205.4721419010908 6.299999999997724
    vertex 187.77287306115912 -205.4380677273799 11.59999999999932
    vertex 188.03169210626166 -205.4721419010908 11.599999999999318
  endloop
endfacet
facet normal 0.13052619221998146 0.9914448613738197 -1.2642716354533888e-15
  outer loop
    vertex 187.77287306115912 -205.4380677273799 11.59999999999932
    vertex 188.0316921062616 -205.4721419010908 6.299999999997724
    vertex 187.77287306115906 -205.4380677273799 6.299999999997728
  endloop
endfacet
facet normal -0.13052619221998146 0.9914448613738197 1.2642716354533888e-15
  outer loop
    vertex 188.29051115136414 -205.4380677273799 6.2999999999977225
    vertex 188.03169210626166 -205.4721419010908 11.599999999999318
    vertex 188.2905111513642 -205.4380677273799 11.599999999999314
  endloop
endfacet
facet normal -0.13052619221998146 0.9914448613738197 1.2642716354533888e-15
  outer loop
    vertex 188.03169210626166 -205.4721419010908 11.599999999999318
    vertex 188.29051115136414 -205.4380677273799 6.2999999999977225
    vertex 188.0316921062616 -205.4721419010908 6.299999999997724
  endloop
endfacet
facet normal -0.8788171126619584 -0.47715876025962173 8.512188468786674e-15
  outer loop
    vertex 181.7428687681962 -206.88619500326615 6.599999999999388
    vertex 182.581958145786 -208.43160538969101 -6.091127602303458e-13
    vertex 182.58195814578605 -208.43160538969101 6.599999999999379
  endloop
endfacet
facet normal -0.8788171126619584 -0.47715876025962173 8.512188468786674e-15
  outer loop
    vertex 182.581958145786 -208.43160538969101 -6.091127602303458e-13
    vertex 181.7428687681962 -206.88619500326615 6.599999999999388
    vertex 181.74286876819613 -206.88619500326615 -6.006528607827022e-13
  endloop
endfacet
facet normal -0.725374371012324 -0.6883545756937156 7.025948024363921e-15
  outer loop
    vertex 182.58195814578605 -208.43160538969101 6.599999999999379
    vertex 183.7924378866714 -209.70718488269145 -6.203926261605375e-13
    vertex 183.79243788667145 -209.70718488269145 6.599999999999367
  endloop
endfacet
facet normal -0.725374371012324 -0.6883545756937156 7.025948024363921e-15
  outer loop
    vertex 183.7924378866714 -209.70718488269145 -6.203926261605375e-13
    vertex 182.58195814578605 -208.43160538969101 6.599999999999379
    vertex 182.581958145786 -208.43160538969101 -6.091127602303458e-13
  endloop
endfacet
facet normal 0.2334453638558775 -0.9723699203976834 -2.2611427402530226e-15
  outer loop
    vertex 188.73582109250876 -211.1714816990293 -6.683320563638517e-13
    vertex 190.4457452084364 -210.7609652391563 6.599999999999302
    vertex 188.73582109250881 -211.1714816990293 6.599999999999319
  endloop
endfacet
facet normal 0.2334453638558775 -0.9723699203976834 -2.2611427402530226e-15
  outer loop
    vertex 190.4457452084364 -210.7609652391563 6.599999999999302
    vertex 188.73582109250876 -211.1714816990293 -6.683320563638517e-13
    vertex 190.4457452084363 -210.7609652391563 -6.852518552591391e-13
  endloop
endfacet
facet normal -0.026176948307885826 -0.999657324975557 2.5354890605108266e-16
  outer loop
    vertex 186.97791174979642 -211.12544922285528 -6.514122574685643e-13
    vertex 188.73582109250881 -211.1714816990293 6.599999999999319
    vertex 186.97791174979648 -211.12544922285528 6.599999999999336
  endloop
endfacet
facet normal -0.026176948307885826 -0.999657324975557 2.5354890605108266e-16
  outer loop
    vertex 188.73582109250881 -211.1714816990293 6.599999999999319
    vertex 186.97791174979642 -211.12544922285528 -6.514122574685643e-13
    vertex 188.73582109250876 -211.1714816990293 -6.683320563638517e-13
  endloop
endfacet
facet normal -0.9723699203976695 -0.23344536385593567 9.418337336118589e-15
  outer loop
    vertex 181.33235230832292 -205.1762708873379 6.599999999999391
    vertex 181.74286876819613 -206.88619500326615 -6.006528607827022e-13
    vertex 181.7428687681962 -206.88619500326615 6.599999999999388
  endloop
endfacet
facet normal -0.9723699203976695 -0.23344536385593567 9.418337336118589e-15
  outer loop
    vertex 181.74286876819613 -206.88619500326615 -6.006528607827022e-13
    vertex 181.33235230832292 -205.1762708873379 6.599999999999391
    vertex 181.33235230832284 -205.1762708873379 -5.964229110588803e-13
  endloop
endfacet
facet normal -0.2840153447039467 -0.958819734868186 2.7509616134174517e-15
  outer loop
    vertex 185.29181579692354 -210.62600484781333 -6.34492458573277e-13
    vertex 186.97791174979648 -211.12544922285528 6.599999999999336
    vertex 185.2918157969236 -210.62600484781333 6.599999999999353
  endloop
endfacet
facet normal -0.2840153447039467 -0.958819734868186 2.7509616134174517e-15
  outer loop
    vertex 186.97791174979648 -211.12544922285528 6.599999999999336
    vertex 185.29181579692354 -210.62600484781333 -6.34492458573277e-13
    vertex 186.97791174979642 -211.12544922285528 -6.514122574685643e-13
  endloop
endfacet
facet normal -0.47715876025959725 0.8788171126619715 4.6217412455242326e-15
  outer loop
    vertex 185.61763900408675 -198.18331856302518 -6.387224082970987e-13
    vertex 184.07222861766118 -199.0224079406154 6.599999999999365
    vertex 185.61763900408684 -198.18331856302518 6.5999999999993495
  endloop
endfacet
facet normal -0.47715876025959725 0.8788171126619715 4.6217412455242326e-15
  outer loop
    vertex 184.07222861766118 -199.0224079406154 6.599999999999365
    vertex 185.61763900408675 -198.18331856302518 -6.387224082970987e-13
    vertex 184.07222861766112 -199.0224079406154 -6.232125926430853e-13
  endloop
endfacet
facet normal -0.6883545756937846 0.7253743710122587 6.667375722701736e-15
  outer loop
    vertex 184.07222861766112 -199.0224079406154 -6.232125926430853e-13
    vertex 182.7966491246607 -200.23288768150113 6.599999999999377
    vertex 184.07222861766118 -199.0224079406154 6.599999999999365
  endloop
endfacet
facet normal -0.6883545756937846 0.7253743710122587 6.667375722701736e-15
  outer loop
    vertex 182.7966491246607 -200.23288768150113 6.599999999999377
    vertex 184.07222861766112 -199.0224079406154 -6.232125926430853e-13
    vertex 182.7966491246606 -200.23288768150113 -6.105227434716198e-13
  endloop
endfacet
facet normal 0.47715876025959725 -0.8788171126619715 -4.6217412455242326e-15
  outer loop
    vertex 190.4457452084363 -210.7609652391563 -6.852518552591391e-13
    vertex 191.99115559486202 -209.9218758615661 6.599999999999288
    vertex 190.4457452084364 -210.7609652391563 6.599999999999302
  endloop
endfacet
facet normal 0.47715876025959725 -0.8788171126619715 -4.6217412455242326e-15
  outer loop
    vertex 191.99115559486202 -209.9218758615661 6.599999999999288
    vertex 190.4457452084363 -210.7609652391563 -6.852518552591391e-13
    vertex 191.99115559486197 -209.9218758615661 -7.007616709131525e-13
  endloop
endfacet
facet normal 0.8526401643540451 -0.5224985647160261 -8.258639562735326e-15
  outer loop
    vertex 194.18555505298403 -207.21201821042942 -7.219114195322617e-13
    vertex 193.26673508786254 -208.71139612068035 6.599999999999276
    vertex 193.26673508786246 -208.71139612068035 -7.120415368433441e-13
  endloop
endfacet
facet normal 0.8526401643540451 -0.5224985647160261 -8.258639562735326e-15
  outer loop
    vertex 193.26673508786254 -208.71139612068035 6.599999999999276
    vertex 194.18555505298403 -207.21201821042942 -7.219114195322617e-13
    vertex 194.1855550529841 -207.21201821042942 6.599999999999266
  endloop
endfacet
facet normal 0.9588197348682205 -0.28401534470383055 -9.287090764617126e-15
  outer loop
    vertex 194.68499942802603 -205.52592225755564 -7.261413692560836e-13
    vertex 194.1855550529841 -207.21201821042942 6.599999999999266
    vertex 194.18555505298403 -207.21201821042942 -7.219114195322617e-13
  endloop
endfacet
facet normal 0.9588197348682205 -0.28401534470383055 -9.287090764617126e-15
  outer loop
    vertex 194.1855550529841 -207.21201821042942 6.599999999999266
    vertex 194.68499942802603 -205.52592225755564 -7.261413692560836e-13
    vertex 194.6849994280261 -205.52592225755564 6.599999999999262
  endloop
endfacet
facet normal 0.6883545756937846 -0.7253743710122587 -6.667375722701736e-15
  outer loop
    vertex 191.99115559486197 -209.9218758615661 -7.007616709131525e-13
    vertex 193.26673508786254 -208.71139612068035 6.599999999999276
    vertex 191.99115559486202 -209.9218758615661 6.599999999999288
  endloop
endfacet
facet normal 0.6883545756937846 -0.7253743710122587 -6.667375722701736e-15
  outer loop
    vertex 193.26673508786254 -208.71139612068035 6.599999999999276
    vertex 191.99115559486197 -209.9218758615661 -7.007616709131525e-13
    vertex 193.26673508786246 -208.71139612068035 -7.120415368433441e-13
  endloop
endfacet
facet normal 0.9996573249755542 -0.026176948307992425 -9.682642078532421e-15
  outer loop
    vertex 194.73103190420022 -203.76801291484358 -7.261413692560836e-13
    vertex 194.6849994280261 -205.52592225755564 6.599999999999262
    vertex 194.68499942802603 -205.52592225755564 -7.261413692560836e-13
  endloop
endfacet
facet normal 0.9996573249755542 -0.026176948307992425 -9.682642078532421e-15
  outer loop
    vertex 194.6849994280261 -205.52592225755564 6.599999999999262
    vertex 194.73103190420022 -203.76801291484358 -7.261413692560836e-13
    vertex 194.7310319042003 -203.76801291484358 6.599999999999262
  endloop
endfacet
facet normal 0.9723699203976695 0.23344536385593567 -9.418337336118589e-15
  outer loop
    vertex 194.32051544432696 -202.05808879891535 -7.233214027735357e-13
    vertex 194.7310319042003 -203.76801291484358 6.599999999999262
    vertex 194.73103190420022 -203.76801291484358 -7.261413692560836e-13
  endloop
endfacet
facet normal 0.9723699203976695 0.23344536385593567 -9.418337336118589e-15
  outer loop
    vertex 194.7310319042003 -203.76801291484358 6.599999999999262
    vertex 194.32051544432696 -202.05808879891535 -7.233214027735357e-13
    vertex 194.32051544432701 -202.05808879891535 6.599999999999266
  endloop
endfacet
facet normal -0.8526401643540451 0.5224985647160261 8.258639562735326e-15
  outer loop
    vertex 182.7966491246607 -200.23288768150113 6.599999999999377
    vertex 181.87782915953903 -201.73226559175205 -6.020628440239761e-13
    vertex 181.87782915953912 -201.73226559175205 6.599999999999386
  endloop
endfacet
facet normal -0.8526401643540451 0.5224985647160261 8.258639562735326e-15
  outer loop
    vertex 181.87782915953903 -201.73226559175205 -6.020628440239761e-13
    vertex 182.7966491246607 -200.23288768150113 6.599999999999377
    vertex 182.7966491246606 -200.23288768150113 -6.105227434716198e-13
  endloop
endfacet
facet normal -0.9588197348682205 0.28401534470383055 9.287090764617126e-15
  outer loop
    vertex 181.87782915953912 -201.73226559175205 6.599999999999386
    vertex 181.37838478449706 -203.41836154462584 -5.978328943001542e-13
    vertex 181.37838478449711 -203.41836154462584 6.59999999999939
  endloop
endfacet
facet normal -0.9588197348682205 0.28401534470383055 9.287090764617126e-15
  outer loop
    vertex 181.37838478449706 -203.41836154462584 -5.978328943001542e-13
    vertex 181.87782915953912 -201.73226559175205 6.599999999999386
    vertex 181.87782915953903 -201.73226559175205 -6.020628440239761e-13
  endloop
endfacet
facet normal -0.5224985647158481 -0.852640164354154 5.060900833007135e-15
  outer loop
    vertex 183.7924378866714 -209.70718488269145 -6.203926261605375e-13
    vertex 185.2918157969236 -210.62600484781333 6.599999999999353
    vertex 183.79243788667145 -209.70718488269145 6.599999999999367
  endloop
endfacet
facet normal -0.5224985647158481 -0.852640164354154 5.060900833007135e-15
  outer loop
    vertex 185.2918157969236 -210.62600484781333 6.599999999999353
    vertex 183.7924378866714 -209.70718488269145 -6.203926261605375e-13
    vertex 185.29181579692354 -210.62600484781333 -6.34492458573277e-13
  endloop
endfacet
facet normal -0.9996573249755542 0.026176948307992425 9.682642078532421e-15
  outer loop
    vertex 181.37838478449711 -203.41836154462584 6.59999999999939
    vertex 181.33235230832284 -205.1762708873379 -5.964229110588803e-13
    vertex 181.33235230832292 -205.1762708873379 6.599999999999391
  endloop
endfacet
facet normal -0.9996573249755542 0.026176948307992425 9.682642078532421e-15
  outer loop
    vertex 181.33235230832284 -205.1762708873379 -5.964229110588803e-13
    vertex 181.37838478449711 -203.41836154462584 6.59999999999939
    vertex 181.37838478449706 -203.41836154462584 -5.978328943001542e-13
  endloop
endfacet
facet normal 0.026176948307885826 0.999657324975557 -2.5354890605108266e-16
  outer loop
    vertex 189.08547246272667 -197.81883457932622 -6.725620060876735e-13
    vertex 187.3275631200144 -197.7728021031522 6.5999999999993335
    vertex 189.08547246272673 -197.81883457932622 6.599999999999317
  endloop
endfacet
facet normal 0.026176948307885826 0.999657324975557 -2.5354890605108266e-16
  outer loop
    vertex 187.3275631200144 -197.7728021031522 6.5999999999993335
    vertex 189.08547246272667 -197.81883457932622 -6.725620060876735e-13
    vertex 187.32756312001433 -197.7728021031522 -6.542322239511122e-13
  endloop
endfacet
facet normal 0.2840153447039467 0.958819734868186 -2.7509616134174517e-15
  outer loop
    vertex 190.77156841559955 -198.31827895436817 -6.88071821741687e-13
    vertex 189.08547246272673 -197.81883457932622 6.599999999999317
    vertex 190.7715684155996 -198.31827895436817 6.5999999999993
  endloop
endfacet
facet normal 0.2840153447039467 0.958819734868186 -2.7509616134174517e-15
  outer loop
    vertex 189.08547246272673 -197.81883457932622 6.599999999999317
    vertex 190.77156841559955 -198.31827895436817 -6.88071821741687e-13
    vertex 189.08547246272667 -197.81883457932622 -6.725620060876735e-13
  endloop
endfacet
facet normal -0.2334453638558775 0.9723699203976834 2.2611427402530226e-15
  outer loop
    vertex 187.32756312001433 -197.7728021031522 -6.542322239511122e-13
    vertex 185.61763900408684 -198.18331856302518 6.5999999999993495
    vertex 187.3275631200144 -197.7728021031522 6.5999999999993335
  endloop
endfacet
facet normal -0.2334453638558775 0.9723699203976834 2.2611427402530226e-15
  outer loop
    vertex 185.61763900408684 -198.18331856302518 6.5999999999993495
    vertex 187.32756312001433 -197.7728021031522 -6.542322239511122e-13
    vertex 185.61763900408675 -198.18331856302518 -6.387224082970987e-13
  endloop
endfacet
facet normal 0.725374371012324 0.6883545756937156 -7.025948024363921e-15
  outer loop
    vertex 192.2709463258517 -199.23709891949005 -7.021716541544264e-13
    vertex 193.48142606673716 -200.51267841249046 6.599999999999273
    vertex 193.4814260667371 -200.51267841249046 -7.14861503325892e-13
  endloop
endfacet
facet normal 0.725374371012324 0.6883545756937156 -7.025948024363921e-15
  outer loop
    vertex 193.48142606673716 -200.51267841249046 6.599999999999273
    vertex 192.2709463258517 -199.23709891949005 -7.021716541544264e-13
    vertex 192.27094632585175 -199.23709891949005 6.5999999999992855
  endloop
endfacet
facet normal 0.8788171126619584 0.47715876025962173 -8.512188468786674e-15
  outer loop
    vertex 193.4814260667371 -200.51267841249046 -7.14861503325892e-13
    vertex 194.32051544432701 -202.05808879891535 6.599999999999266
    vertex 194.32051544432696 -202.05808879891535 -7.233214027735357e-13
  endloop
endfacet
facet normal 0.8788171126619584 0.47715876025962173 -8.512188468786674e-15
  outer loop
    vertex 194.32051544432701 -202.05808879891535 6.599999999999266
    vertex 193.4814260667371 -200.51267841249046 -7.14861503325892e-13
    vertex 193.48142606673716 -200.51267841249046 6.599999999999273
  endloop
endfacet
facet normal 0.5224985647158481 0.852640164354154 -5.060900833007135e-15
  outer loop
    vertex 192.2709463258517 -199.23709891949005 -7.021716541544264e-13
    vertex 190.7715684155996 -198.31827895436817 6.5999999999993
    vertex 192.27094632585175 -199.23709891949005 6.5999999999992855
  endloop
endfacet
facet normal 0.5224985647158481 0.852640164354154 -5.060900833007135e-15
  outer loop
    vertex 190.7715684155996 -198.31827895436817 6.5999999999993
    vertex 192.2709463258517 -199.23709891949005 -7.021716541544264e-13
    vertex 190.77156841559955 -198.31827895436817 -6.88071821741687e-13
  endloop
endfacet
facet normal 0.0 1.0 0.0
  outer loop
    vertex 190.43169210626152 -208.62906383925605 -6.852518552591391e-13
    vertex 185.6316921062616 -208.62906383925605 4.299999999999376
    vertex 190.43169210626158 -208.62906383925605 4.299999999999329
  endloop
endfacet
facet normal 0.0 1.0 0.0
  outer loop
    vertex 185.6316921062616 -208.62906383925605 4.299999999999376
    vertex 190.43169210626152 -208.62906383925605 -6.852518552591391e-13
    vertex 185.63169210626154 -208.62906383925605 -6.387224082970987e-13
  endloop
endfacet
facet normal 0.8660254037844387 0.4999999999999999 -8.388288472718684e-15
  outer loop
    vertex 183.23169210626156 -204.47214190109074 -6.147526931954417e-13
    vertex 185.6316921062616 -208.62906383925605 4.299999999999376
    vertex 185.63169210626154 -208.62906383925605 -6.387224082970987e-13
  endloop
endfacet
facet normal 0.8660254037844387 0.4999999999999999 -8.388288472718684e-15
  outer loop
    vertex 185.6316921062616 -208.62906383925605 4.299999999999376
    vertex 183.23169210626156 -204.47214190109074 -6.147526931954417e-13
    vertex 183.2316921062616 -204.47214190109074 4.299999999999399
  endloop
endfacet
facet normal 0.8660254037844387 -0.4999999999999999 -8.388288472718684e-15
  outer loop
    vertex 185.63169210626154 -200.31521996292545 -6.387224082970987e-13
    vertex 183.2316921062616 -204.47214190109074 4.299999999999399
    vertex 183.23169210626156 -204.47214190109074 -6.147526931954417e-13
  endloop
endfacet
facet normal 0.8660254037844387 -0.4999999999999999 -8.388288472718684e-15
  outer loop
    vertex 183.2316921062616 -204.47214190109074 4.299999999999399
    vertex 185.63169210626154 -200.31521996292545 -6.387224082970987e-13
    vertex 185.6316921062616 -200.31521996292545 4.299999999999376
  endloop
endfacet
facet normal 0.0 -1.0 0.0
  outer loop
    vertex 185.63169210626154 -200.31521996292545 -6.387224082970987e-13
    vertex 189.8273578996919 -200.31521996292545 4.2999999999993355
    vertex 185.6316921062616 -200.31521996292545 4.299999999999376
  endloop
endfacet
facet normal 0.0 -1.0 0.0
  outer loop
    vertex 189.8273578996919 -200.31521996292545 4.2999999999993355
    vertex 185.63169210626154 -200.31521996292545 -6.387224082970987e-13
    vertex 190.43169210626158 -200.31521996292545 4.299999999999329
  endloop
endfacet
facet normal 0.0 -1.0 0.0
  outer loop
    vertex 190.43169210626158 -200.31521996292545 4.299999999999329
    vertex 185.63169210626154 -200.31521996292545 -6.387224082970987e-13
    vertex 190.43169210626152 -200.31521996292545 -6.852518552591391e-13
  endloop
endfacet
facet normal -0.8660254037844387 -0.4999999999999999 8.388288472718684e-15
  outer loop
    vertex 191.63169210626157 -202.3936809320081 4.299999999999319
    vertex 192.83169210626153 -204.47214190109074 -7.078115871195223e-13
    vertex 192.83169210626158 -204.47214190109074 4.299999999999306
  endloop
endfacet
facet normal -0.8660254037844387 -0.4999999999999999 8.388288472718684e-15
  outer loop
    vertex 192.83169210626153 -204.47214190109074 -7.078115871195223e-13
    vertex 191.63169210626157 -202.3936809320081 4.299999999999319
    vertex 190.43169210626152 -200.31521996292545 -6.852518552591391e-13
  endloop
endfacet
facet normal -0.8660254037844387 -0.4999999999999999 8.388288472718684e-15
  outer loop
    vertex 190.43169210626152 -200.31521996292545 -6.852518552591391e-13
    vertex 191.63169210626157 -202.3936809320081 4.299999999999319
    vertex 191.03169210626163 -201.35445044746675 4.299999999999324
  endloop
endfacet
facet normal -0.8660254037844387 -0.4999999999999999 8.388288472718684e-15
  outer loop
    vertex 190.43169210626152 -200.31521996292545 -6.852518552591391e-13
    vertex 191.03169210626163 -201.35445044746675 4.299999999999324
    vertex 190.43169210626158 -200.31521996292545 4.299999999999329
  endloop
endfacet
facet normal -0.8660254037844387 0.4999999999999999 8.388288472718684e-15
  outer loop
    vertex 192.83169210626158 -204.47214190109074 4.299999999999306
    vertex 190.43169210626152 -208.62906383925605 -6.852518552591391e-13
    vertex 190.43169210626158 -208.62906383925605 4.299999999999329
  endloop
endfacet
facet normal -0.8660254037844387 0.4999999999999999 8.388288472718684e-15
  outer loop
    vertex 190.43169210626152 -208.62906383925605 -6.852518552591391e-13
    vertex 192.83169210626158 -204.47214190109074 4.299999999999306
    vertex 192.83169210626153 -204.47214190109074 -7.078115871195223e-13
  endloop
endfacet
facet normal -9.685961215528734e-15 0.0 -1.0
  outer loop
    vertex 190.43169210626158 -208.62906383925605 4.299999999999329
    vertex 191.63169210626157 -202.3936809320081 4.299999999999319
    vertex 192.83169210626158 -204.47214190109074 4.299999999999306
  endloop
endfacet
facet normal -9.685961215528734e-15 0.0 -1.0
  outer loop
    vertex 191.63169210626157 -202.3936809320081 4.299999999999319
    vertex 190.43169210626158 -208.62906383925605 4.299999999999329
    vertex 191.03169210626163 -201.35445044746675 4.299999999999324
  endloop
endfacet
facet normal -9.685961215528734e-15 0.0 -1.0
  outer loop
    vertex 191.03169210626163 -201.35445044746675 4.299999999999324
    vertex 190.43169210626158 -208.62906383925605 4.299999999999329
    vertex 190.43169210626158 -200.31521996292545 4.299999999999329
  endloop
endfacet
facet normal -9.685961215528734e-15 0.0 -1.0
  outer loop
    vertex 190.43169210626158 -200.31521996292545 4.299999999999329
    vertex 190.43169210626158 -208.62906383925605 4.299999999999329
    vertex 185.6316921062616 -208.62906383925605 4.299999999999376
  endloop
endfacet
facet normal -9.685961215528734e-15 0.0 -1.0
  outer loop
    vertex 190.43169210626158 -200.31521996292545 4.299999999999329
    vertex 185.6316921062616 -208.62906383925605 4.299999999999376
    vertex 189.8273578996919 -200.31521996292545 4.2999999999993355
  endloop
endfacet
facet normal -9.685961215528734e-15 0.0 -1.0
  outer loop
    vertex 189.8273578996919 -200.31521996292545 4.2999999999993355
    vertex 185.6316921062616 -208.62906383925605 4.299999999999376
    vertex 185.6316921062616 -200.31521996292545 4.299999999999376
  endloop
endfacet
facet normal -9.685961215528734e-15 0.0 -1.0
  outer loop
    vertex 185.6316921062616 -200.31521996292545 4.299999999999376
    vertex 185.6316921062616 -208.62906383925605 4.299999999999376
    vertex 183.2316921062616 -204.47214190109074 4.299999999999399
  endloop
endfacet
endsolid Centrifuge_V2
