M48
; DRILL file {KiCad (6.0.0-0)} date 2023 June 22, Thursday 10:54:44
; FORMAT={-:-/ absolute / inch / decimal}
; #@! TF.CreationDate,2023-06-22T10:54:44-03:00
; #@! TF.GenerationSoftware,Kicad,Pcbnew,(6.0.0-0)
; #@! TF.FileFunction,Plated,1,2,PTH
FMAT,2
INCH
; #@! TA.AperFunction,Plated,PTH,ViaDrill
T1C0.0157
; #@! TA.AperFunction,Plated,PTH,ViaDrill
T2C0.0236
; #@! TA.AperFunction,Plated,PTH,ComponentDrill
T3C0.0315
; #@! TA.AperFunction,Plated,PTH,ComponentDrill
T4C0.0320
; #@! TA.AperFunction,Plated,PTH,ComponentDrill
T5C0.0354
; #@! TA.AperFunction,Plated,PTH,ComponentDrill
T6C0.0394
; #@! TA.AperFunction,Plated,PTH,ComponentDrill
T7C0.0400
%
G90
G05
T1
X5.9575Y-2.9675
X6.265Y-2.4
X6.275Y-2.175
X6.68Y-2.635
X6.775Y-2.54
X6.975Y-2.25
X7.125Y-2.7776
X7.135Y-2.8563
X7.135Y-2.935
X7.35Y-2.425
X7.355Y-3.155
X7.375Y-2.25
X7.4275Y-2.8525
X7.5475Y-2.8525
X7.57Y-3.0125
X7.6575Y-3.3675
X7.665Y-3.585
X7.95Y-3.25
X8.4Y-3.585
X8.4525Y-3.5225
T2
X7.105Y-3.015
X7.105Y-3.09
X7.435Y-2.595
X8.155Y-3.355
T3
X7.0031Y-2.43
X7.2Y-2.43
X8.02Y-2.3481
X8.02Y-2.545
T4
X8.35Y-2.95
X8.35Y-3.05
X8.35Y-3.15
X8.45Y-2.95
X8.45Y-3.05
X8.45Y-3.15
T5
X8.435Y-2.3481
X8.435Y-2.545
T6
X6.2Y-2.835
X6.2Y-2.935
X6.2Y-3.035
X6.2Y-3.135
X6.36Y-2.54
X6.36Y-2.64
X6.505Y-2.83
X6.505Y-2.93
X6.505Y-3.03
X6.505Y-3.13
X6.69Y-3.395
X6.79Y-3.395
X7.2845Y-3.6835
X7.2845Y-3.7835
X7.2845Y-3.8835
X7.3845Y-3.6835
X7.3845Y-3.7835
X7.3845Y-3.8835
X7.6295Y-3.685
X7.6295Y-3.785
X7.6295Y-3.885
X7.7295Y-3.685
X7.7295Y-3.785
X7.7295Y-3.885
X8.79Y-2.51
X8.79Y-2.85
X8.79Y-3.16
X8.79Y-3.47
X8.89Y-2.51
X8.89Y-2.85
X8.89Y-3.16
X8.89Y-3.47
X8.99Y-2.51
X8.99Y-2.85
X8.99Y-3.16
X8.99Y-3.47
X9.09Y-2.51
X9.09Y-2.85
X9.09Y-3.16
X9.09Y-3.47
T7
X6.589Y-1.949
X6.59Y-2.15
X6.689Y-1.949
X6.69Y-2.15
X6.789Y-1.949
X6.79Y-2.15
X6.85Y-3.59
X6.889Y-1.949
X6.89Y-2.15
X6.95Y-3.59
X6.95Y-4.05
X6.95Y-4.25
X6.989Y-1.949
X6.99Y-2.15
X7.05Y-3.59
X7.05Y-4.05
X7.05Y-4.25
X7.089Y-1.949
X7.09Y-2.15
X7.15Y-4.05
X7.15Y-4.25
X7.189Y-1.949
X7.19Y-2.15
X7.25Y-4.05
X7.25Y-4.25
X7.289Y-1.949
X7.29Y-2.15
X7.35Y-4.05
X7.35Y-4.25
X7.389Y-1.949
X7.39Y-2.15
X7.45Y-4.05
X7.45Y-4.25
X7.489Y-1.949
X7.49Y-2.15
X7.55Y-4.05
X7.55Y-4.25
X7.6495Y-1.949
X7.65Y-2.15
X7.65Y-4.05
X7.65Y-4.25
X7.7495Y-1.949
X7.75Y-2.15
X7.8495Y-1.949
X7.85Y-2.15
X7.85Y-4.05
X7.85Y-4.25
X7.9495Y-1.949
X7.95Y-2.15
X7.95Y-4.05
X7.95Y-4.25
X8.0495Y-1.949
X8.05Y-2.15
X8.05Y-4.05
X8.05Y-4.25
X8.1495Y-1.949
X8.15Y-2.15
X8.15Y-4.05
X8.15Y-4.25
X8.2495Y-1.949
X8.25Y-2.15
X8.25Y-4.05
X8.25Y-4.25
X8.3495Y-1.949
X8.35Y-2.15
X8.35Y-4.05
X8.35Y-4.25
X8.45Y-4.05
X8.45Y-4.25
X8.55Y-1.953
X8.55Y-2.15
X8.55Y-4.05
X8.55Y-4.25
X8.65Y-1.953
X8.65Y-2.15
X8.75Y-1.953
X8.75Y-2.15
X8.75Y-4.05
X8.75Y-4.25
X8.85Y-1.953
X8.85Y-2.15
X8.85Y-4.05
X8.85Y-4.25
X8.95Y-1.953
X8.95Y-2.15
X8.95Y-4.05
X8.95Y-4.25
X9.0055Y-3.8505
X9.05Y-1.953
X9.05Y-2.15
X9.05Y-4.05
X9.05Y-4.25
X9.1055Y-3.8505
X9.15Y-1.953
X9.15Y-2.15
X9.15Y-4.05
X9.15Y-4.25
X9.2055Y-3.8505
X9.25Y-1.953
X9.25Y-2.15
X9.25Y-4.05
X9.25Y-4.25
X9.35Y-4.05
X9.35Y-4.25
X9.4015Y-2.1505
X9.4015Y-2.2505
X9.4015Y-2.3505
X9.4015Y-2.4505
X9.4015Y-2.5505
X9.4015Y-2.6505
X9.4015Y-2.7505
X9.4015Y-2.8505
X9.4015Y-2.9505
X9.4015Y-3.0505
X9.4015Y-3.1505
X9.4015Y-3.2505
X9.4015Y-3.3505
X9.4015Y-3.4505
X9.4015Y-3.5505
X9.4015Y-3.6505
X9.4015Y-3.7505
X9.4015Y-3.8505
X9.45Y-4.05
X9.45Y-4.25
X9.55Y-2.15
X9.55Y-2.25
X9.55Y-2.35
X9.55Y-2.45
X9.55Y-2.55
X9.55Y-2.65
X9.55Y-2.75
X9.55Y-2.85
X9.55Y-2.95
X9.55Y-3.05
X9.55Y-3.15
X9.55Y-3.25
X9.55Y-3.35
X9.55Y-3.45
X9.55Y-3.55
X9.55Y-3.65
X9.55Y-3.75
X9.55Y-3.85
X9.65Y-2.15
X9.65Y-2.25
X9.65Y-2.35
X9.65Y-2.45
X9.65Y-2.55
X9.65Y-2.65
X9.65Y-2.75
X9.65Y-2.85
X9.65Y-2.95
X9.65Y-3.05
X9.65Y-3.15
X9.65Y-3.25
X9.65Y-3.35
X9.65Y-3.45
X9.65Y-3.55
X9.65Y-3.65
X9.65Y-3.75
X9.65Y-3.85
X9.8Y-2.1505
X9.8Y-2.2505
X9.8Y-2.3505
X9.8Y-2.4505
X9.8Y-2.5505
X9.8Y-2.6505
X9.8Y-2.7505
X9.8Y-2.8505
X9.8Y-2.9505
X9.8Y-3.0505
X9.8Y-3.1505
X9.8Y-3.2505
X9.8Y-3.3505
X9.8Y-3.4505
X9.8Y-3.5505
X9.8Y-3.6505
X9.8Y-3.7505
X9.8Y-3.8505
T0
M30
