G04 #@! TF.GenerationSoftware,KiCad,Pcbnew,(6.0.0-0)*
G04 #@! TF.CreationDate,2023-06-22T10:54:49-03:00*
G04 #@! TF.ProjectId,NNC_ControlBoard,4e4e435f-436f-46e7-9472-6f6c426f6172,rev?*
G04 #@! TF.SameCoordinates,Original*
G04 #@! TF.FileFunction,Soldermask,Top*
G04 #@! TF.FilePolarity,Negative*
%FSLAX46Y46*%
G04 Gerber Fmt 4.6, Leading zero omitted, Abs format (unit mm)*
G04 Created by KiCad (PCBNEW (6.0.0-0)) date 2023-06-22 10:54:49*
%MOMM*%
%LPD*%
G01*
G04 APERTURE LIST*
G04 Aperture macros list*
%AMRoundRect*
0 Rectangle with rounded corners*
0 $1 Rounding radius*
0 $2 $3 $4 $5 $6 $7 $8 $9 X,Y pos of 4 corners*
0 Add a 4 corners polygon primitive as box body*
4,1,4,$2,$3,$4,$5,$6,$7,$8,$9,$2,$3,0*
0 Add four circle primitives for the rounded corners*
1,1,$1+$1,$2,$3*
1,1,$1+$1,$4,$5*
1,1,$1+$1,$6,$7*
1,1,$1+$1,$8,$9*
0 Add four rect primitives between the rounded corners*
20,1,$1+$1,$2,$3,$4,$5,0*
20,1,$1+$1,$4,$5,$6,$7,0*
20,1,$1+$1,$6,$7,$8,$9,0*
20,1,$1+$1,$8,$9,$2,$3,0*%
G04 Aperture macros list end*
%ADD10RoundRect,0.200000X0.650000X0.650000X-0.650000X0.650000X-0.650000X-0.650000X0.650000X-0.650000X0*%
%ADD11C,1.700000*%
%ADD12RoundRect,0.200000X0.650000X-0.650000X0.650000X0.650000X-0.650000X0.650000X-0.650000X-0.650000X0*%
%ADD13RoundRect,0.200000X0.700000X-0.700000X0.700000X0.700000X-0.700000X0.700000X-0.700000X-0.700000X0*%
%ADD14C,1.800000*%
%ADD15RoundRect,0.200000X1.200000X0.550000X-1.200000X0.550000X-1.200000X-0.550000X1.200000X-0.550000X0*%
%ADD16O,2.800000X1.500000*%
%ADD17RoundRect,0.200000X0.863600X-1.016000X0.863600X1.016000X-0.863600X1.016000X-0.863600X-1.016000X0*%
%ADD18O,2.127200X2.432000*%
%ADD19RoundRect,0.200000X-0.863600X1.016000X-0.863600X-1.016000X0.863600X-1.016000X0.863600X1.016000X0*%
%ADD20RoundRect,0.200000X-1.016000X-0.863600X1.016000X-0.863600X1.016000X0.863600X-1.016000X0.863600X0*%
%ADD21O,2.432000X2.127200*%
%ADD22RoundRect,0.200000X0.750000X0.650000X-0.750000X0.650000X-0.750000X-0.650000X0.750000X-0.650000X0*%
%ADD23RoundRect,0.200000X-0.750000X-0.650000X0.750000X-0.650000X0.750000X0.650000X-0.750000X0.650000X0*%
%ADD24O,1.924000X2.940000*%
%ADD25C,1.924000*%
%ADD26RoundRect,0.200000X1.000000X0.800000X-1.000000X0.800000X-1.000000X-0.800000X1.000000X-0.800000X0*%
%ADD27RoundRect,0.200000X-1.000000X-0.750000X1.000000X-0.750000X1.000000X0.750000X-1.000000X0.750000X0*%
%ADD28RoundRect,0.200000X-1.000000X-1.900000X1.000000X-1.900000X1.000000X1.900000X-1.000000X1.900000X0*%
%ADD29RoundRect,0.200000X-0.850000X-0.850000X0.850000X-0.850000X0.850000X0.850000X-0.850000X0.850000X0*%
%ADD30O,2.100000X2.100000*%
%ADD31RoundRect,0.200000X0.850000X-0.850000X0.850000X0.850000X-0.850000X0.850000X-0.850000X-0.850000X0*%
%ADD32RoundRect,0.200000X-0.850000X0.850000X-0.850000X-0.850000X0.850000X-0.850000X0.850000X0.850000X0*%
%ADD33RoundRect,0.200000X0.850000X0.850000X-0.850000X0.850000X-0.850000X-0.850000X0.850000X-0.850000X0*%
G04 APERTURE END LIST*
D10*
X182880000Y-61722000D03*
D11*
X177880000Y-61722000D03*
D12*
X203708000Y-64643000D03*
D11*
X203708000Y-59643000D03*
D13*
X214249000Y-64643000D03*
D14*
X214249000Y-59643000D03*
D15*
X199390000Y-82550000D03*
D16*
X199390000Y-80550000D03*
X199390000Y-78550000D03*
X199390000Y-76550000D03*
X199390000Y-74550000D03*
X199390000Y-72550000D03*
X199390000Y-70550000D03*
X199390000Y-68550000D03*
X183390000Y-68550000D03*
X183390000Y-70550000D03*
X183390000Y-72550000D03*
X183390000Y-74550000D03*
X183390000Y-76550000D03*
X183390000Y-78550000D03*
X183390000Y-80550000D03*
X183390000Y-82550000D03*
D17*
X228739700Y-97802700D03*
D18*
X231279700Y-97802700D03*
X233819700Y-97802700D03*
D19*
X179070000Y-91186000D03*
D18*
X176530000Y-91186000D03*
X173990000Y-91186000D03*
D20*
X238798100Y-54622700D03*
D21*
X238798100Y-57162700D03*
X238798100Y-59702700D03*
X238798100Y-62242700D03*
X238798100Y-64782700D03*
X238798100Y-67322700D03*
X238798100Y-69862700D03*
X238798100Y-72402700D03*
X238798100Y-74942700D03*
X238798100Y-77482700D03*
X238798100Y-80022700D03*
X238798100Y-82562700D03*
X238798100Y-85102700D03*
X238798100Y-87642700D03*
X238798100Y-90182700D03*
X238798100Y-92722700D03*
X238798100Y-95262700D03*
X238798100Y-97802700D03*
D20*
X248920000Y-54622700D03*
D21*
X248920000Y-57162700D03*
X248920000Y-59702700D03*
X248920000Y-62242700D03*
X248920000Y-64782700D03*
X248920000Y-67322700D03*
X248920000Y-69862700D03*
X248920000Y-72402700D03*
X248920000Y-74942700D03*
X248920000Y-77482700D03*
X248920000Y-80022700D03*
X248920000Y-82562700D03*
X248920000Y-85102700D03*
X248920000Y-87642700D03*
X248920000Y-90182700D03*
X248920000Y-92722700D03*
X248920000Y-95262700D03*
X248920000Y-97802700D03*
D17*
X176530000Y-107950000D03*
D18*
X179070000Y-107950000D03*
X181610000Y-107950000D03*
X184150000Y-107950000D03*
X186690000Y-107950000D03*
X189230000Y-107950000D03*
X191770000Y-107950000D03*
X194310000Y-107950000D03*
D17*
X199390000Y-107950000D03*
D18*
X201930000Y-107950000D03*
X204470000Y-107950000D03*
X207010000Y-107950000D03*
X209550000Y-107950000D03*
X212090000Y-107950000D03*
X214630000Y-107950000D03*
X217170000Y-107950000D03*
D17*
X222250000Y-107950000D03*
D18*
X224790000Y-107950000D03*
X227330000Y-107950000D03*
X229870000Y-107950000D03*
X232410000Y-107950000D03*
X234950000Y-107950000D03*
X237490000Y-107950000D03*
X240030000Y-107950000D03*
D17*
X167360600Y-49504600D03*
D18*
X169900600Y-49504600D03*
X172440600Y-49504600D03*
X174980600Y-49504600D03*
X177520600Y-49504600D03*
X180060600Y-49504600D03*
X182600600Y-49504600D03*
X185140600Y-49504600D03*
X187680600Y-49504600D03*
X190220600Y-49504600D03*
D17*
X194297300Y-49504600D03*
D18*
X196837300Y-49504600D03*
X199377300Y-49504600D03*
X201917300Y-49504600D03*
X204457300Y-49504600D03*
X206997300Y-49504600D03*
X209537300Y-49504600D03*
X212077300Y-49504600D03*
D17*
X217170000Y-49606200D03*
D18*
X219710000Y-49606200D03*
X222250000Y-49606200D03*
X224790000Y-49606200D03*
X227330000Y-49606200D03*
X229870000Y-49606200D03*
X232410000Y-49606200D03*
X234950000Y-49606200D03*
D22*
X179404000Y-72390000D03*
X176704000Y-72390000D03*
X179404000Y-74803000D03*
X176704000Y-74803000D03*
X207102700Y-82511900D03*
X204402700Y-82511900D03*
D23*
X204428100Y-79908400D03*
X207128100Y-79908400D03*
X173910000Y-68453000D03*
X176610000Y-68453000D03*
D24*
X212090000Y-54610000D03*
X209550000Y-54610000D03*
X207010000Y-54610000D03*
X204470000Y-54610000D03*
X184150000Y-102870000D03*
X201930000Y-54610000D03*
X199390000Y-54610000D03*
X186690000Y-102870000D03*
D25*
X242570000Y-54610000D03*
X245110000Y-54610000D03*
D24*
X196850000Y-54610000D03*
X194310000Y-54610000D03*
X190246000Y-54610000D03*
X187706000Y-54610000D03*
X185166000Y-54610000D03*
X182626000Y-54610000D03*
X180086000Y-54610000D03*
X177546000Y-54610000D03*
X217170000Y-54610000D03*
X219710000Y-54610000D03*
X222250000Y-54610000D03*
X224790000Y-54610000D03*
X227330000Y-54610000D03*
X229870000Y-54610000D03*
X232410000Y-54610000D03*
X234950000Y-54610000D03*
D25*
X242570000Y-57150000D03*
X245110000Y-57150000D03*
X242570000Y-59690000D03*
X245110000Y-59690000D03*
X242570000Y-62230000D03*
X245110000Y-62230000D03*
X242570000Y-64770000D03*
X245110000Y-64770000D03*
X242570000Y-67310000D03*
X245110000Y-67310000D03*
X242570000Y-69850000D03*
X245110000Y-69850000D03*
X242570000Y-72390000D03*
X245110000Y-72390000D03*
X242570000Y-74930000D03*
X245110000Y-74930000D03*
X242570000Y-77470000D03*
X245110000Y-77470000D03*
X242570000Y-80010000D03*
X245110000Y-80010000D03*
X242570000Y-82550000D03*
X245110000Y-82550000D03*
X242570000Y-85090000D03*
X245110000Y-85090000D03*
X242570000Y-87630000D03*
X245110000Y-87630000D03*
X242570000Y-90170000D03*
X245110000Y-90170000D03*
X242570000Y-92710000D03*
X245110000Y-92710000D03*
X242570000Y-95250000D03*
X245110000Y-95250000D03*
D24*
X199390000Y-102870000D03*
X201930000Y-102870000D03*
X204470000Y-102870000D03*
X207010000Y-102870000D03*
X209550000Y-102870000D03*
X212090000Y-102870000D03*
X214630000Y-102870000D03*
X217170000Y-102870000D03*
X222250000Y-102870000D03*
X224790000Y-102870000D03*
X227330000Y-102870000D03*
X229870000Y-102870000D03*
X172466000Y-54610000D03*
X237490000Y-102870000D03*
X240030000Y-102870000D03*
X232410000Y-102870000D03*
X234950000Y-102870000D03*
X189230000Y-102870000D03*
X191770000Y-102870000D03*
X175006000Y-54610000D03*
D25*
X242570000Y-97790000D03*
X245110000Y-97790000D03*
D24*
X179070000Y-102870000D03*
X176530000Y-102870000D03*
X181610000Y-102870000D03*
X167386000Y-54610000D03*
X169926000Y-54610000D03*
D25*
X212090000Y-74930000D03*
X214630000Y-74930000D03*
X212090000Y-77470000D03*
X214630000Y-77470000D03*
X212090000Y-80010000D03*
X214630000Y-80010000D03*
D24*
X194310000Y-102870000D03*
D26*
X156814500Y-60921900D03*
X151414500Y-60921900D03*
X156814500Y-55206900D03*
X151414500Y-55206900D03*
D27*
X188785100Y-59307700D03*
X188785100Y-61607700D03*
D28*
X195085100Y-61607700D03*
D27*
X188785100Y-63907700D03*
D29*
X161544000Y-64516000D03*
D30*
X161544000Y-67056000D03*
D31*
X169926000Y-86233000D03*
D30*
X172466000Y-86233000D03*
D32*
X230886000Y-88138000D03*
D30*
X228346000Y-88138000D03*
X225806000Y-88138000D03*
X223266000Y-88138000D03*
D33*
X165227000Y-79502000D03*
D30*
X165227000Y-76962000D03*
X165227000Y-74422000D03*
X165227000Y-71882000D03*
D32*
X230886000Y-63754000D03*
D30*
X228346000Y-63754000D03*
X225806000Y-63754000D03*
X223266000Y-63754000D03*
D32*
X230886000Y-72390000D03*
D30*
X228346000Y-72390000D03*
X225806000Y-72390000D03*
X223266000Y-72390000D03*
D32*
X230886000Y-80264000D03*
D30*
X228346000Y-80264000D03*
X225806000Y-80264000D03*
X223266000Y-80264000D03*
D33*
X157480000Y-79629000D03*
D30*
X157480000Y-77089000D03*
X157480000Y-74549000D03*
X157480000Y-72009000D03*
D29*
X193789300Y-93599000D03*
D30*
X196329300Y-93599000D03*
X193789300Y-96139000D03*
X196329300Y-96139000D03*
X193789300Y-98679000D03*
X196329300Y-98679000D03*
D33*
X187566300Y-98640900D03*
D30*
X185026300Y-98640900D03*
X187566300Y-96100900D03*
X185026300Y-96100900D03*
X187566300Y-93560900D03*
X185026300Y-93560900D03*
M02*
